<svg xmlns="http://www.w3.org/2000/svg" width="871" height="166" fill="none"><path fill="#fff" d="M0 0h871v166H0z"/><path stroke="#000" stroke-width="5" d="M868.5 2.5h-649v161h649z"/><path fill="#000" d="M0 0h217v166H0z"/><path fill="#fff" d="M28.2 110.96c-.8 0-1.2-.4-1.2-1.2v-81.6c0-.8.4-1.2 1.2-1.2h9.12c.8 0 1.2.4 1.2 1.2v72.36c0 .32.16.48.48.48h34.08c.8 0 1.2.4 1.2 1.2v7.56c0 .8-.4 1.2-1.2 1.2H28.2ZM163.99 112.04c-5.12 0-9.64-1.04-13.56-3.12-3.84-2.16-6.84-5.16-9-9s-3.24-8.28-3.24-13.32V51.32c0-4.96 1.08-9.36 3.24-13.2s5.16-6.8 9-8.88c3.92-2.16 8.44-3.24 13.56-3.24 5.12 0 9.64 1.08 13.56 3.24 3.92 2.08 6.96 5.04 9.12 8.88 2.16 3.84 3.24 8.24 3.24 13.2V86.6c0 5.04-1.08 9.48-3.24 13.32s-5.2 6.84-9.12 9c-3.92 2.08-8.44 3.12-13.56 3.12Zm0-10.08c4.32 0 7.8-1.36 10.44-4.08 2.64-2.72 3.96-6.32 3.96-10.8v-36c0-4.48-1.32-8.12-3.96-10.92-2.64-2.8-6.12-4.2-10.44-4.2-4.24 0-7.68 1.4-10.32 4.2-2.64 2.8-3.96 6.44-3.96 10.92v36c0 4.4 1.32 8 3.96 10.8 2.64 2.72 6.08 4.08 10.32 4.08ZM99.26 131.76c-.18.3-.12.45.18.45h23.85c.6 0 .9.3.9.9v5.67c0 .6-.3.9-.9.9H89.36c-.6 0-.9-.3-.9-.9v-5.76c0-.42.12-.78.36-1.08 7.74-9.96 13.77-17.97 18.09-24.03 4.62-6.42 6.93-11.55 6.93-15.39 0-2.76-.78-4.95-2.34-6.57-1.56-1.68-3.63-2.52-6.21-2.52-2.52 0-4.56.84-6.12 2.52-1.5 1.62-2.22 3.78-2.16 6.48v3.15c0 .6-.3.9-.9.9h-6.93c-.6 0-.9-.3-.9-.9v-3.87c.12-4.74 1.77-8.55 4.95-11.43 3.24-2.88 7.32-4.32 12.24-4.32 3.42 0 6.42.72 9 2.16 2.58 1.38 4.56 3.33 5.94 5.85 1.44 2.52 2.16 5.37 2.16 8.55 0 5.34-2.4 11.4-7.2 18.18-2.76 3.9-7.26 9.81-13.5 17.73l-2.61 3.33Z"/><path fill="#000" d="M273.84 125.08c-5.76 0-10.88-1.12-15.36-3.36-4.4-2.32-7.84-5.56-10.32-9.72-2.4-4.24-3.6-9.08-3.6-14.52V66.4c0-5.44 1.2-10.2 3.6-14.28 2.48-4.16 5.92-7.36 10.32-9.6 4.48-2.32 9.6-3.48 15.36-3.48s10.84 1.12 15.24 3.36c4.4 2.16 7.8 5.24 10.2 9.24 2.48 4 3.72 8.64 3.72 13.92v.12c0 .4-.12.72-.36.96s-.52.36-.84.36l-9.12.48c-.8 0-1.2-.36-1.2-1.08v-.36c0-5.12-1.6-9.24-4.8-12.36-3.2-3.12-7.48-4.68-12.84-4.68-5.36 0-9.68 1.56-12.96 4.68-3.2 3.12-4.8 7.24-4.8 12.36v31.92c0 5.12 1.6 9.24 4.8 12.36 3.28 3.12 7.6 4.68 12.96 4.68 5.36 0 9.64-1.56 12.84-4.68 3.2-3.12 4.8-7.24 4.8-12.36v-.24c0-.72.4-1.08 1.2-1.08l9.12.48c.8 0 1.2.4 1.2 1.2 0 5.28-1.24 9.96-3.72 14.04-2.4 4-5.8 7.12-10.2 9.36-4.4 2.24-9.48 3.36-15.24 3.36Zm69.293-.12c-5.92 0-11.08-1.48-15.48-4.44-4.4-3.04-7.48-7.24-9.24-12.6-1.44-4.32-2.16-9.2-2.16-14.64 0-5.68.68-10.48 2.04-14.4 1.76-5.28 4.84-9.4 9.24-12.36 4.4-3.04 9.64-4.56 15.72-4.56 5.76 0 10.76 1.52 15 4.56 4.32 2.96 7.4 7.04 9.24 12.24 1.44 4.08 2.16 8.88 2.16 14.4 0 5.6-.72 10.52-2.16 14.76-1.76 5.36-4.8 9.56-9.12 12.6-4.32 2.96-9.4 4.44-15.24 4.44Zm0-9.96c3.2 0 6-.88 8.4-2.64 2.4-1.84 4.12-4.4 5.16-7.68.88-3.04 1.32-6.8 1.32-11.28 0-4.48-.4-8.2-1.2-11.16-1.04-3.28-2.76-5.8-5.16-7.56-2.4-1.84-5.32-2.76-8.76-2.76-3.28 0-6.12.92-8.52 2.76-2.4 1.76-4.12 4.28-5.16 7.56-.88 2.8-1.32 6.52-1.32 11.16 0 4.64.44 8.4 1.32 11.28.96 3.28 2.64 5.84 5.04 7.68 2.48 1.76 5.44 2.64 8.88 2.64Zm68.843-52.92c6.56 0 11.76 1.92 15.6 5.76 3.84 3.76 5.76 8.88 5.76 15.36v39.6c0 .8-.4 1.2-1.2 1.2h-9.12c-.8 0-1.2-.4-1.2-1.2V85.48c0-4-1.16-7.24-3.48-9.72-2.32-2.48-5.4-3.72-9.24-3.72-3.76 0-6.84 1.24-9.24 3.72-2.4 2.48-3.6 5.68-3.6 9.6v37.44c0 .8-.4 1.2-1.2 1.2h-9.12c-.8 0-1.2-.4-1.2-1.2V64.12c0-.8.4-1.2 1.2-1.2h9.12c.8 0 1.2.4 1.2 1.2v4.32c0 .16.04.28.12.36.16.08.28.04.36-.12 3.44-4.4 8.52-6.6 15.24-6.6Zm59.279 62.64c-4.8 0-9.04-.72-12.72-2.16-3.6-1.44-6.4-3.4-8.4-5.88-2-2.56-3-5.36-3-8.4v-1.32c0-.8.4-1.2 1.2-1.2h8.64c.8 0 1.2.4 1.2 1.2v.6c0 2.24 1.2 4.2 3.6 5.88 2.48 1.68 5.6 2.52 9.36 2.52 3.6 0 6.52-.76 8.76-2.28 2.24-1.6 3.36-3.6 3.36-6 0-2.32-1.04-4.04-3.12-5.16-2.08-1.2-5.44-2.44-10.08-3.72-4.56-1.28-8.4-2.56-11.52-3.84-3.04-1.36-5.64-3.24-7.8-5.64-2.08-2.48-3.12-5.64-3.12-9.48 0-5.36 2.08-9.6 6.24-12.72 4.24-3.2 9.84-4.8 16.8-4.8 4.64 0 8.72.76 12.24 2.28 3.6 1.44 6.36 3.48 8.28 6.12 1.92 2.64 2.88 5.6 2.88 8.88v.36c0 .8-.4 1.2-1.2 1.2h-8.4c-.8 0-1.2-.4-1.2-1.2v-.36c0-2.32-1.16-4.24-3.48-5.76-2.24-1.6-5.32-2.4-9.24-2.4-3.52 0-6.4.68-8.64 2.04-2.16 1.36-3.24 3.2-3.24 5.52 0 2.32 1.04 4.08 3.12 5.28 2.16 1.2 5.6 2.48 10.32 3.84 4.64 1.28 8.48 2.56 11.52 3.84 3.12 1.2 5.76 3.04 7.92 5.52 2.16 2.4 3.24 5.56 3.24 9.48 0 5.44-2.16 9.76-6.48 12.96-4.24 3.2-9.92 4.8-17.04 4.8Zm61.957.24c-5.92 0-11.08-1.48-15.48-4.44-4.4-3.04-7.48-7.24-9.24-12.6-1.44-4.32-2.16-9.2-2.16-14.64 0-5.68.68-10.48 2.04-14.4 1.76-5.28 4.84-9.4 9.24-12.36 4.4-3.04 9.64-4.56 15.72-4.56 5.76 0 10.76 1.52 15 4.56 4.32 2.96 7.4 7.04 9.24 12.24 1.44 4.08 2.16 8.88 2.16 14.4 0 5.6-.72 10.52-2.16 14.76-1.76 5.36-4.8 9.56-9.12 12.6-4.32 2.96-9.4 4.44-15.24 4.44Zm0-9.96c3.2 0 6-.88 8.4-2.64 2.4-1.84 4.12-4.4 5.16-7.68.88-3.04 1.32-6.8 1.32-11.28 0-4.48-.4-8.2-1.2-11.16-1.04-3.28-2.76-5.8-5.16-7.56-2.4-1.84-5.32-2.76-8.76-2.76-3.28 0-6.12.92-8.52 2.76-2.4 1.76-4.12 4.28-5.16 7.56-.88 2.8-1.32 6.52-1.32 11.16 0 4.64.44 8.4 1.32 11.28.96 3.28 2.64 5.84 5.04 7.68 2.48 1.76 5.44 2.64 8.88 2.64Zm68.362-52.68c2.56 0 4.88.52 6.96 1.56.56.24.76.72.6 1.44l-1.92 9c-.08.72-.56.96-1.44.72-1.36-.56-2.96-.84-4.8-.84l-1.68.12c-3.76.16-6.88 1.48-9.36 3.96-2.4 2.4-3.6 5.56-3.6 9.48v35.04c0 .8-.4 1.2-1.2 1.2h-9.12c-.8 0-1.2-.4-1.2-1.2V64.12c0-.8.4-1.2 1.2-1.2h9.12c.8 0 1.2.4 1.2 1.2v6.36c0 .24.04.4.12.48.16 0 .28-.08.36-.24 3.6-5.6 8.52-8.4 14.76-8.4Zm49.18 8.88c0 .8-.4 1.2-1.2 1.2h-12.96c-.32 0-.48.16-.48.48v31.8c0 3.36.76 5.8 2.28 7.32 1.52 1.44 3.88 2.16 7.08 2.16h3.48c.8 0 1.2.4 1.2 1.2v7.44c0 .8-.4 1.2-1.2 1.2-2.56.16-4.4.24-5.52.24-6.08 0-10.68-1.08-13.8-3.24-3.04-2.24-4.56-6.32-4.56-12.24V72.88c0-.32-.16-.48-.48-.48h-7.32c-.8 0-1.2-.4-1.2-1.2v-7.08c0-.8.4-1.2 1.2-1.2h7.32c.32 0 .48-.16.48-.48V48.28c0-.8.4-1.2 1.2-1.2h8.64c.8 0 1.2.4 1.2 1.2v14.16c0 .32.16.48.48.48h12.96c.8 0 1.2.4 1.2 1.2v7.08Zm21.137-17.88c-2.24 0-4.08-.72-5.52-2.16-1.44-1.44-2.16-3.28-2.16-5.52 0-2.24.72-4.08 2.16-5.52 1.44-1.44 3.28-2.16 5.52-2.16 2.24 0 4.08.72 5.52 2.16 1.44 1.44 2.16 3.28 2.16 5.52 0 2.24-.72 4.08-2.16 5.52-1.44 1.44-3.28 2.16-5.52 2.16Zm-4.8 70.56c-.8 0-1.2-.4-1.2-1.2V64.12c0-.8.4-1.2 1.2-1.2h9.12c.8 0 1.2.4 1.2 1.2v58.56c0 .8-.4 1.2-1.2 1.2h-9.12Zm64.786-59.76c0-.8.4-1.2 1.2-1.2h9c.8 0 1.2.4 1.2 1.2v58.68c0 .8-.4 1.2-1.2 1.2h-9c-.8 0-1.2-.4-1.2-1.2v-4.44c0-.16-.08-.24-.24-.24-.08-.08-.2-.04-.36.12-3.2 4.4-8.12 6.6-14.76 6.6-3.92 0-7.56-.76-10.92-2.28-3.28-1.52-5.92-3.76-7.92-6.72s-3-6.56-3-10.8V64.12c0-.8.4-1.2 1.2-1.2h9c.8 0 1.2.4 1.2 1.2v37.32c0 4.16 1.08 7.44 3.24 9.84 2.24 2.4 5.36 3.6 9.36 3.6 4 0 7.2-1.2 9.6-3.6 2.4-2.48 3.6-5.76 3.6-9.84V64.12Zm91.691-2.04c6.08 0 10.88 1.84 14.4 5.52 3.52 3.6 5.28 8.64 5.28 15.12v40.08c0 .8-.4 1.2-1.2 1.2h-9c-.8 0-1.2-.4-1.2-1.2V85.12c0-4-1.12-7.16-3.36-9.48-2.16-2.4-5.08-3.6-8.76-3.6-3.68 0-6.68 1.16-9 3.48-2.32 2.32-3.48 5.44-3.48 9.36v37.92c0 .8-.4 1.2-1.2 1.2h-9c-.8 0-1.2-.4-1.2-1.2V85.12c0-4-1.12-7.16-3.36-9.48-2.16-2.4-5.08-3.6-8.76-3.6-3.68 0-6.64 1.16-8.88 3.48-2.16 2.32-3.24 5.44-3.24 9.36v37.92c0 .8-.4 1.2-1.2 1.2h-9.12c-.8 0-1.2-.4-1.2-1.2V64.12c0-.8.4-1.2 1.2-1.2h9.12c.8 0 1.2.4 1.2 1.2v4.08c0 .16.04.28.12.36.16.08.32.04.48-.12 3.52-4.24 8.64-6.36 15.36-6.36 4.08 0 7.56.8 10.44 2.4 2.88 1.52 5.12 3.8 6.72 6.84.24.32.48.32.72 0 1.92-3.12 4.44-5.44 7.56-6.96 3.2-1.52 6.72-2.28 10.56-2.28Z"/></svg>