<svg xmlns="http://www.w3.org/2000/svg" width="27" height="24" fill="none"><path fill="#fff" d="M10.6248 2.57518C8.31599.267581 3.798 0 .600018 0 .268818 0 0 .268762 0 .599962 0 3.79794.2664 8.31594 2.57518 10.6248c.97442.9744 2.46841 1.41 3.94919 1.41 1.6092 0 3.204-.5148 4.10043-1.4112 1.7196-1.71963 2.0352-6.01442 0-8.04842Zm-.84839 7.20117c-1.28402 1.28275-4.8492 1.50235-6.35158 0C1.56122 7.91279 1.2384 4.12678 1.20358 1.20358c2.9232.03482 6.70921.35758 8.57277 2.2212 1.50245 1.50238 1.28285 5.06879.00006 6.35157ZM25.8276 2.37358c-3.198 0-7.716.2664-10.0249 2.57518-2.0351 2.034-1.7196 6.32884 0 8.04844.8964.8952 2.4901 1.41 4.0993 1.41 1.4807 0 2.9736-.4344 3.9503-1.4088 2.3076-2.3088 2.5752-6.82677 2.5752-10.0248.0001-.3312-.2687-.60002-.5999-.60002Zm-2.826 9.77522c-1.5024 1.5023-5.0688 1.2827-6.3516 0-1.2828-1.2828-1.5024-4.84925 0-6.35162 1.8636-1.86362 5.6496-2.18638 8.5728-2.2212-.0348 2.92438-.3576 6.71042-2.2212 8.57282Z"/><path fill="#fff" d="M21.4944 7.5671c-.1416-.30122-.5472-.40438-.846-.26522-4.602 2.1636-6.8628 5.93642-7.89 9.81482C11.4876 8.87024 7.81198 6.35626 6.25318 5.28948c-.1944-.1332-.3456-.2304-.42958-.3132-.234-.234-.61442-.234-.84842 0-.234.234-.234.61442 0 .84842.1188.11762.324.26522.6012.45478C7.33318 7.4807 12 10.6739 12 23.3999c0 .3312.2688.6.6.6s.6-.2688.6-.5988c0-5.142 1.3812-11.9208 7.9596-15.01197 0-.00118.0972-.0468.0972-.0468.2988-.14163.3792-.47525.2376-.77523Z"/></svg>