<svg width="336" height="64" viewBox="0 0 336 64" fill="none" xmlns="http://www.w3.org/2000/svg">
<path d="M1.44066 24.3873L1.4407 24.3872C5.64593 7.51011 22.7376 -2.76074 39.6096 1.44643L39.7306 0.961289L39.6096 1.44644C56.4856 5.65362 66.7546 22.7482 62.5474 39.6243C58.3402 56.4994 41.2486 66.7693 24.3715 62.5611C7.50148 58.354 -2.7685 41.2614 1.44066 24.3873Z" stroke="white"/>
<path d="M46.1025 27.4453C46.7395 23.1873 43.4975 20.8983 39.0645 19.3713L40.5025 13.6033L36.9915 12.7283L35.5916 18.3443C34.6686 18.1143 33.7205 17.8973 32.7785 17.6823L34.1885 12.0293L30.6795 11.1543L29.2405 16.9203C28.4765 16.7463 27.7265 16.5743 26.9985 16.3933L27.0025 16.3753L22.1606 15.1663L21.2266 18.9163C21.2266 18.9163 23.8316 19.5133 23.7766 19.5503C25.1986 19.9053 25.4555 20.8463 25.4125 21.5923L23.7745 28.1633C23.8725 28.1883 23.9996 28.2243 24.1396 28.2803C24.0226 28.2513 23.8976 28.2193 23.7686 28.1883L21.4725 37.3933C21.2985 37.8253 20.8576 38.4733 19.8636 38.2273C19.8986 38.2783 17.3116 37.5903 17.3116 37.5903L15.5685 41.6093L20.1375 42.7483C20.9875 42.9613 21.8205 43.1843 22.6405 43.3943L21.1876 49.2283L24.6945 50.1033L26.1335 44.3313C27.0915 44.5913 28.0215 44.8313 28.9315 45.0573L27.4976 50.8023L31.0085 51.6773L32.4615 45.8543C38.4485 46.9873 42.9506 46.5303 44.8456 41.1153C46.3726 36.7553 44.7695 34.2403 41.6195 32.6003C43.9135 32.0713 45.6415 30.5623 46.1025 27.4453ZM38.0805 38.6943C36.9955 43.0543 29.6545 40.6973 27.2745 40.1063L29.2025 32.3773C31.5825 32.9713 39.2145 34.1473 38.0805 38.6943ZM39.1665 27.3823C38.1765 31.3483 32.0665 29.3333 30.0845 28.8393L31.8326 21.8293C33.8146 22.3233 40.1975 23.2453 39.1665 27.3823Z" fill="white"/>
<path d="M313.715 10H334.919V14.898H318.923V28.104H333.431V32.94H318.923V48.502H335.415V53.4H313.715V10Z" fill="white"/>
<path d="M292.67 53.4H281.262V10H292.67C295.935 10 298.704 11.116 300.978 13.348C303.251 15.5387 304.388 18.2253 304.388 21.408V41.992C304.388 45.1747 303.251 47.882 300.978 50.114C298.704 52.3047 295.935 53.4 292.67 53.4ZM299.118 42.054V21.346C299.118 19.5273 298.477 17.998 297.196 16.758C295.914 15.518 294.344 14.898 292.484 14.898H286.408V48.502H292.484C294.344 48.502 295.914 47.882 297.196 46.642C298.477 45.402 299.118 43.8727 299.118 42.054Z" fill="white"/>
<path d="M271.336 10V53.4H266.004V10H271.336Z" fill="white"/>
<path d="M243.376 53.4H238.54V32.382C238.54 30.646 238.003 29.1993 236.928 28.042C235.895 26.8433 234.469 26.244 232.65 26.244C230.914 26.244 229.406 26.8433 228.124 28.042C226.843 29.2407 226.202 30.708 226.202 32.444V53.4H221.366V22.4H225.892L226.14 26.058C226.223 25.934 226.326 25.7893 226.45 25.624C226.574 25.4173 226.864 25.0867 227.318 24.632C227.773 24.136 228.269 23.702 228.806 23.33C229.344 22.958 230.046 22.6273 230.914 22.338C231.824 22.0487 232.754 21.904 233.704 21.904C236.515 21.904 238.83 22.8753 240.648 24.818C242.467 26.7193 243.376 29.1167 243.376 32.01V53.4Z" fill="white"/>
<path d="M207.449 53.4V22.4H212.285V53.4H207.449ZM207.077 17.316V11.798H212.657V17.316H207.077Z" fill="white"/>
<path d="M180.009 24.756C182.034 22.772 184.7 21.78 188.007 21.78C191.314 21.78 193.98 22.772 196.005 24.756C198.03 26.74 199.043 29.282 199.043 32.382V43.418C199.043 46.518 198.03 49.06 196.005 51.044C193.98 53.028 191.314 54.02 188.007 54.02C184.7 54.02 182.034 53.028 180.009 51.044C177.984 49.06 176.971 46.518 176.971 43.418V32.382C176.971 29.282 177.984 26.74 180.009 24.756ZM183.543 47.944C184.7 49.06 186.188 49.618 188.007 49.618C189.826 49.618 191.314 49.06 192.471 47.944C193.628 46.7867 194.207 45.2573 194.207 43.356V32.444C194.207 30.6253 193.628 29.1373 192.471 27.98C191.314 26.7813 189.826 26.182 188.007 26.182C186.188 26.182 184.7 26.7813 183.543 27.98C182.386 29.1373 181.807 30.6253 181.807 32.444V43.356C181.807 45.2573 182.386 46.7867 183.543 47.944Z" fill="white"/>
<path d="M153.047 32.444V43.356C153.047 45.2573 153.626 46.7867 154.783 47.944C155.941 49.06 157.429 49.618 159.247 49.618C161.025 49.618 162.471 48.998 163.587 47.758C164.745 46.518 165.323 45.03 165.323 43.294H170.159C170.159 46.4353 169.147 49.0187 167.121 51.044C165.137 53.028 162.513 54.02 159.247 54.02C155.941 54.02 153.275 53.028 151.249 51.044C149.224 49.06 148.211 46.518 148.211 43.418V32.382C148.211 29.282 149.224 26.74 151.249 24.756C153.275 22.772 155.941 21.78 159.247 21.78C162.389 21.78 164.951 22.7927 166.935 24.818C168.919 26.802 169.911 29.3027 169.911 32.32H165.075C165.075 30.584 164.538 29.1373 163.463 27.98C162.389 26.7813 160.983 26.182 159.247 26.182C157.429 26.182 155.941 26.7813 154.783 27.98C153.626 29.1373 153.047 30.6253 153.047 32.444Z" fill="white"/>
<path d="M125.569 26.926V22.4H129.909V14.216H134.745V22.4H141.565V26.926H134.745V45.712C134.745 48.316 135.778 49.618 137.845 49.618C138.424 49.618 138.982 49.5353 139.519 49.37C140.056 49.1633 140.449 48.9773 140.697 48.812L141.007 48.502L143.239 51.788C141.668 53.2347 139.684 53.958 137.287 53.958C135.014 53.958 133.216 53.2347 131.893 51.788C130.57 50.3413 129.909 48.2127 129.909 45.402V26.926H125.569Z" fill="white"/>
<path d="M114.752 53.4V22.4H119.588V53.4H114.752ZM114.38 17.316V11.798H119.96V17.316H114.38Z" fill="white"/>
<path d="M95.16 14.898H89.208V28.228H95.47C97.0407 28.228 98.2807 27.794 99.19 26.926C100.099 26.058 100.554 24.8593 100.554 23.33V19.734C100.554 18.37 100.058 17.2333 99.066 16.324C98.1153 15.3733 96.8133 14.898 95.16 14.898ZM89.208 32.94V48.502H94.85C96.71 48.502 98.1567 47.9853 99.19 46.952C100.265 45.9187 100.802 44.596 100.802 42.984V38.52C100.802 37.1147 100.327 35.8333 99.376 34.676C98.4667 33.5187 97.0613 32.94 95.16 32.94H89.208ZM84 10H94.85C98.1153 10 100.719 10.93 102.662 12.79C104.605 14.65 105.576 16.944 105.576 19.672V23.082C105.576 25.8513 104.398 28.3107 102.042 30.46C104.687 32.6093 106.01 35.296 106.01 38.52V42.984C106.01 46.084 104.915 48.6053 102.724 50.548C100.533 52.4493 97.764 53.4 94.416 53.4H84V10Z" fill="white"/>
</svg>
