<svg width="220" height="64" viewBox="0 0 220 64" fill="none" xmlns="http://www.w3.org/2000/svg">
<path fill-rule="evenodd" clip-rule="evenodd" d="M1.92586 24.5081L1.9258 24.5083C-2.21653 41.1144 7.89042 57.9356 24.4925 62.076C41.1017 66.2174 57.9219 56.1104 62.0623 39.5034C66.2027 22.8951 56.0966 6.07196 39.4887 1.93159L39.4886 1.93158C22.8846 -2.20876 6.06434 7.89895 1.92586 24.5081ZM24.2505 63.0463C7.11254 58.7723 -3.32047 41.4083 0.95553 24.2663C5.22753 7.12128 22.5906 -3.31271 39.7306 0.961289C56.8746 5.23529 67.3066 22.6013 63.0326 39.7453C58.7586 56.8883 41.3956 67.3213 24.2505 63.0463Z" fill="white"/>
<path d="M46.1025 27.4453C46.7395 23.1873 43.4975 20.8983 39.0645 19.3713L40.5025 13.6033L36.9915 12.7283L35.5916 18.3443C34.6686 18.1143 33.7205 17.8973 32.7785 17.6823L34.1885 12.0293L30.6795 11.1543L29.2405 16.9203C28.4765 16.7463 27.7265 16.5743 26.9985 16.3933L27.0025 16.3753L22.1606 15.1663L21.2266 18.9163C21.2266 18.9163 23.8316 19.5133 23.7766 19.5503C25.1986 19.9053 25.4555 20.8463 25.4125 21.5923L23.7745 28.1633C23.8725 28.1883 23.9996 28.2243 24.1396 28.2803C24.0226 28.2513 23.8976 28.2193 23.7686 28.1883L21.4725 37.3933C21.2985 37.8253 20.8576 38.4733 19.8636 38.2273C19.8986 38.2783 17.3116 37.5903 17.3116 37.5903L15.5685 41.6093L20.1375 42.7483C20.9875 42.9613 21.8205 43.1843 22.6405 43.3943L21.1876 49.2283L24.6945 50.1033L26.1335 44.3313C27.0915 44.5913 28.0215 44.8313 28.9315 45.0573L27.4976 50.8023L31.0085 51.6773L32.4615 45.8543C38.4485 46.9873 42.9506 46.5303 44.8456 41.1153C46.3726 36.7553 44.7695 34.2403 41.6195 32.6003C43.9135 32.0713 45.6415 30.5623 46.1025 27.4453ZM38.0805 38.6943C36.9955 43.0543 29.6545 40.6973 27.2745 40.1063L29.2025 32.3773C31.5825 32.9713 39.2145 34.1473 38.0805 38.6943ZM39.1665 27.3823C38.1765 31.3483 32.0665 29.3333 30.0845 28.8393L31.8326 21.8293C33.8146 22.3233 40.1975 23.2453 39.1665 27.3823Z" fill="white"/>
<path d="M198.122 9.60001H219.326V14.498H203.33V27.704H217.838V32.54H203.33V48.102H219.822V53H198.122V9.60001Z" fill="white"/>
<path d="M177.077 53H165.669V9.60001H177.077C180.342 9.60001 183.112 10.716 185.385 12.948C187.658 15.1387 188.795 17.8253 188.795 21.008V41.592C188.795 44.7747 187.658 47.482 185.385 49.714C183.112 51.9047 180.342 53 177.077 53ZM183.525 41.654V20.946C183.525 19.1273 182.884 17.598 181.603 16.358C180.322 15.118 178.751 14.498 176.891 14.498H170.815V48.102H176.891C178.751 48.102 180.322 47.482 181.603 46.242C182.884 45.002 183.525 43.4727 183.525 41.654Z" fill="white"/>
<path d="M155.743 9.60001V53H150.411V9.60001H155.743Z" fill="white"/>
<path d="M126.529 26.526V22H130.869V13.816H135.705V22H142.525V26.526H135.705V45.312C135.705 47.916 136.738 49.218 138.805 49.218C139.384 49.218 139.942 49.1353 140.479 48.97C141.016 48.7633 141.409 48.5773 141.657 48.412L141.967 48.102L144.199 51.388C142.628 52.8347 140.644 53.558 138.247 53.558C135.974 53.558 134.176 52.8347 132.853 51.388C131.53 49.9413 130.869 47.8127 130.869 45.002V26.526H126.529Z" fill="white"/>
<path d="M115.712 53V22H120.548V53H115.712ZM115.34 16.916V11.398H120.92V16.916H115.34Z" fill="white"/>
<path d="M96.12 14.498H90.168V27.828H96.43C98.0007 27.828 99.2407 27.394 100.15 26.526C101.059 25.658 101.514 24.4593 101.514 22.93V19.334C101.514 17.97 101.018 16.8333 100.026 15.924C99.0753 14.9733 97.7733 14.498 96.12 14.498ZM90.168 32.54V48.102H95.81C97.67 48.102 99.1167 47.5853 100.15 46.552C101.225 45.5187 101.762 44.196 101.762 42.584V38.12C101.762 36.7147 101.287 35.4333 100.336 34.276C99.4267 33.1187 98.0213 32.54 96.12 32.54H90.168ZM84.96 9.60001H95.81C99.0753 9.60001 101.679 10.53 103.622 12.39C105.565 14.25 106.536 16.544 106.536 19.272V22.682C106.536 25.4513 105.358 27.9107 103.002 30.06C105.647 32.2093 106.97 34.896 106.97 38.12V42.584C106.97 45.684 105.875 48.2053 103.684 50.148C101.493 52.0493 98.724 53 95.376 53H84.96V9.60001Z" fill="white"/>
</svg>
