<svg xmlns="http://www.w3.org/2000/svg" width="512" height="512" fill="none"><rect width="512" height="512" fill="url(#a)" rx="32"/><path fill="#FFCE1F" d="M362.404 226.707c4.777-31.933-19.536-49.099-52.781-60.551l10.784-43.256-26.33-6.562-10.499 42.116c-6.922-1.724-14.032-3.352-21.097-4.964l10.575-42.395-26.316-6.562-10.792 43.242c-5.729-1.305-11.354-2.595-16.813-3.952l.03-.135-36.312-9.067-7.004 28.123s19.536 4.477 19.123 4.755c10.664 2.662 12.591 9.719 12.269 15.314l-12.285 49.278c.735.188 1.689.458 2.739.878-.878-.218-1.815-.458-2.783-.69l-17.219 69.032c-1.305 3.24-4.612 8.1-12.066 6.255.262.382-19.139-4.777-19.139-4.777l-13.072 30.14 34.265 8.542c6.375 1.597 12.622 3.27 18.771 4.845l-10.896 43.751 26.3 6.562 10.792-43.286c7.184 1.949 14.159 3.749 20.983 5.444l-10.753 43.084 26.329 6.562 10.897-43.669c44.899 8.497 78.663 5.07 92.874-35.54 11.452-32.697-.571-51.558-24.194-63.857 17.204-3.968 30.163-15.284 33.62-38.66Zm-60.16 84.361c-8.137 32.698-63.191 15.022-81.039 10.589l14.458-57.963c17.849 4.455 75.085 13.274 66.581 47.374Zm8.144-84.834c-7.425 29.743-53.246 14.632-68.11 10.927l13.11-52.571c14.864 3.705 62.732 10.619 55 41.644Z"/><defs><linearGradient id="a" x1="0" x2="679" y1="512" y2="-143" gradientUnits="userSpaceOnUse"><stop stop-color="#323232"/><stop offset="1" stop-color="#404040"/></linearGradient></defs></svg>