<svg xmlns="http://www.w3.org/2000/svg" width="57" height="18" fill="none"><path fill="#ffffff" d="M28.95.505c-3.087 0-4.93 2.028-4.93 5.426v6.021c0 3.397 1.843 5.426 4.93 5.426.813 0 1.492-.121 2.078-.368l.07-.03.432.516h2.211l-1.235-1.477.064-.066c.874-.92 1.336-2.303 1.336-4v-6.02c0-3.397-1.852-5.425-4.955-5.425V.505Zm2.692 11.447c0 .917-.171 1.663-.509 2.218l-.078.127-.517-.663h-2.205l1.284 1.57-.18.025c-.172.025-.317.025-.485.025-1.744 0-2.667-1.142-2.667-3.302V5.931c0-2.16.923-3.302 2.667-3.302 1.745 0 2.691 1.142 2.691 3.302v6.021ZM44.35 9.803V7.82h-5.247V2.839h5.693V.811h-7.862v16.26h8.097v-2.029h-5.928v-5.24h5.246ZM51.767.81h-3.99v16.261h4.014c1.532 0 2.792-.46 3.646-1.33.855-.873 1.308-2.168 1.308-3.742V5.836c0-3.194-1.815-5.025-4.98-5.025h.002Zm2.785 11.142c0 1.979-.98 3.067-2.761 3.067h-1.845V2.863h1.845c1.806 0 2.761 1.044 2.761 3.02v6.07Z"/><path fill="#ffffff" fill-rule="evenodd" d="M12.606 5.07 11.39 6.997H6.983L6.448 5.07H4.52l2.475 8.893h1.926l5.611-8.893h-1.926ZM8.33 11.847l-.847-3.042h2.765l-1.92 3.042h.002Z" clip-rule="evenodd"/><path fill="#ffffff" fill-rule="evenodd" d="M9 0a9 9 0 0 0-9 9 9 9 0 0 0 9 9 9 9 0 0 0 9-9 9 9 0 0 0-9-9Zm0 15.939A6.947 6.947 0 0 1 2.06 9c0-3.825 3.112-6.94 6.939-6.94a6.947 6.947 0 0 1 6.939 6.939c0 3.825-3.114 6.938-6.94 6.938v.002Z" clip-rule="evenodd"/></svg>