<svg xmlns="http://www.w3.org/2000/svg" xmlns:xlink="http://www.w3.org/1999/xlink" width="2699" height="512" fill="none">
  <defs>
    <path id="b" fill="#E2CC85" fill-rule="evenodd" d="m287.79 312.18 12.77-26.2-6.31-26.48-11.85-23.7-36.63-5.76-26.91-25.66-58.11 4.4-11.41 62.13 21.97 78.23 12.51 40.5 50.73 1.92 23.55-16.31 27.58-11.53 29.1-9.12 7.23-13.7-4.2-17.12-30.02-11.6Z" clip-rule="evenodd"/>
    <path id="c" fill="#F1D789" fill-rule="evenodd" d="M225.8 354.16s7.01 3.21 18.98 2.47c3.46-4.64 27.72-6.82 27.72-6.82s3.03-.93 8.38 1.29c5.39 2.19 10.49 1.92 15.25 3.1 4.76 1.18 9.49-5.02 13.14-6.31 3.65-1.37 8.5-4.65 8.5-4.65l10.21-1 20.53-8.68 32.61-32.49 8.86 13.87 2.73 17.17-9.85 20.35-26.55 24.18-51.76 13.14-30.68-9.04-38.44-16.24-9.63-10.34Z" clip-rule="evenodd"/>
    <path id="d" fill="#F4ECB4" fill-rule="evenodd" d="m410.25 298 3.84-16.75.26-18.83-4.65-23.08-6.57-19.9-7.83-12.85-25.22-2.1 7.57 22.08 21.08 37.5-8.75 33.5 15.5 7.75 4.77-7.31Z" clip-rule="evenodd"/>
    <path id="e" fill="#F3E19D" fill-rule="evenodd" d="m381.42 352.8 4.83-6.76s1.3-3.21.56-6.02c-.74-2.84-.63-3.03-.26-4.1.36-1.07 3.47-4.76 3.28-7.94-.18-3.2.26-4.28-2.1-6.83-2.47-2.47-1.74-6.75-1.74-6.75l-3.2 2-.74-1.11s-1.18.92-1.18 2.36c-.26-2 .81-11.23-1.62-13.33-2.44-2.1-6.76 9.86-6.76 9.86l2.66-17.36 6.83-17.79 12.15-16.24.73-17.91v-1.55s5.57 8.56 7.13 15.33c1.1 4.65-1.56 10.3-1 16.98.44 6.65 1 6.13-.63 8.76-1.62 2.64-5.57 8.05-4.02 11.97 1.36 3.36 6.02 1 6.02 1s.92 2.73 2.17 3.72a8.27 8.27 0 0 1 1.81-3.65c.07.63.26 1.48.26 1.48s.81-2.55 1.63-5.76c1.1-4.28 2.28-9.93 3.35-12.96a285.3 285.3 0 0 1 1.55 7.02l-.62 8.12-3.03 11.15-2.92 7.3-2.85 8.94-2.46 6-2 4.57-1.73 10.3-8.38 8.86-4.47 2-3.25-1.66Z" clip-rule="evenodd"/>
    <path id="f" fill="#F2E8B0" fill-rule="evenodd" d="M405.3 223.1s6.02 10.22 7.76 20.52c1.73 10.3 3.28 21.2 2.19 35.22-1.11 14.15-3.22 22.82-4.92 29.02-2.91 10.3-10.48 24.63-10.48 24.63l-.26-.55a38.91 38.91 0 0 0 3.03-7.57c1-3.92 1.37-8.57 2.29-10.67.81-2.1 2.18-3.91 2.84-6.5.63-2.47.73-6.39 2.66-9.3.81-1.19 1.81-4.28 2.1-7.39.38-4.65-.18-9.85.26-14.14.82-7.12 1.37-11.96.63-15.69-.74-3.73-4.58-14.32-6.94-22.74-1.55-5.4-.63-9.93-3.47-14.62-2.84-4.65-4.58-8.75-5.2-11.6-.74-2.58 7.52 11.38 7.52 11.38Z" clip-rule="evenodd"/>
    <path id="g" fill="#F5EEC0" fill-rule="evenodd" d="M376.76 219s3.1.92 4.58 2.55c1.48 1.55 2.1 2.84 4.1 5.46 2 2.62 2.1 4.76 3.73 8.05 1.63 3.21 5.2 8.05 5.65 9.78.44 1.74 1.18 9.86 2.1 13.7.82 3.84-.92 8.57-.92 8.57l-2.1-.45s0 2.73-2.1 4.58c-2.11 1.8-2.48-6.13-2.48-6.13l-7.86-26.55-11.86-8.04-1.29-6.5 8.46-5.02Z" clip-rule="evenodd"/>
    <path id="h" fill="#E6DB9D" fill-rule="evenodd" d="M371 231.03s5.58.37 8.31 2.37c1.1.8 1.55 1.47 2.73 2.47 2.18 1.81 4.4 3.47 5.47 5.84 1.18 2.36 2.47 5.95 3.36 12.7.37 2.84.37 5.47.63 7.76.37 3.1.92 5.57.62 7.3-.37 3.54-4.02 5.39-4.38 9.41l-7.57-3.84-7.12-28.1-15.14-9.48 8.57-9.6 4.53 3.16v.01Z" clip-rule="evenodd"/>
    <path id="i" fill="#F1D789" fill-rule="evenodd" d="M404.44 426.3c-1.52-3.18-2.88-5.84-3.13-6.79-.18 1.92-.53 6.13-1.24 10.6 1.48-1.25 2.93-2.52 4.38-3.8Z" clip-rule="evenodd"/>
    <path id="j" fill="#DFC57C" fill-rule="evenodd" d="M370.1 230.04s3.2 0 3.83.44c.63.44-3.21 1.37-4.4 1.81-1.17.44-3.72 2.47-4.38 4.1-.63 1.55-23.08 10.6-23.08 10.6l-15.88-.82-5.47-7.56 10.41-9.12-7.3-21.52 9.67 1.55 23.26 13.87 11.67 4.47 1.66 2.18Z" clip-rule="evenodd"/>
    <path id="k" fill="#E5CC7C" fill-rule="evenodd" d="M335.23 237.16a2.5 2.5 0 0 1-2.2 1.18c-3.28 0-6.3.82-7.56 2.48a351.47 351.47 0 0 0-7.94 11.15l-13.95 5.02-.9-16.43 15.25-10.6 17.35 6.39v.81h-.05Z" clip-rule="evenodd"/>
    <path id="l" fill="#D2C281" fill-rule="evenodd" d="M337.97 243.25s-2.55.19-5.76-1c-3.21-1.18-8.5-3.72-10.78-2.72-3.22 1.36-2.55 5.65-6.02 9.49-2.1 2.36-5.94 2.29-8.12 4.84-2.18 2.54-9.67 1.36-9.67 1.36l-2.85 15.34 11.41 14.62 3.73 18.16h15.43l14.09-5.6 6.94-16.78-3.47-16.99-4.93-20.72Z" clip-rule="evenodd"/>
    <path id="m" fill="#E2C270" fill-rule="evenodd" d="M308.13 244c-.38.11-.78.17-1.18.18.44.37 1.37 1.18 1 3.28-.37 2.1-1.55 4.77-.56 6.39a8 8 0 0 0-1.73 3.03c-.63 1.8-.82 3.47-4.91 3.73.59.36 1.13.8 1.62 1.29 0 0-2.84 2.47-4.28 4.76-1.48-.06-5.4-1.28-5.4-1.28l-.8.56-1.74-.74s1.62-.62.44-4.57c-1.1-3.47-2.1-3.29-2.19-3.55-.08-.25-.8-3.91-.8-5.39-.56-1.91-1-7.75-1-7.75l1.18-12.88 6.64-4.03 5.4-5.21 5.1 9.6 3.35 3.34.26 8.3-.4.93Z" clip-rule="evenodd"/>
    <path id="n" fill="#CCB360" fill-rule="evenodd" d="M292.14 233.21s-1.18 3.36-1.62 5.95a5.71 5.71 0 0 1-.26-1.55s-.92 5.1-1.1 7.2c-.37-.08-.73-.19-.82.18-.08.37-.92 4.47-.73 6.76a18.42 18.42 0 0 0-6.2-6.2c-1.48-.93-3.21-1.93-5.02-2-2.84-.07-4.91 1.81-8.3 1.81-8.2 0-15.63-6.02-21.09-7.86-4.02-1.37-7.5-2.37-9.93-4.58-1.18-1-3.29-3.21-5.2-6.5-2.55-4.38-5.21-8.2-7.87-8.68 1.2.23 2.43.31 3.65.26 0 0-.81-.81-2.2-1.92-1.37-1.1-3.02-2.47-5.38-2.47-4.21 0-6.31.63-8.67.63a11.81 11.81 0 0 1-3.73-.63s-2.48 1.73-8.05 1.73c-5.58.08-9.3.56-12.22.82-2.93.26-12.7-.81-15.51-.73-1.83.07-3.63.5-5.28 1.29l9.04-26.28 32.5-28.4 19.35 13.69 29.76 29.76 28.8 10.67 6.01 6.75v10.3h.07Z" clip-rule="evenodd"/>
    <path id="o" fill="#D5B457" fill-rule="evenodd" d="M227.53 218.15s-.81-.81-2.17-1.92c-1.37-1.1-3.03-2.47-5.4-2.47-4.2 0-6.3.62-8.67.62-2.36-.07-3.73-.62-3.73-.62s-2.48 1.73-8.05 1.73c-5.57.07-9.3.55-12.22.8-2.92.27-12.7-.8-15.5-.72-1.83.07-3.63.5-5.29 1.3l4.1-11.86 4.77-9.04 13.58-14.88 16.43-9.68a224 224 0 0 1 5.65-1.55l14.77 8.94 13.4 34.67.26 7.3-8.68 4.1c-2.17-3.66-4.58-6.58-6.83-6.94 2.04.22 3.59.22 3.59.22Z" clip-rule="evenodd"/>
    <path id="p" fill="#D2B257" fill-rule="evenodd" d="M227.72 220.62c1.29.08 2.36-.18 2.66-1.1 1.1-3.1 1.99-3.55 2.92-3.55.92 0 2.17 2 2.92 2.18.74.18 1.62-2.29 1.62-2.29l.81-.37s4.77 3.1 8.12 6.76c3.36 3.65 8.86 9.86 11.34 10.96 2.47 1.1 10.96 1.48 13.87 2.1a18 18 0 0 1 6.57 3.22c.44.48-1.3 1-1.55 1.47-.26.45 2.84.26 3.1.73.19.37-.73 2.48-1.18 3.55-.8-.4-1.66-.61-2.55-.63-2.84-.07-4.9 1.81-8.3 1.81-8.2 0-15.62-6.02-21.08-7.87-4.03-1.36-7.5-2.36-9.94-4.57-1.18-1-3.28-3.21-5.2-6.5a45.76 45.76 0 0 0-4.14-5.9Z" clip-rule="evenodd"/>
    <path id="q" fill="#CAA13E" fill-rule="evenodd" d="M241.67 136.85a4.8 4.8 0 0 0-2.19 1.48c-1.73 2-2.84 5.76 1.11 9.78-1.55.55-2.19.73-3.54.55 1.36 1.63 4.46 5.1 4.65 8.13.19 2.47-1.37 3.21-1.37 3.21s2.36 2.73 2.48 7.3a29.58 29.58 0 0 0-3.65-3.47 97.36 97.36 0 0 0-9.05-6.2 5.2 5.2 0 0 1-.26 1.92s-4.76-3.92-8.76-2.18c-1.8.81-1 3.36-1 3.36s-2.47-.92-4.2.81c-1.74 1.74-4.2 6.22-5.45 7.95-.56.81-2 2.36-3.47 4.76a60.26 60.26 0 0 0-5.02 10.6c-.08-1.92-.56-4.91-6.02-3.03-5.47 1.92-11.67 5.94-16.87 13.87-5.21 7.93-6.5 16.88-9.12 20.28-2.66 3.3-5.4 8.75-5.58 11.04-.18 2.3.82 9.68-4.65 29.65-1.55-6.2-3.91-19.97-3.91-19.97l-1.3-12.15-1.47-37.58 39.25-32.61 30.68-22.26 19.97 1.92-1.25 2.84Z" clip-rule="evenodd"/>
    <path id="r" fill="#B59544" fill-rule="evenodd" d="M168.76 192.78s.55-3.65 9.78-9.85c9.23-6.13 16.43-6.13 23.07-11.34 5.1-4.1 10.42-13.51 13.88-16.61 3.36-3.07 3.91-11.93 3.91-11.93l-11.33-9.49-16.86-24.36-14.25-15.7-6.83 9.5-9.5 11.14-5.27 22.38-1.92 32.75 15.33 23.51h-.01Z" clip-rule="evenodd"/>
    <path id="s" fill="#C89D3A" fill-rule="evenodd" d="M157.35 232.04c-.28-4.97.33-9.94 1.8-14.7 2.44-7.56 7.76-21 10.23-26.04 1-5.57.26-6.02-.81-6.64-1.07-.63-5.1-2.92-7.3-10.97-2.2-8.04-9.05-8.3-9.05-8.3l-4.21-3.1-6.39 15.98-5.57 14.44-1.74 11.04-1.29 9.41 3.03 19.9L151 246.57l6.35-14.53Z" clip-rule="evenodd"/>
    <path id="t" fill="#CCA847" fill-rule="evenodd" d="M169.38 380.08s-5.75-7.68-7.75-11.48c-2-3.92 6.31-53.57 6.31-53.57l-16.68-54.68.44-17.8s-.81-16.42-2.73-23.55c-2.3 4.1-9.42 9.05-10.97 11.67-.73-5.03-3.21-15.62-2.84-26.92-1.37 2.1-4.65 23.26-4.65 23.26l-3.29 14.25-4.28 15.14-4.76 15.99-2.85 11.04-1.62 2.65-1.37 4.66-1.29 5.02-3.73 11.78-2.19 9.67-1.73 17.54a26.83 26.83 0 0 0-.82 4.1c-.07 1.92.26 3.02.26 3.35 0 .34-.63 4.22-.37 7.13.37 2.92.37 5.2 2.66 7.3 2.29 2.1 3.73 14.62 3.73 14.62l4.1-2.73s-.81-3.73 1.1-7.13a7.2 7.2 0 0 1 7.76-3.54c2.1.44 6.31 1.1 7.68 2.29 1.29 1.18 4.46 4.84 7.38 6.5 3.65 2.19 9.6 2.36 12.78 3.1 3.2.73 6.75 2.92 10.48 5.46a58.56 58.56 0 0 0 9.23 4.87l.01.01Z" clip-rule="evenodd"/>
    <path id="u" fill="#C39D3C" fill-rule="evenodd" d="M169.38 460.75s-.24.16-.7.42a216.86 216.86 0 0 1-69.13-51.23c.22-7.48.49-15.13.8-17.97.62-6.02.17-12.15.36-15.7.18-3.54 2.18-17.97 3.1-21.7 1-3.73 2.92-5.57 3.21-5.57.26.07 1.81 7 1.81 8.76 0 1.74.37 5.94.37 7.01.26-.07.37-.73.37-1 .37.93.81 2.55 1 2.74.18.18-.26-1.55 0-1.92.26-.37.73-.19.63-1.11-.05-.55-.13-1.1-.26-1.63 0 0 1.1 1.63 1.92 5.76.8 4.1.8 4.21 1.1 4.58.26.45 1.74 1.92 1.81 2.48.08 1-1.36 2-1.47 2.54-.08.93 1.29 5.21 1.73 7.3.44 2.1.26 6.2.73 8.31.37 1.92.73 3.03 2 3.84-.93.18-1.81.44-1.81.44s-1.3 5.46 2 10.12c1.17 1.62 1.47 2.36 2.72 3.84 2.48 2.73 4.4 5.84 4.58 7.86.13-.6.22-1.2.26-1.8 0 0 3.84 4.46 5.46 7 2.1 3.3 5.02 3.1 5.84 3.92.82.81 1 2.29.73 3.47.74.18 2.1.44 3.03 3.29a6.91 6.91 0 0 0 3.29 3.91c1.73 1 3.84 1.3 4.9 1.55-.92.26-1.28.26-1.73.55.56.93 3.1 2.37 5.95 4.21a12.44 12.44 0 0 1 4.9 5.95c.74 1.55 1.82 2.55 3.55 2.73-.73.44-1.8 1.48-2.36 1.8.81.2 2.19.2 4.65 2.3 2.58 2.14 3.47 2.77 4.65 2.95h.01Z" clip-rule="evenodd"/>
    <path id="v" fill="#C0993A" fill-rule="evenodd" d="M114.55 326.4s1.18 6.39 3.28 10.41c2.1 4.03 4.38 9.6 4.38 9.6-.01-1.26-.16-2.5-.44-3.73 2.66 1.55 9.12 5.28 10.95 6.94 1.74 1.55 4.66 4.28 5.4 5.58-1.74-5.1-3.55-9.68-3.85-11.78 2.66 1.92 15.07 12.15 21.53 18.9l20.12 16.28a69.73 69.73 0 0 0 7.16 3.36c3.47 1.47 7.57 2.73 10.6 3.91a16.7 16.7 0 0 0-3.92-5.94c-1.92-1.81-7.67-8.05-8.56-10.96-.81-3.02-1-4.83.07-7.38 1 .26 3.28.37 4.84.81 1.55.45 3.21 2.1 3.21 2.1s-1.18-6.75-3.73-13.14c1.92.08 5.2.63 5.2.63s-4.57-7.68-12.4-13.03a40.4 40.4 0 0 1 7.01 2.17c4.57 1.93 9.6 4.77 13.33 6.32-2.1-2.92-16.87-24-25.66-43.64-8.76-19.6-12.04-24.63-13.96-35.15-1-5.2-.73-12.9-1-19.79-.25-6.83-1.1-12.96-.55-17.06-2.29 2.85-10.85 10.86-11.15 28.77-.25 17.9 8.2 42.09 17.17 55.12-2.19.62-7.87 1.36-13.7-8.76-5.83-10.13-5.76-12.96-7.86-17.17-.26 2.1-.19 2.84-.19 2.84s-8.49-10.3-12.51-23.26c-.81 5.58-3.21 10.49.55 20.71 3.36 9.23 7.75 11.49 7.75 11.49s-2.17-.37-5.38-2.3c-.56 1.37-.45 2.93-1.37 3.48-.93.55-2.18 1.47-2.37 2.36-1-1.48-2.54-3.36-3.02-4.76.37 2.92.63 15.69-.73 22.19-2.85-.26-5.76-.45-7.76-5.58 1.37 5.02 1.37 8.05.45 12.33-1.52-1.03-2.88-2.88-2.88-2.88l-.01.01Z" clip-rule="evenodd"/>
    <path id="w" fill="#A88F33" fill-rule="evenodd" d="M210.48 122.9s2.84 1.18 7.68 1.18c4.2 0 3.02-1.63 9.6-1.63 10.1 0 45.44 5.84 51.65 5.76 4.02-.07-13.59 1.74-13.59 1.74l-45 .62-9.05-.73-3.36-6.84 2.07-.1Z" clip-rule="evenodd"/>
    <path id="x" fill="#E3C571" fill-rule="evenodd" d="M327.18 210.88s5.76 4.39 8.2 7.75c2.43 3.36 3.73 5.57 6.5 8.3-.65.03-1.3-.06-1.93-.25 0 0 0 .73.45.92a2.57 2.57 0 0 0-2.1.73c.8.44 3.02 2.66 1.28 5.28-1.28 2-4.02 2.18-4.02 2.18s.63 1.8-2 1.62c-5.64-.25-11.95-2.73-14.87-2.1-2.92.73-4.58 1-6.64 4.58-2.2 3.54-4.1 4.1-4.1 4.1s-1.3-3.29-1-8.2a24.38 24.38 0 0 1-1.74-8.3l1.92-14.15 8.38-10.6 10.86 6.03.81 2.1Z" clip-rule="evenodd"/>
    <path id="y" fill="#D8B65B" fill-rule="evenodd" d="M316.88 208.77s-.81 1.92-4.2 2.1c.36.82.36.93.25 1.55l-.18 1.56a3.43 3.43 0 0 1-1-.73c-.19.8.18 2.1 0 3.02-.12.56-.3 1.11-.55 1.63a3.2 3.2 0 0 0-.19-.37c-.07-.19-.73 2-2.55 3.65 0-.25-.06-.5-.18-.73-.03.46-.18.9-.44 1.3.13-.07.26-.16.36-.27 0 0-.18 5.84-1.18 8.86-.16-.2-.31-.4-.44-.62 0-.19.07 1.62.26 2.92.26 1.29.07 3.1.07 3.1a9.7 9.7 0 0 0-2.17-1.3c-1.11-.44-2.92-1.8-4.03-4.83a32.34 32.34 0 0 1-1.48-5.28c-.35.68-.6 1.42-.73 2.19-.07.92-1.8.44-1.8.44l-.38-4.02-2.19-9.12-2-5.65-9.59-14.95-17.34-13.36-15.14 3.47-12.77-17.35 22-13.22 20.82 2.18 18.9 26.17 15.14 23.74 2.73 3.92Z" clip-rule="evenodd"/>
    <path id="z" fill="#D3AE4D" fill-rule="evenodd" d="M207.82 170.9s1.29.25 5.02 2.18c3.73 1.93 6.31 2.55 7.75 5.4a13.95 13.95 0 0 1 1.55 5.09s-2.54-1.11-4.02-1.48c-1.55-.37-3.29-.26-3.1.37.18.43.42.83.73 1.18 0 0-2.92-.07-2.84 1.37.07 1.44.55 3.03 1.1 3.73.56.73 2.84 1.8 3.1 2.66.63 1.73-.26 1.8.07 3.2.26 1.37 1.48 4.03 5.47 8.68 4.1 4.66 5.84 7.94 5.84 7.94s2-3.73 3.03-6.94c.73.37 4.65 2.55 4.65 2.55l9.08-31.64-.18-2.1s-.81-1-1-2.85c1.37-.44 1.55-.81 3.36-2.55 1.81-1.73 3.29-3.84 6.31-5.28.45-.81 1-1.91 3.22-2.36 2.21-.45 3.54-.81 3.54-.81s-1.18-.45-1.74-1.37c1.37.19 2.48.63 5.47.56 3.03-.08 3.36-.19 5.02.07 1.66.26 3.65 1 4.4-1.55.8-.63 2.54-.07 4.02 2.1 1.48 2.18 2 3.91 4.83 4.76a9.9 9.9 0 0 0 1.3 3.55c.8 1.37 2.1 2.73 3.84 4.76 2.73 3.21 2.29 8.5 6.64 12.52 4.4 4.02-.73-11.15-.73-11.15l-7.01-16.8-19.97-19.53-31.02-2.1-3.03 16.06-15.13 5.21-9.57 14.58v-.02Z" clip-rule="evenodd"/>
    <path id="A" fill="#CAA13E" fill-rule="evenodd" d="m202.9 174.44 13.04-18.8 9.12-7.01s6.5-11.96 6.94-12.33c.37-.26 6.5-.92 10.41-1.18l-.73 1.8a4.8 4.8 0 0 0-2.19 1.48c-1.73 2-2.84 5.76 1.1 9.79-1.54.55-2.18.73-3.53.55 1.36 1.63 4.46 5.1 4.64 8.12.2 2.48-1.36 3.22-1.36 3.22s2.36 2.73 2.47 7.3a29.45 29.45 0 0 0-3.65-3.47 94.56 94.56 0 0 0-9.04-6.2 5.2 5.2 0 0 1-.26 1.91s-4.76-3.91-8.76-2.18c-1.81.82-1 3.36-1 3.36s-2.47-.92-4.21.82c-1.73 1.73-4.2 6.2-5.46 7.94-.55.8-2 2.36-3.47 4.76a60.21 60.21 0 0 0-5.02 10.6c-.08-1.48-.37-3.55-2.92-3.55l3.87-6.94h.02Z" clip-rule="evenodd"/>
    <path id="B" fill="#EBCC73" fill-rule="evenodd" d="M374.36 224.83s1 .63 1.74 2.2c.73-1.19 2.47-8.2 2.55-14.52.07-6.31.45-7.88-1.01-10.05-1.46-2.18-7.19-4.47-6.38-8.39.82-3.73 4.21-5.28 8.38-4.2 2.93.72 5.1 6.93 8.13 10.03 2.29 2.37 5.02 2 5.75 3.29 1 1.74.08 3.47.38 4.58.07.37 1 2.36 2.66 4.76 3.35 4.84 9.04 11.67 9.78 17.8-.26-3.47-.08-3.55-1-7.39l.56-.92-3.65-11.96-2.37-9.86-5.28-16.5-9.3-16.88-9.05-10.11-9.41.63-1.1 14.14-5.4 26.54-11.33 13.96 18.16 12.22 7.2.63Z" clip-rule="evenodd"/>
    <path id="C" fill="#E5C66B" fill-rule="evenodd" d="M368.71 229.85s1.56.37 2.11.07c.56-.29 1.1-.63.92-1-.18-.36-1.18-.99-1.18-1.28a1.04 1.04 0 0 1 .93-1.11c.84-.11 1.1.44 1.1.44s.81-.63 1.48-.73c-.4-.05-.79-.07-1.18-.08a11.5 11.5 0 0 1 3.2-.92c-.92-.55-2.72-2.18-3.9-2.18-1.19 0-1.93-.18-1.74-.8.19-.64 1.1-1.56 2.1-1.93-.36-.44-.63-1.1.26-2.92.93-1.8.56-3.03.26-3.47-.26-.55-1.18-1.55-1.62-2.18-.45-.62-.82-1.47-1.55-1.91a19.4 19.4 0 0 0-2.74-1.19c-1.29-.44-2.36-1-3.1-.44-.81.55-.44 1.3-.44 1.3s-2.55-.93-4.84.25c-2.29 1.1-7.86 1.81-7.86 1.81l-2 4.02 13.21 11.34 5.47 2.73 1.1.19.01-.01Z" clip-rule="evenodd"/>
    <path id="D" fill="#E6BD62" fill-rule="evenodd" d="M350.37 211.32s4.1 2.73 5.02 3.73c-.55.07-1.48.44-1.1 1 .44.55 3.1 2.47 4.57 4.28 1.55 1.8 3.03 4.1 3.54 5.2.56 1 4.77 3.92 6.2 4.29-3.02 0-9.11-3.73-11.4-3.73.07 1.1-.63 2.36-1.92 2.47-1.3.11-5.02.81-10.04-2.29-5.02-3.03-3.36-5.28-5.47-6.75-4.02-2.66-5.64-5.03-7.86-6.5a14.2 14.2 0 0 0-3.36-1.81s-.07-1.11-.73-1a1 1 0 0 0-.81.63s-3.84-2.73-8.77-3.47a.5.5 0 0 0 .26-.26s-.37-.18-.44-.37c0 0-.26-.37-.44-.18-.19.18-.45 1.55-.82 2.1-.8-.37-2.36-3.84-2.36-3.84l-3.73-10.67v-9.75l2.92.56 21.9 9.3 13.3 13.78 1.55 3.28h-.01Z" clip-rule="evenodd"/>
    <path id="E" fill="#B6933F" fill-rule="evenodd" d="M287.3 163.5a12.36 12.36 0 0 1-3.36-1.36c.44 1.18.44 2.48 2.36 5.28 1.92 2.8 2 3.21 3.54 6.13 1.56 3.03 1.74 7.38 3.22 9.3a6.76 6.76 0 0 0-2.1-.62s1.47 1.29 2.1 2.65c.63 1.37 1.73 4.21 4.46 5.95 2.73 1.74 6.2 2.84 9.93 6.94 3.74 4.02 7.57 9.12 9.5 10.95-1-1.73-2.37-5.2-2.74-7.5-.37-2.28.08-5.01-.55-8.04-.63-3.03-.63-5.2-3.65-10.49-3.02-5.28-8.2-23.63-8.2-23.63l-11.15-3.54-3.36 7.98Z" clip-rule="evenodd"/>
    <path id="F" fill="#C49937" fill-rule="evenodd" d="M295.36 156.75s3.35 4.84 4.28 9.12c.92 4.28.07 3.91.63 6.02a7.86 7.86 0 0 1 0 3.91 13.9 13.9 0 0 0-4.65-4.58c-3.18-1.91-5.76-3.28-7.3-4.9-1.55-1.74-2.84-4.58-6.2-6.76 1.36-.19 3.28-.81 3.65-.73-1.37-1.55-5.47-3.92-9.6-6.76-4.1-2.92-3.84-4.1-10.5-7.01 2.19.37 3.22-.19 5.03 0-.72-1.55-3.28-2.29-5.84-4.84-2.55-2.54 1.63-6.31 1.63-6.31l19.47 11.78 9.41 11.07h-.01Z" clip-rule="evenodd"/>
    <path id="G" fill="#DFC068" fill-rule="evenodd" d="m336.78 85.94-.92-8.12-.7-2.59-.74-1-4.76 2.48-6.58 8.93-.63 17.25 6.4 27.2 18.23 19.9 1.1-2.03-.43-3.54-5.58-8.93-5.83-15.7V98.34l.44-12.4Z" clip-rule="evenodd"/>
    <path id="H" fill="#A88F33" fill-rule="evenodd" d="M333.68 73.24s2.92.07 3.54 12.22c.63 12.15.93 18.53 1.37 24.55.44 6.02 1.48 9.67 2 13.22.51 3.55.8 8.38 2.47 11.33.73 1.37 2.28 5.65 5.94 8.87 4.1 3.54 10.22 6.01 11.15 6.2 1.63.37 9.86 1.18 13.22 3.03 1.18.62 3.21 1.36 5.46 3.47 4.47 4.02 10.41 11.22 14.7 19.9 6.57 12.96 13.14 49.54 13.14 49.54l-1.48-2.47s-.18-3.29-3.47-9.05c-3.21-5.76-2.29-12.22-6.75-23.26-1.74-4.2-3.92-9.67-6.58-14.32-4.2-7.57-9.3-14.07-14.43-17.61a45.64 45.64 0 0 0-17.61-7.02l-9.94-6.57s-1.73-3.36-4.02-7.2c-3.21-5.39-7.3-11.4-8.2-20.15-1.36-12.96 1.93-21.45 1.74-29.13-.19-7.68-.26-13.33-1.81-14.7-1.55-1.37-.44-.85-.44-.85Z" clip-rule="evenodd"/>
    <path id="I" fill="#C99E3D" fill-rule="evenodd" d="M333.68 131.2s-4.38-10.78-6.39-20.34c-.37-1.92-1.1-3.84-1.29-5.39-.92-9.05-1.18-12.77 0-17.72.92-3.65 4.47-6.94 6.31-9.5 1.81-2.65 2.66-3.65 2.3-4.2a4.09 4.09 0 0 0-3.22-1.37 11 11 0 0 0-7.86 3.65c-2.85 3.29-5.1 14.44-5.1 14.44l-2.37 14.71-6.01 18.53 23.62 7.2Z" clip-rule="evenodd"/>
    <path id="J" fill="#B58634" fill-rule="evenodd" d="M292.51 123.39s.82.36 2.3 0a3.3 3.3 0 0 0 1.47 3.1c1.55-.63 16.06.63 16.06.63s6.76-1.19 8.86-10.12c1.48-5.95-1.1-14.14-.25-19.53 1.29-7.94 3.1-9.5 3.28-11.96.19-2.47.37-3.1.37-4.65.81-.19 1.3-.45 2.1-.45.19-.73-.18-1.37.63-2.66-.44.19-3.47.56-7.01 3.92-2.92 2.73-2.92 3.72-3.36 4.28-.56.55-5.02 4.38-6.94 8.2-1.93 3.81-5.65 15.98-6.5 17.97-.26.82-.82 1.63-2.2 3.47-2.13 2.66-5.27 7.06-8.82 7.8h.01Z" clip-rule="evenodd"/>
    <path id="K" fill="#A88F33" fill-rule="evenodd" d="M316.44 87.1a102.35 102.35 0 0 0-6.02 11.23c-2.18 4.91-3.47 8.94-6.2 12.22 1.47-4.28 4.1-12.7 5.64-15.69 1.74-3.16 5.28-6.57 6.58-7.75Z" clip-rule="evenodd"/>
    <path id="L" fill="#DCBA5A" fill-rule="evenodd" d="M356.31 176.55c.72.5 1.52.9 2.36 1.18.26-.92.63-4.1-1.55-7.2-2.55-3.73-8.12-8.57-9.67-12.41-1-2.48-.55-8.68-9.42-16.62-8.86-7.94-12.32-10.67-12.32-10.67l-14.33-7.2-17.61 6.94 8.75 34.3 6.79 16.06 27.01-5.1 20 .72h-.01Z" clip-rule="evenodd"/>
    <path id="M" fill="#E9CE77" fill-rule="evenodd" d="m346 167.24-3.36-4.21v-3s-3.73-.99-7.75-5.09c-4.03-4.1-9.6-11.96-14.51-11.48-4.92.55-5.4 10.67-5.58 13.51-.19 2.85-.81 9.3-1.8 12.78-1.12 3.47 11.95 16.61 11.95 16.61l8.88 6.76L346 167.24Z" clip-rule="evenodd"/>
    <path id="N" fill="#CDAE50" fill-rule="evenodd" d="M335.6 202.27s-2.73-4.28-.73-5.2c-1.18-2.66-3.36-5.47-3.36-5.47s-1.55-3.84-6.57-8.56c-5.02-4.73-8.13-7.87-8.94-11.04-.5-2.07-.77-4.19-.81-6.31-.54.44-1.12.84-1.74 1.18-.8.37-4.65 3.54-4.1 9.93.56 6.39 2.93 9.04 2.93 9.04s2.28 2.3 3.9 3.48c1.75 1.18 2.37 2.54 5.29 2.65a3.5 3.5 0 0 0-1-.55s3.03-.37 4.65 1.1c1.63 1.48 5.09 6.02 6.82 7.4 1.22.77 2.44 1.56 3.65 2.36Z" clip-rule="evenodd"/>
    <path id="O" fill="#D2A83E" fill-rule="evenodd" d="M212.84 130.46a44.48 44.48 0 0 1 13.59-2.66c7.75-.25 19.08.19 30.2.26 11.96.08 22.81-4.1 37.88-4.83 2.47-1.48 8.76-7.94 28.39 5.76-1.18-.08-14.25-3.03-18.8 2.66-4.57 5.64-3.28 15.24-2.65 17.53 1.18 5.1 5.02 12.52 6.57 17.72 1.55 5.21 1.18 7.94 2.29 11.6 1.1 3.65 3.54 5.46 2.1 9.67-1.92-1.18-2.92-1.18-6.13-8.38-3.2-7.2-2.54-12.33-7.86-18.43-5.2-6.12-13.87-14.5-17.17-16.61-3.3-2.1-29.46-15.7-56.86-2.73-6.6-.7-11.55-11.56-11.55-11.56Z" clip-rule="evenodd"/>
    <path id="P" fill="#C29637" fill-rule="evenodd" d="M311.86 125.44c.03-.28.09-.55.18-.81.26-.54.6-1.04 1-1.48 0 0 6.5-1.18 9.78-.81 5.76.62 10.97 7.75 13.4 11.4 2.44 3.66 5.47 9.3 8.76 12.22-.04-.28.03-.57.18-.8 0 0-.18.25.18.62.37.37.37.55.19.73l-.56.55c-.18 0-5.28-2.28-12.22-8.76-7.38-6.76-13.03-10.22-15.99-11.4a22.51 22.51 0 0 0-4.9-1.46Z" clip-rule="evenodd"/>
    <path id="Q" fill="#AC8132" fill-rule="evenodd" d="M185.81 97.68s1.19 1.47 2.66 3.1c3.29 3.47 7.57 7.38 11.23 11.4 3.47 3.85 7.38 6.84 11.78 11.86 4.39 5.02 9.49 10.6 10.78 12.22 1.18 1.63 2.1 4.28 2.1 5.65.63-.44 1.36-.92 1.36-.92a9.2 9.2 0 0 1-1.1 1.62c-.93 1.3-2.36 2.92-3.1 3.91a11.97 11.97 0 0 0-1.92 4.22c-.44.07-3.29.62-6.83-5.21-3.55-5.84-8.2-12.22-8.2-12.22l-7.38-10.97-4.65-9.3-5.85-10.41-.88-4.95Z" clip-rule="evenodd"/>
    <path id="R" fill="#A88F33" fill-rule="evenodd" d="M178.24 90.22s4.47 3.65 6.2 5.84a322.8 322.8 0 0 1 5.85 7.94l-1.48-.18-7.5-6.65-2.91-5.2-.15-1.74Z" clip-rule="evenodd"/>
    <path id="S" fill="#A67A2E" fill-rule="evenodd" d="M179.61 383.63s.07-3.03-1.62-4.84c-1.74-1.81-6.13-4.47-10.42-14.44-4.28-9.97-4.76-12.22-4.76-12.22s7.68 6.58 12.42 8.12c-1.11-2.28-1.74-3.91-2.3-5.1.63-.54 3.3-1.17 3.55-1.47-1.47-1.48-2.29-5.1-5.28-7.5-3.84-2.91-10.86-7.93-16.3-12.4-5.46-4.48-16.18-14.88-17.54-17.91-.82 1.18-1 1.92-1 1.92s5.39 7.01 8.2 11.48c2.47 3.84 2.28 6.02 2.28 6.02l-5.09-2.2s-1.47 5.47 5.2 13.78c-2.91-1.1-4.1-.44-5.75-1.37 2.73 1.74 6.5 4.1 10.04 10.6 3.47 6.5 8.2 14.07 16.17 18.79a133.76 133.76 0 0 1 12.22 8.71l-.02.03Z" clip-rule="evenodd"/>
    <path id="T" fill="#8C6228" fill-rule="evenodd" d="M199.62 134.3s3.03 6.32 3.47 11.23c.08 1.18.37 2.1.37 3.47.08 4.4-.25 9.3.73 11.59.37-.92.56-1.55.93-1.92.55 1.55 1.55 6.39 2.36 8.2a38.44 38.44 0 0 0 1.1-10.12c-.07-4.83-.18-5.76-.18-6.75.19 1.47 1.18 3.47 1.55 4.65.56-1 1.18-2.3 1.92-3.36.45.73 1 1.8 1.48 2.36.07-.44.26-1.62.37-3.28.07-1.92.18-4.4.07-4.91-.18-1-1.73-4.91-5.02-8.5-3.91-4.28-7.94-12.51-9.12-15.06a3283.7 3283.7 0 0 0-6.2-13.14h-3.84l5.57 12.7s3.36 6.94 5.1 9.49c1.73 2.55 5.39 9.86 7.02 12.7-1.18-1.55-2.18-2.36-3.37-3.84-1.14-1.03-4.31-5.5-4.31-5.5Z" clip-rule="evenodd"/>
    <path id="U" fill="#CBA94C" fill-rule="evenodd" d="M178.17 89.74a15.89 15.89 0 0 0 2.92 5.28c2.29 2.74 7.2 6.39 9.6 9.3 2.2 2.85 6.57 10.6 4.58 19.8-.73-2-2.1-5.95-5.76-10.42-3.66-4.47-7.57-9.6-9.5-13.58a22.85 22.85 0 0 1-2.17-7.2l-.73-.93.44-2.1.63-.15Z" clip-rule="evenodd"/>
    <path id="V" fill="#A88F33" fill-rule="evenodd" d="M103.4 334.63s1.49-4.02 1.93-7.68c.44-3.65-.73-4.38.63-8.56.81-2.55 2.28-2.2 2.65-2.55.37-.36.63-4.2.56-6.31-.07-2.1.07-4.84.44-6.02.56-.44.92-.81 1.74-3.55.92-2.73 1.36-4.1 1.8-4.9.45-.81 1.74-1.56 1.74-2.37 0-1.62-1.47-2.47-1.47-2.92.07-.92 1.18-.18 1.47-.44.37-.44-.92-3.1-.44-3.47.18-.18 1.47 1.37 1.8.92.38-.44.82-4.83 1.49-7.75.62-2.84 1.29-4.91 1.36-5.76.07-.81 5.1-15.14 6.32-18.6.97-2.94 1.8-5.92 2.47-8.94.37-1.74.62-5.28.81-4.91.19.37.07 2.18.37 2.1.26-.07 1.18-6.38 1.47-7.38.26-1 1.82-4.38 2.2-6.83.36-2.48 1.18-8.94 1.73-13.33.56-4.4.81-6.2.81-7.3-.09-2.7.06-5.39.45-8.05a75.1 75.1 0 0 1 3.47-13.59c2.47-6.2 9.04-22.07 10.22-26.03 0-1-1.3-.44-1.3-.44s-3.2 8.05-5.57 14.25c-2.29 6.2-4.47 11.67-5.02 12.22-.44.56-3.91 6.65-5.46 16.62-1.55 9.97-2.1 19.16-3.03 25.29-.44 2.92-.81 6.02-1.74 9.12-1 3.36-2.54 6.83-4.58 12.14-1.73 4.47-3.02 8.2-3.72 11.41-.82 4.1-.82 7.2-1.3 9.23-.44 1.74-1.1 5.2-2.66 10.23a276.31 276.31 0 0 1-5.38 15.5 85.8 85.8 0 0 0-4.84 18.35c-.4 3.7-1.77 16.47-1.4 20.3h-.01Z" clip-rule="evenodd"/>
    <path id="W" fill="#BE9C44" fill-rule="evenodd" d="m177.99 89.3.18.44s-.55.19-.44.93c-.01 1 .05 2.02.18 3.02.19 1.3.56 2.3.63 3.1 0 1.74-.26 3.73 2.19 8.68.73 1.36 1.18 2.55 1.55 3.36.92 2 1.1 2.29 1.92 3.21-1.3-.73-5.95-3.65-8.3-3.21a17.3 17.3 0 0 1 5.64 5.1c-.37.07-1.92.36-4.38 0-4.1-.63-8.67-2.11-12.7-1.82-4.4.26-2.66-5.28-2.66-5.28l5.07-11.14 9.6-6.76 1.52.37Z" clip-rule="evenodd"/>
    <path id="X" fill="#A17C34" fill-rule="evenodd" d="M152.96 172.81s4.28-4.28 6.01-18.98c1.74-14.77 1.37-36.5 1.37-36.5l3.47-8.5s.73-5.64 2.55-7.75c1.82-2.1 5.39-5.65 7.01-7.38 1.63-1.74 3.47-4.1 4.58-4.47-.55-.92-3.03-6.13-12.51-6.2-9.5-.08-12.42 5.2-13.4 7.12-1 1.92-5.47 10.22-7.13 26.04-1.55 15.8-1.63 16.99-1.37 22.45.19 3.03 1.18 10.04 2.92 17.54 1.59 6.35 3.32 13.44 6.5 16.65v-.02Z" clip-rule="evenodd"/>
    <path id="Y" fill="#8C6228" fill-rule="evenodd" d="M166.39 185.4a7.25 7.25 0 0 1-4.1-.92c-1.37-.08-6.31.55-10.12-4.28-.25 1.1-.92 4.1.82 6.75-.93-.92-2.3-1.29-2.48-1.55-.07 1.37-1.36 5.57 4.1 15.8-1.48-1.62-3.21-1.55-4.76-1.73-.08 1.92-1.1 8.38 1.62 11.85 1.81 2.36 4.77 1.62 4.77 1.62a9.34 9.34 0 0 1 0-1.55c.07-1 .44-2 .18-2.65a13.25 13.25 0 0 0 3.84-2.67c3.21-3.02 7.38-8.19 7.68-12.03a4.74 4.74 0 0 0-3.47-5.2c.32-.3.6-.63.81-1 .19-.63.37-1.63 1.1-2.44Z" clip-rule="evenodd"/>
    <path id="Z" fill="#92723A" fill-rule="evenodd" d="M194.86 138.96s.19-.26 1.18.92c-.18-1.18-.37-2.3-.44-3.36-.47-1-1.08-1.91-1.81-2.73.55 1.1.92 2.1.92 2.1s-1.36-2.55-3.36-4.1c-1.36-1.1-3.1-1.62-3.84-2.66-.8-1.1-.62-1.29-.8-1.47 0 0-1.82-1.18-4.59-4.66-.37-.44-.92-.92-1.3-1.36a58.91 58.91 0 0 1-3.83-1.81c-1.81-1-3.84-2.36-5.1-2.92-2.47-1.11-5.1-1-6.3-2.74-.93-.25-1.93-3.02-1.74-5.39-1.37.56-8.38 4.91-10.79 14.44-1.73 6.76 1.37 17.17 2.66 22.2 1.3 5.01 1.48 8.74 3.29 11.03 2.29 3.03 9.67 7.3 11.48 9.42 1.55 1.73 6.2 6.12 6.02 9.3-.18 2.36-3.1 3.65-3.73 4.1-.63.44-.63 1-1.8.72-1.2-.26-1.63-.8-2.11-.8-.56.06-.56.18-.81.18-.2 0-.38-.03-.56-.08 0 0 .19 3.36 8.05 4.38.55.08 1.1.26 1.81.37-.92-.44-1.48-.44-2.47-1.8 1.1-.2 4.28-.38 5.1-.63a9.83 9.83 0 0 0-1.82-2.18c-.62-.56.08-.73.63-.45a30.9 30.9 0 0 1 2.73 2.1c.93.82 1.74 1.93 3.22 2.93a7.2 7.2 0 0 0-1.37-6.32c.44.08 1.3 1.37 2.1 1.11.15-1.34.06-2.7-.26-4.02-.44-1.67-2.84-4.58-2.84-4.58l-11.58-20.7-2.47-15.7 26.54 5.16Z" clip-rule="evenodd"/>
    <path id="aa" fill="#B6903C" fill-rule="evenodd" d="M291.4 199.54s.82 3.36 2.67 5.02c1.8 1.63 5.02 3.03 5.38 5.76.45 2.74-3.2 4.1-3.2 4.1s1.99 3.29 1.99 5.76c0 2.55.07 3.03-.19 5.46.3.2.54.44.73.74 0 0-.18 2.36-2 3.83-1.8 1.48-3.35 2.37-4.27 2-.14.3-.27.6-.37.92 0 0-1.37-3.47-2.3-6.5-.92-3.1-1.73-2.66-2.1-6.83-.36-4.17-4.38-11.33-4.38-11.33l-2.74-6.12 4.47-3.47 6.31.66Z" clip-rule="evenodd"/>
    <path id="ab" fill="#685026" fill-rule="evenodd" d="M283.1 205.56a26.3 26.3 0 0 1 2.54 3.03c1.18 1.62 2.1 3.1 3.84 3.73 1.73.63 2.84.62 2.73 2.36-.1 1.74-1.73 2.47-2.65 3.36a4.32 4.32 0 0 0-1.37 4.2c-.56-.25-1.55-.55-2.48-2.54-.92-2-7.37-14.14-7.37-14.14h4.76Z" clip-rule="evenodd"/>
    <path id="ac" fill="#D4B968" fill-rule="evenodd" d="M257.65 177.54s-.55-1.48 0-2.55c.56-1.1 3.92-1.48 5.58-2.73 1.73-1.3 3.84-2.2 5.57-1.63-.25-.62-1.29-2-.44-2.28.81-.26 3.84 1.1 4.65 1.73.81.63 2.66 1.36 3.03 1.81.36.45 1 1.3 1.37.93.37-.27.55-.93 1.18-.56.63.37 3.65 2.84 4.2 4.28a21.93 21.93 0 0 0 5.58 8.3c3.77 3.66 5.4 6.03 4.28 7.4-1.1 1.36-1.62.36-1.8 1.54a9.93 9.93 0 0 0 .18 3.47c.44 1.93 1.18 3.73.19 4.1-2.55.81-5.03-.73-5.58-.26-1.1 1 .63 4.58-2 5.28-2.65.73-5.28-.63-5.28-.63l-9.67-5.2-9.3-4.91-4.76-9.42 2.55-7.86.49-.81h-.02Z" clip-rule="evenodd"/>
    <path id="ad" fill="#CCA849" fill-rule="evenodd" d="M266.78 200.02s1.63-2.47-.37-4.65-4.84-3.1-5.94-4.47c.2-.26.49-.45.8-.55a7.35 7.35 0 0 0-3.2-3.03c.55-.55 1.29-1 2.1-1 1.81 0 2.92 1.11 4.58 1.11 1.62 0 1.8-.81 1.8-.81s-2.73-.26-2.47-1.48c.26-1.29.74-1.29.74-1.29s-5.29-2.19-6.2-3.36c-.93-1.17-.82-2.55-1-3.1-.63 0-4.29-1.92-5.76-1.1-1.48.8-.45 3.02-.45 3.02s-4.47-3.36-6.74-6.66c-2 .19-2.92-1.36-4.38-1.36-1.81 0-4.66 2.47-5.21 7.75-.37 3.03-.92 4.76-.37 10.12.26 3.03.19 9.49-.73 12.7-.63 2.54-2.1 2.29-2.1 2.29.22.77.67 1.47 1.29 2 1 .91 1.1 3.35 1 4.28-.15.67-.34 1.33-.56 1.99 0 0 1.18 1.36 1.48 2.29.26.92 1.47 1.55 2.36 1.55.9 0 .45-.08 1.63 0 1.18.07 1.55.25 2.28 0 .75-.26 1.3-.56 1-2.92-.26-2.36 9.12-7.86 9.12-7.86l15.33-5.47-.03.01Z" clip-rule="evenodd"/>
    <path id="ae" fill="#585136" fill-rule="evenodd" d="M284.39 223.35s-3.36 4.47-17.17 4.47c-6.57 0-8.86-.63-10.22-1-1.48-.36-7.01-2.54-12.59-9.11-5.02-5.95-3.91-8.38-3.91-8.38l2.92-.45 9.49 1.3L281 222.14l3.4 1.21h-.01Z" clip-rule="evenodd"/>
    <path id="af" fill="#252211" fill-rule="evenodd" d="M274.09 224.46s11.96 2.66 11.96-4.9c0-7.4-7.38-15.15-9.23-16.5-1.92-1.38-6.5-2.93-6.5-2.93h-11.04l-2.1 5.58.92 12.03 15.99 6.72Z" clip-rule="evenodd"/>
    <path id="ag" fill="#C3B378" fill-rule="evenodd" d="M263.05 202.38s2.29-2.1 7.5.74c5.2 2.83 9.41 8.76 9.67 14.14.26 4.76-3.92 8.3-10.41 8.5-4.84.17-7.76-.38-9.23-.74.37-.44 2.28-2.84 2.28-2.84l.19-19.79Z" clip-rule="evenodd"/>
    <path id="ah" fill="#E6D89C" fill-rule="evenodd" d="M265.3 203.56s.56-.44 2.2.45c1.36.73 3.35 2.66 4.9 4.02 1 .81 1.63 1.18 2.2 1.81 2.28 2.73 4.2 7.2 3.1 9.42-1.12 2.21-4.77 4.76-14.07 3.02l1.7-18.71h-.03Z" clip-rule="evenodd"/>
    <path id="ai" fill="#6F674D" fill-rule="evenodd" d="M256.74 212.98c.26-.55.44-1.3-.63-1.48-1.07-.18-1.55-.07-1.92.74-.37.8-.73 1.47-.18 1.8.55.3 2 0 2.73-1.07Zm1.73-5.2s.37.25.19-.27c-.08-.62-.56-1.73-1.74-1.47s-.92 1.55-.73 1.92c.2.37 1.18 1 1.92.73a.6.6 0 0 0 .42-.37.61.61 0 0 0-.05-.55Z" clip-rule="evenodd"/>
    <path id="aj" fill="#AC924C" fill-rule="evenodd" d="M358.41 210.13s-2.92 2.2-6.31 2.1c-3.36-.06-7.68-3.53-9.67-5.75-1.19-1.3-2.2-2.66-3.29-3.73-.93-.92-1.55-1.36-2-2-.62-.72-1.29-2.1-1.62-2.54.81.63 2 1.74 3.21 2.47 1.18.73 3.73 2.1 4.77 2.48 1 .37 11.33 5.84 11.33 5.84l3.58 1.13Z" clip-rule="evenodd"/>
    <path id="ak" fill="#9F8E57" fill-rule="evenodd" d="M353.95 182.85s-1.63-1.1-4.77-1.8c-3.02-.74-9.12-1.3-9.12-1.3l-5.02 2.2-2 7.56 3.66 7.87 4.65 2.92 5.28-8.5 7.3-8.93.02-.02Z" clip-rule="evenodd"/>
    <path id="al" fill="#D7BC6B" fill-rule="evenodd" d="M352.21 181.93s-8.12 1.1-10.6-1.18c-.06.26-.36.26-.36.44.02.14.08.27.18.37a5.83 5.83 0 0 0-.81-.07c-.32.1-.66.16-1 .18-.27 0-.54-.03-.81-.07a1.37 1.37 0 0 0 .55.93c-.37 0-.73.07-.73.36 0 .3-.07 1.18.37 1.37.37.1.76.08 1.11-.07-.03.7-.22 1.38-.55 2-.73 1.35-2.3 2.91-4.38 2.46 0 0-1.1 2.66 3.54 8.57.63.8 1.3 1.92 2.1 2.84.32.7.57 1.43.74 2.18 0 0-7.87-3.03-10.12-9.93a52.17 52.17 0 0 1-2.3-20.16c.08-1.81.38-3.1.82-4.03 1.1-2.28 4.21-1.92 5.46-.63 1.81 1.81 4.84 6.32 9.05 9.42 4.28 3.1 4.47 3.65 7.75 5.02Z" clip-rule="evenodd"/>
    <path id="am" fill="#585136" fill-rule="evenodd" d="M361.96 191.9s1.55.92 2.36 4.38c.81 3.54-.73 7.87-1.62 9.23-.9 1.37-2.92 5.1-7.13 5.28a7.82 7.82 0 0 1-3.02-.63 19.17 19.17 0 0 1-4.1-2.54c-1.81-1.37-3.29-2.55-3.1-2.66.44-.19 11.14-9.05 11.14-9.05l4.03-4.5 1.44.5Z" clip-rule="evenodd"/>
    <path id="an" fill="#453A25" fill-rule="evenodd" d="M351.84 206.6s-2.18-.19-3.47-1c-1.3-.81 7.57-9.6 7.57-9.6l-.63 9.5-3.47 1.1Z" clip-rule="evenodd"/>
    <path id="ao" fill="#84754B" fill-rule="evenodd" d="M361.26 191.23s1.1 2.1 1.1 2.66c.2 1.81-.36 7.5-.8 9.3-.45 1.93-2.85 4.84-5.95 4.84-1.92 0-4.58-1.18-4.58-1.47 0-.37 2.73-.73 3.47-2.1.44-.74.63-2.55.73-4.39.07-1.18.07-2.47-.37-2.92-1-1.1-1.18-4.28-1.18-4.28l-3.54-6.59h4.66l5.57 3.47.89 1.48Z" clip-rule="evenodd"/>
    <path id="ap" fill="#D4C38B" fill-rule="evenodd" d="M357.12 189.61s2.55 1.18 3.73 3.65a9.7 9.7 0 0 1 .73 5.84c-.18.93-1.1 3.21-1.73 4.03-.63.8-1.48 1.36-2.1 1.29-.64-.08-1.93-1.74-1.93-2.73 0-1-.07-5.2-1.29-7.5-1.07-2.29 2.59-4.57 2.59-4.57v-.01Z" clip-rule="evenodd"/>
    <path id="aq" fill="#82764F" fill-rule="evenodd" d="M337.04 275.12c0-.19 2-1.56 4.1-2 .37-.07.44.19.73.19.18-.08.25-.63.25-.63l1.2.63s.19.25-.44.73c-.55.44-1.48.81-1.74 1.55-.25.74-.25 1-.37 1.1-.07.08-1.36 0-2-.37-.62-.37-1.8-.97-1.72-1.21h-.01Z" clip-rule="evenodd"/>
    <path id="ar" fill="#6E6342" fill-rule="evenodd" d="M340.44 274.3s-.82.19-1.93 1.11c.3.2.61.39.93.55 0 0 .07-.84 1-1.66Z" clip-rule="evenodd"/>
    <path id="as" fill="#585136" fill-rule="evenodd" d="M339.8 286.6c-.36.07-1 0-1.47.18-.37.19-.63.56-.26 1 .37.44.74 1.1 1.56 1 .92-.07 1.8-.56 1.8-.93a1.78 1.78 0 0 0-.44-1.29c-.37-.3-.55-.1-1.18.04Z" clip-rule="evenodd"/>
    <path id="at" fill="#82764F" fill-rule="evenodd" d="M338.26 281.87c.07-.73.73-.73.73-1.1a.83.83 0 0 0-.81-.63c-.37 0-.73.44-1.19.73-.44.26-1.1.73-1.18 1.3-.07.55.73 2.1 1.63 2.1.89 0 .63-1.67.81-2.4Zm-6.44.4s.79-.95.68-1.4c-.11-.44-.45-.55-.93-.55a1.46 1.46 0 0 0-.92-.44c-.2-.01-.44-.25-.6-.12 0 0-.95-.14-1.24.12-.3.26-.08.26-.26.55-.24.33-.19.65-.25 1.05 0 .3.91.98 1.8.88 1.03-.23 1.53.09 1.71-.1Zm-9.69-2.92s-.05.12.32.42c.26.26 1.56.73 2.67.81 1.1 0 2.1.18 2.1-.18 0-.37-.26-1.84-.8-2.02-.23-.29-1-.63-1.36-.63-.44 0-2.12.23-2.6.15-.44-.07-1.11.69-.85 1.06.1.25.52.4.52.4Zm-2.15-11.53s.56 1.18 1.18 1.18c.63-.08.63-.26.63-.45 0-.26-.63-.92-.55-1.1.18 0 .63 0 .55-.45 0-.37-.63-.81-1.18-.73a2.43 2.43 0 0 0-1.48-.55c-.63 0-1.18.18-1.18.55 0 .37.73 1.18 1 1.37.3.3.66.49 1.03.18Zm8.73 21.78s.42.1.42.48c0 .18-.18.18-.44.07-.15 0-.23.13-.38.09-.07.07-.3.2-.86.2-.4-.04-.78-.16-1.13-.36-.44-.19-.8-.37-.8-.73.18-.63.55-.93 1.1-.93.28-.02.56.05.81.19 0 0 .19-.37.81 0 .63.37.56.37.37.55-.33.3-.13.28-.13.28l.23.16Zm3.86 3.87c0-.18-.92-.55-1.18-.44-.26.07-1 1.48-1 1.62 0 .19.93.63 1.3.63s1-.63 1-.73c0-.07-.45-.18-.45-.26-.1-.18.33-.62.33-.8v-.02Zm2.92-5.39c-.18-.07-.18-.25-.44-.44a.63.63 0 0 0-.55-.07.9.9 0 0 0-.63-.45c-.45-.07-.82 0-.73.19 0 .55-.37.92-.37 1.36 0 .44.25 1 1.18 1.37.92.26 2.18.26 2.36.18.19-.07.37-.8.19-1.18-.19-.37-.7-.77-1-.96Z" clip-rule="evenodd"/>
  </defs>
  <path fill="url(#a)" d="M480 0H32A32 32 0 0 0 0 32v448a32 32 0 0 0 32 32h448a32 32 0 0 0 32-32V32a32 32 0 0 0-32-32Z"/>
  <path fill="#fff" d="M2679.61 182.2c6.66 0 12.4 1.47 17.2 4.4 1.86 1.07 2.53 2.8 2 5.2l-6 30.4c-.27 2.4-1.87 3.2-4.8 2.4-3.47-1.33-7.2-2-11.2-2-1.6 0-4 .27-7.2.8-8.27.8-15.2 5.33-20.8 13.6-5.34 8.27-8 18.27-8 30v116.8c0 2.67-1.34 4-4 4h-30.4c-2.67 0-4-1.33-4-4V188.2c0-2.67 1.33-4 4-4h30.4c2.66 0 4 1.33 4 4v23.2c0 .8.13 1.33.4 1.6.53 0 .93-.4 1.2-1.2 7.73-19.73 20.13-29.6 37.2-29.6Zm-113.2 115.6c0 2.67-1.33 4-4 4h-90.4c-1.07 0-1.6.53-1.6 1.6V325c0 9.6 2.67 17.47 8 23.6 5.33 6.13 12.27 9.2 20.8 9.2 7.47 0 13.73-2.27 18.8-6.8 5.07-4.53 8.27-10.4 9.6-17.6.8-2.13 2.27-3.2 4.4-3.2l29.6 1.6c1.33 0 2.27.4 2.8 1.2.8.8 1.07 1.73.8 2.8-1.87 17.33-8.53 30.93-20 40.8-11.2 9.6-26.53 14.4-46 14.4-20.53 0-36.93-5.73-49.2-17.2-12-11.47-18-26.8-18-46v-83.2c0-18.93 6-34.27 18-46 12.27-11.73 28.67-17.6 49.2-17.6 20.8 0 37.2 5.87 49.2 17.6s18 27.07 18 46v53.2Zm-67.2-83.6c-8.53 0-15.47 3.07-20.8 9.2-5.33 6.13-8 14-8 23.6v21.2c0 1.07.53 1.6 1.6 1.6h54.8c1.07 0 1.6-.53 1.6-1.6V247c0-9.6-2.67-17.47-8-23.6-5.33-6.13-12.4-9.2-21.2-9.2Zm-105.93-32c6.66 0 12.4 1.47 17.2 4.4 1.86 1.07 2.53 2.8 2 5.2l-6 30.4c-.27 2.4-1.87 3.2-4.8 2.4-3.47-1.33-7.2-2-11.2-2-1.6 0-4 .27-7.2.8-8.27.8-15.2 5.33-20.8 13.6-5.34 8.27-8 18.27-8 30v116.8c0 2.67-1.34 4-4 4h-30.4c-2.67 0-4-1.33-4-4V188.2c0-2.67 1.33-4 4-4h30.4c2.66 0 4 1.33 4 4v23.2c0 .8.13 1.33.4 1.6.53 0 .93-.4 1.2-1.2 7.73-19.73 20.13-29.6 37.2-29.6ZM2210.55 391c-20.8 0-37.34-5.73-49.6-17.2-12-11.73-18-27.2-18-46.4v-82.8c0-18.93 6.13-34.27 18.4-46 12.26-11.73 28.66-17.6 49.2-17.6 20.8 0 37.33 5.87 49.6 17.6 12.26 11.73 18.4 27.07 18.4 46v82.8c0 19.2-6.14 34.67-18.4 46.4-12.27 11.47-28.8 17.2-49.6 17.2Zm0-33.6c8.53 0 15.6-2.93 21.2-8.8 5.6-6.13 8.4-14.13 8.4-24V247c0-9.6-2.8-17.47-8.4-23.6-5.6-6.13-12.67-9.2-21.2-9.2-8.54 0-15.6 3.07-21.2 9.2-5.34 6.13-8 14-8 23.6v77.6c0 9.87 2.66 17.87 8 24 5.6 5.87 12.66 8.8 21.2 8.8Zm-138.17 30.4c-2.66 0-4-1.33-4-4v-272c0-2.67 1.34-4 4-4h30.4c2.67 0 4 1.33 4 4v272c0 2.67-1.33 4-4 4h-30.4ZM1975.36 181c17.33 0 31.06 5.87 41.2 17.6 10.4 11.47 15.6 26.67 15.6 45.6v83.2c0 19.73-5.2 35.33-15.6 46.8-10.14 11.2-23.87 16.8-41.2 16.8-6.4 0-12.94-1.2-19.6-3.6a47.9 47.9 0 0 1-17.2-11.2c-1.34-.8-2-.53-2 .8v83.2c0 2.67-1.34 4-4 4h-30.4c-2.67 0-4-1.33-4-4v-272c0-2.67 1.33-4 4-4h30.4c2.66 0 4 1.33 4 4v6.4c0 .53.26.93.8 1.2.53 0 1.06-.27 1.6-.8a45.81 45.81 0 0 1 17.2-10.4c6.4-2.4 12.8-3.6 19.2-3.6Zm18.8 66c0-9.6-2.8-17.47-8.4-23.6-5.34-6.13-12.27-9.2-20.8-9.2-8.27 0-15.07 3.07-20.4 9.2-5.34 6.13-8 14-8 23.6v78c0 9.6 2.66 17.47 8 23.6 5.33 6.13 12.13 9.2 20.4 9.2 8.53 0 15.46-3.07 20.8-9.2 5.6-6.13 8.4-14 8.4-23.6v-78Zm-267.38 140.8c-1.33 0-2.27-.4-2.8-1.2a4.26 4.26 0 0 1 0-3.6l48.4-95.6c.53-.8.53-1.6 0-2.4l-48.4-96a4.4 4.4 0 0 1-.4-2c0-1.87 1.07-2.8 3.2-2.8h33.6c2.4 0 4 .93 4.8 2.8l29.2 62.4c.27.53.67.8 1.2.8.53 0 .93-.27 1.2-.8l29.6-62.4c.8-1.87 2.4-2.8 4.8-2.8h33.2c1.33 0 2.27.53 2.8 1.6.53.8.53 1.87 0 3.2l-48 96c-.27.8-.27 1.6 0 2.4l48 95.6c.27.53.4 1.2.4 2 0 1.87-1.07 2.8-3.2 2.8h-33.2c-2.4 0-4-.93-4.8-2.8l-29.6-63.2c-.27-.53-.67-.8-1.2-.8-.53 0-.93.27-1.2.8l-29.6 63.2c-.8 1.87-2.27 2.8-4.4 2.8h-33.6ZM1702.13 137c0 2.67-1.34 4-4 4h-90.01c-1.06 0-1.59.53-1.59 1.6v86.8c0 1.07.53 1.6 1.59 1.6h55.21c2.66 0 4 1.33 4 4v25.2c0 2.67-1.34 4-4 4h-55.21c-1.06 0-1.59.53-1.59 1.6V353c0 1.07.53 1.6 1.59 1.6h90.01c2.66 0 4 1.33 4 4v25.2c0 2.67-1.34 4-4 4h-126.01c-2.66 0-4-1.33-4-4v-272c0-2.67 1.34-4 4-4h126.01c2.66 0 4 1.33 4 4V137Zm-252.74 0c0 2.67-1.33 4-4 4h-90c-1.07 0-1.6.53-1.6 1.6v86.8c0 1.07.53 1.6 1.6 1.6h55.2c2.67 0 4 1.33 4 4v25.2c0 2.67-1.33 4-4 4h-55.2c-1.07 0-1.6.53-1.6 1.6V353c0 1.07.53 1.6 1.6 1.6h90c2.67 0 4 1.33 4 4v25.2c0 2.67-1.33 4-4 4h-126c-2.67 0-4-1.33-4-4v-272c0-2.67 1.33-4 4-4h126c2.67 0 4 1.33 4 4V137Zm-315.16 250.8c-2.66 0-4-1.33-4-4v-272c0-2.67 1.34-4 4-4h65.6c22.14 0 39.74 6.8 52.8 20.4 13.07 13.6 19.6 32 19.6 55.2v128.8c0 23.2-6.53 41.6-19.6 55.2-13.06 13.6-30.66 20.4-52.8 20.4h-65.6Zm34.4-34.8c0 1.07.54 1.6 1.6 1.6l29.2-.4c10.14 0 18.27-3.87 24.4-11.6 6.14-8 9.34-18.8 9.6-32.4V185.4c0-13.6-3.06-24.4-9.2-32.4-6.13-8-14.4-12-24.8-12h-29.2c-1.06 0-1.6.53-1.6 1.6V353Zm-122.29 34.8c-2.66 0-4-1.33-4-4v-272c0-2.67 1.34-4 4-4h30.4c2.67 0 4 1.33 4 4v272c0 2.67-1.33 4-4 4h-30.4Zm-38.55-179.6c0 2.67-1.34 4-4 4h-28c-1.07 0-1.6.53-1.6 1.6v112.4c0 10.67 1.86 18.13 5.6 22.4 3.73 4 9.6 5.87 17.6 5.6h3.6c2.66 0 4 1.33 4 4v25.6c0 2.67-1.34 4-4 4h-12.4c-17.07 0-30-3.33-38.8-10-8.54-6.67-12.8-19.33-12.8-38v-126c0-1.07-.54-1.6-1.6-1.6h-15.6c-2.67 0-4-1.33-4-4v-20c0-2.67 1.33-4 4-4h15.6c1.06 0 1.6-.53 1.6-1.6v-45.2c0-2.67 1.33-4 4-4h29.2c2.66 0 4 1.33 4 4v45.2c0 1.07.53 1.6 1.6 1.6h28c2.66 0 4 1.33 4 4v20Zm-143.17-56c-7.47 0-13.6-2.4-18.4-7.2-4.8-4.8-7.2-10.93-7.2-18.4 0-7.47 2.4-13.6 7.2-18.4 4.8-4.8 10.93-7.2 18.4-7.2 7.74 0 13.87 2.4 18.4 7.2 4.8 4.53 7.2 10.67 7.2 18.4 0 7.47-2.4 13.6-7.2 18.4-4.8 4.8-10.93 7.2-18.4 7.2Zm-14.8 235.6c-2.67 0-4-1.33-4-4V188.2c0-2.67 1.33-4 4-4h30.4c2.67 0 4 1.33 4 4v195.6c0 2.67-1.33 4-4 4h-30.4Zm-39.22-76.4c0 24.27-6.93 43.07-20.8 56.4-13.6 13.33-31.6 20-54 20H669c-2.67 0-4-1.33-4-4v-272c0-2.67 1.33-4 4-4h61.2c24.27 0 43.2 6.4 56.8 19.2 13.87 12.53 20.8 30.93 20.8 55.2 0 28.8-10.27 48.67-30.8 59.6-1.33.8-1.47 1.47-.4 2 10.67 6.4 18.93 15.33 24.8 26.8 6.13 11.47 9.2 25.07 9.2 40.8ZM705 141c-1.07 0-1.6.53-1.6 1.6v84.8c0 1.07.53 1.6 1.6 1.6h25.6c12.53 0 22.27-3.73 29.2-11.2 6.93-7.73 10.4-18.4 10.4-32 0-14.13-3.47-25.07-10.4-32.8-6.93-8-16.67-12-29.2-12H705Zm27.6 213.2c12.27 0 21.87-4.13 28.8-12.4 7.2-8.27 10.8-20 10.8-35.2 0-15.47-3.47-27.47-10.4-36-6.93-8.8-16.53-13.2-28.8-13.2h-28c-1.07 0-1.6.53-1.6 1.6v93.6c0 1.07.53 1.6 1.6 1.6h27.6Z"/>
  <use xlink:href="#b" fill-rule="evenodd" clip-rule="evenodd"/>
  <use xlink:href="#c" fill-rule="evenodd" clip-rule="evenodd"/>
  <use xlink:href="#d" fill-rule="evenodd" clip-rule="evenodd"/>
  <use xlink:href="#e" fill-rule="evenodd" clip-rule="evenodd"/>
  <use xlink:href="#f" fill-rule="evenodd" clip-rule="evenodd"/>
  <use xlink:href="#g" fill-rule="evenodd" clip-rule="evenodd"/>
  <use xlink:href="#h" fill-rule="evenodd" clip-rule="evenodd"/>
  <path fill="#E5CB7A" fill-rule="evenodd" d="m410.94 420.24-.1-.84c-1.1-9.5-1.3-16.69-2.1-21.2-1.18-6.38-1.3-7.75-1.12-10.14a76.7 76.7 0 0 0-.28-12.22c-.55-3.91-3.93-6.95-3.82-10.16.08-2.55 1.39-3.9 1.78-5.76.5-2.32-2.32-7.23-2.32-7.23s-3.25-.82-3.18-21.79c-.15.05-.3.1-.44.19l-3.73 10.6-2.55 3.1-9.78 18.23-12.6 12.22-18.6 12.52-11.67 12.7-1.18 33.85 15.25 19.79 2.5 4.52a216.87 216.87 0 0 0 53.94-38.38Z" clip-rule="evenodd"/>
  <path fill="#D8C173" fill-rule="evenodd" d="M364.36 452.63s-.26-4.21-3.73-6.94c-.56.92-.93 1.8-.81 2.47-.63-1.1-5.02-8.2-14.96-10.04-9.93-1.81-12.33-9.05-12.33-9.05l-21.08-19.16-24.1-22.19-29.32-10.3-13.7-3.36s-.26 1 .26 3.21c-2.55-.18-8.2-1.47-14.07-3.54-2.36-.92-4.58-1.3-5.76-.07-1.73 1.62-2 5.46-2.1 7.75-2.84-.63-6.13-3.36-8.76-3.1-4.21.44-7.94 5.39-12.22 5.39-5.65 0-8.2-3.47-12.15-6.2-2.36-1.63-5.76-3.66-7.68-5.03-4.58-3.36-53.02-18.16-53.02-18.16l-16.98 1.1-2.73 18.24 1.46 47.68.54.53 77.22 40.33 107.65 7.46c23.98-3.91 46.5-2.93 67.81-14.6l.55-2.43Z" clip-rule="evenodd"/>
  <use xlink:href="#i" fill-rule="evenodd" clip-rule="evenodd"/>
  <use xlink:href="#j" fill-rule="evenodd" clip-rule="evenodd"/>
  <use xlink:href="#k" fill-rule="evenodd" clip-rule="evenodd"/>
  <use xlink:href="#l" fill-rule="evenodd" clip-rule="evenodd"/>
  <use xlink:href="#m" fill-rule="evenodd" clip-rule="evenodd"/>
  <use xlink:href="#n" fill-rule="evenodd" clip-rule="evenodd"/>
  <use xlink:href="#o" fill-rule="evenodd" clip-rule="evenodd"/>
  <use xlink:href="#p" fill-rule="evenodd" clip-rule="evenodd"/>
  <path fill="#D2B159" fill-rule="evenodd" d="M345.27 403.34s.73-2.73 7.5-9.78c1.92-2 3.1-3.65 4.39-4.84 3.21-3.03 5.1-3.84 7.38-5.57 5.02-3.73 10.49-3.73 14.7-8.31 4.2-4.58 9.1-13.33 12.51-22.26 3.36-8.94 4.29-11.78 4.29-12.04 0-.26-.93-2-2.1-1.74-1.19.26-1.19 2.55-1.49 3.1-.58.91-1.25 1.76-2 2.55-1.72 2-4.2 4.38-5.45 7.94.26-3.03 1.29-6.39 1.29-6.39s-6.5 4.1-12.04 8.38c-5.57 4.29-7.86 5.76-9.49 8.5-1.63 2.73-5.46 9.93-7.3 12.03-1.84 2.1-27.01 10.04-27.01 10.04l-11.98 8.94-5.95 13.03 4.66 7.3 8.93 1.92 14.51-6.5 4.65-6.3Z" clip-rule="evenodd"/>
  <path fill="#C2A44D" fill-rule="evenodd" d="M377.5 358.44s-3.02 4.84-10.4 9.42c-6.65 4.02-17.18 7.68-26.56 9.86-5.38 1.3-10.78 2.29-15.61 2.36-13.03.18-22-3.54-33.12-4.76-6.02-.63-13.4-1.1-21.08-2.92-9.86-2.36-15.7-5.02-23.63-8.76-5.76-2.66-11.04-4.65-15.32-7.2-6.02-3.55-10.41-7.5-15.5-8.68.62 1.74 1.28 4.84 6.3 8.05-2.65-.07-6.3-.26-6.3-.26s3.54 2.1 9.78 6.83c3.84 2.92 8.93 7.87 14.14 11.15 3.35 2.1 7.01 3.65 9.41 4.91 5.84 3.22 8.2 4.84 12.04 8.76-1.37-.07-1.48 0-1.48 0s4.84.63 8.3 2.48c.74 0 2-.26 4.22.37 1.73.55 4.02 1.8 6.38 2.47 3.36 1 4.47.56 4.47.56l-.55 1.1s4.38-.07 5.84.08c-.26.07-.19.18-.19.18.26.04.5.13.73.26.7.45 1.48.8 2.29 1 .44.07.81.07 1.37.18-.19.44-1.63 2.92-2.3 4.38.56.37 8.87 6.65 8.87 6.65-.26.4-.47.84-.63 1.29-.26.8-.37 2-.63 2.54-.62 1.11-1 1.3-1 1.3s1 .18 2.74.63c1.48.37 3.29 1 5.84 1.36.78.1 1.57.16 2.36.19-.36.8-1.99 3.9 1 7.5 3 3.57 3.92 4.09 4.84 6.38.46-.35.96-.66 1.48-.93 1-.44 2.36-1.1 2.84-2a23.7 23.7 0 0 0 1.1 3.48c.93 2.47 2.3 4.91 2.55 6.76 1-1.11 2.85-3.29 5.4-2.85 2.54.45 4.57 3.92 5.01 4.91 0-.62.45-1.1.56-.37.07.82 1.47 9.3 9.3 16.17.07-1.73.07-5.57.26-6.82.73.73 1.62 1.8 6.94 4.1 5.2 2.28 4.38 4.57 4.38 4.57s.44-3.65-2.36-7.5c-2.85-3.83-4.58-5.64-4.58-5.94.05-.3.17-.58.37-.81.37-.37 1.1-.81 1.1-1.1-.44-.19-4.83-2.3-4.57-6.65a11.78 11.78 0 0 1 3.1-7.39c.18-.18-1.74-1.55-1.48-1.99.19-.26 2.55-2 2.84-2.92a7.47 7.47 0 0 0-.37-1.62c-.25-.82-.44-1.37-.37-1.92.19-.93 1.19-3.47 1.48-3.73-.26.07-2.1 0-2.1 0s1.47-2.36 1.73-3.47c.26-1.11.82-4.03 1.11-4.58-.63.07-2.18.18-2.18 0-.07-.56 1.37-1.48.73-2.19-.44.07-1.29.44-2.1 1.48.44-1.19 1.18-3.47 2.73-4.4-.73-.25-3.2-.92-5.39.37-2.18 1.3-2.92 3.1-2.92 3.1s-1.29 1-3.28 2.48c-2.3 1.8-5.2 4.38-9.86 6.2-1 .55-3.55.55-5.4.18a8.2 8.2 0 0 1-2.28-.92 4.19 4.19 0 0 0-.81-.37c.4-.8.85-1.56 1.36-2.29-.63 0-1.36.08-1.36.08s-.45-1 1.55-2.93c-.45-.44-1-.73-1-1.47.63-.07 1.73-1 2-1.37-.38-.25-.93-1.1-1.56-1.36.56-.44 1.92-2.29 2.55-2.47-.6-.23-1.18-.5-1.74-.82 0 0 3.1-.81 4.1-1.48 1-.73 2.48-1.99 3.36-2.36.93-.37 2.55-.55 3.21-1.3-.62.2-1.62 0-2.36 0-.55 0-.81.08-1 .08.08-.26.08-.81-1.36-1-.7-.1-1.37-.3-2-.62 0 0 1.37-.07 2.92-1.55 1.56-1.48 2.85-2.66 3.73-2.84.93-.19 2.66.62 3.73.55 1.48-.18 2.1-.92 2.1-.92s4.92.44 15.8-6.2c9.42-5.77 13.52-10.86 13.52-10.86a16.2 16.2 0 0 0 2.55-1.18c3.54-1.85 8.45-5.69 8.3-10.71l.02.03Z" clip-rule="evenodd"/>
  <use xlink:href="#q" fill-rule="evenodd" clip-rule="evenodd"/>
  <use xlink:href="#r" fill-rule="evenodd" clip-rule="evenodd"/>
  <use xlink:href="#s" fill-rule="evenodd" clip-rule="evenodd"/>
  <path fill="#CEB052" fill-rule="evenodd" d="M365.98 453.85v-.41c-.3-.2-.58-.44-.8-.73-.27-.37-.45-.81-.64-.92-.37-.19-2.1-.73-3.02-.56-.93.18-3.37 1.18-4.66 1.11-2.66-.07-5.75-2.1-10.67-1.18-7.38 1.36-9.12 6.38-13.4 9.23-2.92 2-5.94 1.1-6.39 1.1h-1c-.18 0-1.54-1.55-2.28-1.47-1.48.07-1.62 1.3-2.55 1.37-2.18.25-6.39-1.11-8.5-.56a4.06 4.06 0 0 0-1.65 6.76c2.29 2.1.6 2.13 1.04 3.88-.57.43 4.29-3.58 5.35.17 18.27-4.65 32.74-8.53 49.17-17.77v-.02Z" clip-rule="evenodd"/>
  <use xlink:href="#t" fill-rule="evenodd" clip-rule="evenodd"/>
  <use xlink:href="#u" fill-rule="evenodd" clip-rule="evenodd"/>
  <use xlink:href="#v" fill-rule="evenodd" clip-rule="evenodd"/>
  <use xlink:href="#w" fill-rule="evenodd" clip-rule="evenodd"/>
  <use xlink:href="#x" fill-rule="evenodd" clip-rule="evenodd"/>
  <use xlink:href="#y" fill-rule="evenodd" clip-rule="evenodd"/>
  <use xlink:href="#z" fill-rule="evenodd" clip-rule="evenodd"/>
  <use xlink:href="#A" fill-rule="evenodd" clip-rule="evenodd"/>
  <path fill="#F4EFC8" fill-rule="evenodd" d="M398.29 227.82s.92-2.28 0-6.75c-.92-4.47-2.37-6.57-2.85-13.15-.47-6.57-4.76-14.76-4.76-14.76l-11.85-5.4-8.38 2.3-2.47 11.22 10.6 5.84s.55 2.47 3.54 4.47c2.99 2 7.12 3.54 8.12 5.57.6 1.25 1.03 2.56 1.29 3.92 0 0 3.03-.63 4.84 1.36 1.92 2.03 1.84 3.84 1.92 5.4v-.02Z" clip-rule="evenodd"/>
  <use xlink:href="#B" fill-rule="evenodd" clip-rule="evenodd"/>
  <use xlink:href="#C" fill-rule="evenodd" clip-rule="evenodd"/>
  <use xlink:href="#D" fill-rule="evenodd" clip-rule="evenodd"/>
  <use xlink:href="#E" fill-rule="evenodd" clip-rule="evenodd"/>
  <use xlink:href="#F" fill-rule="evenodd" clip-rule="evenodd"/>
  <use xlink:href="#G" fill-rule="evenodd" clip-rule="evenodd"/>
  <use xlink:href="#H" fill-rule="evenodd" clip-rule="evenodd"/>
  <use xlink:href="#I" fill-rule="evenodd" clip-rule="evenodd"/>
  <use xlink:href="#J" fill-rule="evenodd" clip-rule="evenodd"/>
  <use xlink:href="#K" fill-rule="evenodd" clip-rule="evenodd"/>
  <path fill="#E6C367" fill-rule="evenodd" d="M341.54 143.43s3.73.92 10.67 4.57a115.6 115.6 0 0 0 6.57 3.1c5.47 2.48 11.34 4.76 16 6.02l-.56.63s0 1.8-1 2.84c.55.56 7.94 5.58 5.76 22.37-1.48-.55-3.21-1.29-3.47-1.29-.44.08-.55 1.3-1.1 1.3-.56 0-2.37-.74-4.29-3.22.07 1 1.18 11.04-4.76 17.8a92.95 92.95 0 0 1-3.92-5.58l-.07-1.36s-.26-4.77-1.81-9.12a24.13 24.13 0 0 0-4.58-7.57l-15.8-22.56 2.37-7.94Z" clip-rule="evenodd"/>
  <use xlink:href="#L" fill-rule="evenodd" clip-rule="evenodd"/>
  <use xlink:href="#M" fill-rule="evenodd" clip-rule="evenodd"/>
  <use xlink:href="#N" fill-rule="evenodd" clip-rule="evenodd"/>
  <use xlink:href="#O" fill-rule="evenodd" clip-rule="evenodd"/>
  <use xlink:href="#P" fill-rule="evenodd" clip-rule="evenodd"/>
  <use xlink:href="#Q" fill-rule="evenodd" clip-rule="evenodd"/>
  <use xlink:href="#R" fill-rule="evenodd" clip-rule="evenodd"/>
  <use xlink:href="#S" fill-rule="evenodd" clip-rule="evenodd"/>
  <use xlink:href="#T" fill-rule="evenodd" clip-rule="evenodd"/>
  <use xlink:href="#U" fill-rule="evenodd" clip-rule="evenodd"/>
  <use xlink:href="#V" fill-rule="evenodd" clip-rule="evenodd"/>
  <use xlink:href="#W" fill-rule="evenodd" clip-rule="evenodd"/>
  <use xlink:href="#X" fill-rule="evenodd" clip-rule="evenodd"/>
  <use xlink:href="#Y" fill-rule="evenodd" clip-rule="evenodd"/>
  <use xlink:href="#Z" fill-rule="evenodd" clip-rule="evenodd"/>
  <path fill="#B18E3E" fill-rule="evenodd" d="M195.49 139.84s.63.44-.63 1.3c.18.25.63 1.18 1.18 1.8.63.73 1.3 1.19 1.55 1.81.56 1.3 1 2.18 1 2.74 0 .55.18 4.1 1.73 6.38.56.81 1.19 2.18 1.63 3.1.92 1.63 1.73 2.92 1.92 3.65.36 1.3.63 4.84.63 4.84l-1.11-1.36c.44.92.92 1.91 1.62 2.65-.44-.37-1.73-1.29-3.91-3.21-3.03-2.55-7.75-6.83-13.51-10.22 1.73.63 3.2.63 4.39.81-.93-.92-9.23-10.67-13.59-11.6-.26-.33-.4-.75-.37-1.17l3.73-.37 7.57 1.62 1.1-5.84 5.07 3.07Z" clip-rule="evenodd"/>
  <path fill="#543E26" fill-rule="evenodd" d="M183.45 173.07s1 1 1.92 3.47c.71-.74 1.32-1.57 1.81-2.47 1.36-2.3 3.47-5.21 8.38-3.55.07-1.55.19-2.36 0-3.47-.81-.18-3.28-2.17-5.76-5.1a23.5 23.5 0 0 1-4.47-7.2c-.73-.55-2-1.47-3.65-2.54-2.36-1.62-5.2-3.84-5.65-6.31 1.11.44 3.47 1.55 7.02 1.36-1.37-.62-3.47-1.28-3.21-4.02-.56-.37-1-.63-1-.63.42-.14.85-.2 1.29-.18.08-.26.19-.63.82-.45.62.19.73.19.8.45.27.07 1.12 0 1.74.44.63.45 2.36 1.92 3.03 2.18l-.62-1.1s1.8.18 3.1.72c2.36.82 5.09 2.3 7.86 3.73-.26-.44-.37-.73-.55-.81-.19-.08-.63-.18-.63-.26 0-.07.18-.73.07-1a33.79 33.79 0 0 0-2.92-5.02 9.76 9.76 0 0 1-1.55-4.2l-5.65-2.85-15.87-3.65-10.3.63 1.28 7.13 6.09 12.44 5.2 11.33 5.95 6.95 5.47 3.98Z" clip-rule="evenodd"/>
  <path fill="#806031" fill-rule="evenodd" d="M157.72 142.23s6.2 7.68 7.94 8.86c-1.11-2.36-7.94-16.43-10.41-20.34.55-.44 1.28-.44-.45-7.3 1.48 3.47 2 5.28 3.21 6.2 1.22.92 1.37.63 2.2.63a1.5 1.5 0 0 1-.19-.93s5.2-.62 8.76-.62c3.56 0 10.6 1.92 14.51 3.47 3.1 1.29 4.84 1.29 5.95 2.1 1.1.92 1.73 1.92 2.28 2.18.45.26 2.55.92 3.03 1.62.45.73 1.18 1.55 1.18 1.74 0 .18.19.44-.37.25-.18-.07-1.55-.8-3.1-1.73a85.46 85.46 0 0 0-6.5-3.36c-5.28-2.1-6.94-1.73-9.3-2.18-2.47-.44-6.02-1.47-8.38-1.47a70.3 70.3 0 0 0-7.86.18c.44.37.81.81.63 2.36 0 .45.37.93.72 2 1.35 3.58 2.81 7.11 4.39 10.6 1.62 3.46 3.46 6.38 4.38 8.19.91 1.8 2.92 6.57 4.9 9.12 2 2.55 3.03 4.1 3.66 4.65.62.56 5.1 3.84 4.76 5.02a24.68 24.68 0 0 1-9.67-6.38c-3.73-4.2-4.47-6.76-7.39-9.05-2.91-2.29-5.2-6.13-6.57-9.3-1.14-2.96-.88-3.88-2.32-6.5Z" clip-rule="evenodd"/>
  <use xlink:href="#aa" fill-rule="evenodd" clip-rule="evenodd"/>
  <use xlink:href="#ab" fill-rule="evenodd" clip-rule="evenodd"/>
  <use xlink:href="#ac" fill-rule="evenodd" clip-rule="evenodd"/>
  <use xlink:href="#ad" fill-rule="evenodd" clip-rule="evenodd"/>
  <use xlink:href="#ae" fill-rule="evenodd" clip-rule="evenodd"/>
  <use xlink:href="#af" fill-rule="evenodd" clip-rule="evenodd"/>
  <use xlink:href="#ag" fill-rule="evenodd" clip-rule="evenodd"/>
  <use xlink:href="#ah" fill-rule="evenodd" clip-rule="evenodd"/>
  <path fill="#252211" fill-rule="evenodd" d="M268.33 208.14s1.48 2.3 1.48 5.95c0 3.73-2.1 9.67-9.86 10.11-5.94.37-9.93-8.56-14.25-12.03-3.29-2.66-5.28-2.73-5.28-2.73s3.36-3.66 12.33-8.38c8.86-4.77 18.8-5.4 24.18 1.92-2.55-.19-10.78-2.3-10.78-2.3l-4.02 1.3 6.2 6.17Z" clip-rule="evenodd"/>
  <use xlink:href="#ai" fill-rule="evenodd" clip-rule="evenodd"/>
  <use xlink:href="#aj" fill-rule="evenodd" clip-rule="evenodd"/>
  <use xlink:href="#ak" fill-rule="evenodd" clip-rule="evenodd"/>
  <path fill="#EAC970" fill-rule="evenodd" d="m360.52 189.61 1.74 1.3s-.45-.81-.82-3.29c-.36-2.47-2.29-8.49-5.1-11.96-2.8-3.47-2.73-3.29-2.73-3.29a1.86 1.86 0 0 1 1.48.37c-.37-.82-2.73-3.74-5.1-5.2-2.36-1.46-3.28-1.92-5.75-.73-2.48 1.2-3.1 1.81-4.92 1.74-1.8-.07-3.35-2-3.35-2s-.37 1.19 1 3.92c1.35 2.73 6.75 8.3 6.75 8.3l11.22 7.68 5.58 3.17v-.01Z" clip-rule="evenodd"/>
  <use xlink:href="#al" fill-rule="evenodd" clip-rule="evenodd"/>
  <use xlink:href="#am" fill-rule="evenodd" clip-rule="evenodd"/>
  <use xlink:href="#an" fill-rule="evenodd" clip-rule="evenodd"/>
  <use xlink:href="#ao" fill-rule="evenodd" clip-rule="evenodd"/>
  <path fill="#252211" fill-rule="evenodd" d="M362.62 193.27s-3.65-4.84-6.94-5.95c-3.29-1.11-4.76-.44-4.76-.44l1.92 4.9 2.73 3.04-.18 1.55s.44 4.1-2.29 6.94c-2.73 2.84-4.76 2.73-5.95 2.73-1.18 0-4.57-1-6.3-5.1-1.56-3.83-2.85-8.76.25-13.7 3.03-4.9 8.38-5.1 9.42-5.1 1.03 0 9.15.41 12.1 11.12Z" clip-rule="evenodd"/>
  <path fill="#F7F7E7" fill-rule="evenodd" d="M268.88 209.7c1.37-.63.07-4.47-1.29-5.65-1.36-1.19-3.1-2.55-6.13-2.74-1.1-.07-2.17.63-2 1.37.27 1.36 2.19 3.28 3.92 4.65 2.4 1.88 3.95 3.07 5.5 2.36Z" clip-rule="evenodd"/>
  <path fill="#F8F6DE" fill-rule="evenodd" d="M342.72 188.76c-1-.07-2.29.73-2.54 1.81-.26 1.18.63 3.55 2.55 3.55 1.55 0 2.36-1.93 2.36-2.48-.02-.45-.15-.9-.37-1.29-.08-.11-.26-1.4-2-1.59Z" clip-rule="evenodd"/>
  <use xlink:href="#ap" fill-rule="evenodd" clip-rule="evenodd"/>
  <path fill="#E2D59D" fill-rule="evenodd" d="M356.75 189.43c.45.25 1.18.62 1 1.1-.18.44-1.73.73-2.29 1.81a3.87 3.87 0 0 0-.44 2.85 4.48 4.48 0 0 1-1.3-.93c-.8-.92-1.8-2.17-2.65-2.17-.56 0-1.1.25-1.63.25-.81 0-1.62-.25-1.73-1.1-.19-1.11 1.55-2.1 2.55-1.92-.19-.73-.45-1.81.37-2.55.8-.74 3.35.55 3.9.92.56.37 2.22 1.74 2.22 1.74Z" clip-rule="evenodd"/>
  <path fill="#CBAC5A" fill-rule="evenodd" d="m298.09 267-5.47-1.62-1.55 1.1s-1.1 2.37-2.84 2.66c.56 1.19 2 2.2 1.92 3.03a2.56 2.56 0 0 1-.81 1.48s4.91 8.12-4.76 16.3c2.28.93 5.2 2.2 6.75 2.93-1.1.25-3.47.73-4.46 1.62-1 .9-1 1.18-1.93 1.74-.92.55-1.47 1.29-1.29 1.62.63-.37 2.74-1.47 3.1-.44.37 1.03 9.12.63 9.12.63l14.77 2.84s-.55-1.48 1-2.84c1.8-1.63 4.02.07 6.38-1.74 3.1-2.36 3.22-5.1 4.21-6.13-1-.63-3.03-1.55-7.86-2.19.18-.37.81-1.48.44-2.47-.44-1.29-2.29-2.1-1.73-3.65-.82-.19-1.18-.19-3.21-2.73-1.93-2.55-3.1-3.1-4.58-3.29-1.48-.19-2.37 0-5.1-2.55-1.92-1.8-1.3-3.36-1.3-3.36s-1.25-.4-.8-2.95Z" clip-rule="evenodd"/>
  <path fill="#D6BC6F" fill-rule="evenodd" d="M314.22 267.81c-.07-.37-.37-.55-2.36-.37-2 .19-14.62-1.18-18.06-1.36-3.47-.26-15.69-.08-21.63 1.18a416 416 0 0 0-14.88 3.47c-2.92.81-3.84 1.1-3.73 1.47.07.38.73.74 1.11.63.37-.07 10.04-3.02 13.03-3.65 2.99-.62 13.33-2.29 18.98-2.19 5.28.08 7.39-.07 11.85.44 4.47.56 11.86 1.3 14.07 1 2.2-.26 1.74-.26 1.63-.63v.01Z" clip-rule="evenodd"/>
  <path fill="#DFC677" fill-rule="evenodd" d="M284.5 296.75s-7.57 4.1-10.3 9.12a3.96 3.96 0 0 0 1.18 5.58s-4.28 0-3.73 2.36c.26 1.48 7.39 5.46 12.15 7.57 4.83 2.1 4.65 2 7.01 2.36 2.3.37 8.57-.73 9.86 1.1 1.3 1.85.73 3.74.37 4.03-.37.26-3.36.63-3.36.63s.63 1.74 6.83 1.92c6.2.19 7.75.63 8.12 1.3.37.62-1.18.25-4.02.72-2.84.45-6.83.73-6.83.73s1.29 1.11 4.65 2c3.84 1 9.86 1.92 11.67 3.02-.93.63-2.3 1.55-2.92 1.63 1.55.37 3.73 1.18 4.1 1.48-.56.37-1.3.8-1.3.8s3.1 3.74 4.91 4.66c1.81.93 12.22 5.76 15.8 4.84 8.94-2.36 10.05-12.15 12.23-12.89 3.28-1.1 4.83 1.1 7.75-.44-1.3-.92-2-1.48-3.36-2.1 1.48-.74 9.12-5.58 9.12-5.58.8-1.74 1.69-3.44 2.66-5.1 1.48-2.54 3.65-5.94 5.28-8.93 3.54-6.57 3.73-9.6 6.94-13.33-.56-.73-2.47-.63-2.47-.63l-26.92 8.86-47.73 1.39-12.41-17.72-5.28.62Z" clip-rule="evenodd"/>
  <path fill="#C4A859" fill-rule="evenodd" d="M355.2 323.78c-.29.32-.62.6-1 .8-.92.64-2.28 1.38-3.2 2.48-.38-.55-1.3-1.55-2.93 0-1.62 1.55-3.65.45-4.9.81-1.3.45-1.37.63-1.37.63s-.73-.63-2.36-1.29c-1-.37-2.18-.63-3.47-1-1.18-.25-2.48-.62-3.37-.62-.8.55-3.72 3.65-15.43-.93-11.04-4.28-13.58-4.76-15.43-4.1-.19-.44-.37-1.29-3.21-1.18 0-1.18 2.36-5.2 2.36-5.2l13.03-4.47h7.13l21.38 3.92 11.84 6.75.93 3.41v-.01Z" clip-rule="evenodd"/>
  <path fill="#927D49" fill-rule="evenodd" d="M362.33 316.29s-.26 1.99-3.21 4.1c-2.92 2.1-3.84 3.35-3.84 3.35s-.56-.73-1-1.48c-.44-.8-.81-1.73-1.55-1.99-1.48-.63-4.84.55-5.58.37-.62-.18-.44-1.48-1.1-1.48-1.55-.07-2.55 1-3.1 1-.56 0-1.92-.07-2.1-.37-.2-.29-.26-3.36-2.37-4.84a6.32 6.32 0 0 0-5.84-.55c0 .55-.07 1.92-1.55 2-1.48.07-1.62-.19-2.92.25-1.3.45-2.84-.07-3.55 2.1-.62-.18-2.1-.36-1.73-2.47-.73-.55-1.37-.92-2.92-3.1-.37-.55-1-1.18-1.48-2-1.29 0-2.84-.25-4.9 1.56.62.44 1 .73 1.17 1.18-.54.53-1.03 1.12-1.47 1.73-.56.74-.93 1.63-1.63 1.81-1.55.45-4.1-.18-6.94 0a13.96 13.96 0 0 0-6.02 1.81c-.37-.18-.37-.25-1.29-.07-.92.19-1.62.26-.63-.92-.55.26-1.18.81-1.73.26-.56-.56-1-1.37-2.55-1.55-1.55-.19-2.1.07-2.73-1.55-.81-2 2-2 2-2s-1.3-1.18-2.74-2.73c-1.74-1.62-3.73-3.73-4.21-6.31-.81-4.77 3.84-5.4 3.84-5.4l22.56 6.95 27.58-1.37 23.51 11.7h.02Z" clip-rule="evenodd"/>
  <path fill="#6E6342" fill-rule="evenodd" d="M382.6 251.12s.73.92 1.18 3.1c.45 2.18.26 1.92.63 3.47.37 1.55 4.91 16.98 3.2 22.19-1.7 5.2-4.65 7.13-6.5 11.33-.36.93-.72 1.48-.92 2.3-.62 2.72-.07 4.83-.8 7.56-.26.93-.93 2-1.93 3.1-2.19 2.29-5.76 4.47-7.3 6.02-2.18 2.29-5.28 6.94-9.23 7.38-2.1.26-5.1-.63-7.57-2.1-2.19-1.37-3.54-3.29-5.84-4.38-1.62-.81-3.36-1.1-4.9-1.48-3.22-.63-6.14-.73-7.87-.37-2.66.56-8.94 2.48-12.42 2.48a33.8 33.8 0 0 1-8.04-1.11c-5.28-1.55-11.67-4.21-15.88-5.4-2.47-.72-4.47-.91-6.5-1.35-3.47-.82-6.38-1.93-8.05-4.03 1.11-1.3 2.48-3.29 9.86-3.21 8.38.18 18.06 4.83 22.82 5.57 4.76.74 6.83 1.37 12.14-.55 5.22-1.94 5.4-3.23 5.4-3.23s5.47-3.82 7.76-13.58 0-16.87-5.95-23.63c-1.55-1.74-1.18-3.29-1.18-3.29s-3.91-5.28-2.84-10.22c1.18-4.91 8.75-3.91 8.75-3.91l41.98 7.34Z" clip-rule="evenodd"/>
  <path fill="#39331F" fill-rule="evenodd" d="M376.28 267.55c.33.61.48 1.3.45 2-.08.99-.37 2.28-3.36 5.2-2.55 2.54-2 5.39-2 5.39s-1.28.25-4.76-1.37c-2.73-1.3-3.65 1-3.65 1a7.7 7.7 0 0 0-2.55-.82 5.57 5.57 0 0 1-2.28-.73s-3.22 3.29-6.02 4.84c-2.55 1.37-4.03 2.29-5.28 1.37-1.18-.82-1.18-2.48-1.1-3.22.28-.68.65-1.32 1.1-1.92.8-1.18 2.1-2.55 2.19-3.65.18-2.54-1.93-5.57-1.48-6.31.45-.74 2.1-.92 6.2.55 4.25 1.4 22.56-2.32 22.56-2.32l-.02-.01Z" clip-rule="evenodd"/>
  <path fill="#292311" fill-rule="evenodd" d="M366.61 284.05s2.1-2 1.37-11.67c-.9 0-1.79.08-2.66.26 0 0-1.15 7.5 1.29 11.41Z" clip-rule="evenodd"/>
  <path fill="#252211" fill-rule="evenodd" d="M381.6 243.74a5.2 5.2 0 0 1-.81-.74c.73 1.37 4.1 6.83 1.36 15.44-2.73 8.56-9.6 14.95-18.05 15.25-8.45.3-12.9-3.85-17.98-10.05-2-2.47-4.28-5.57-6.31-7.68-3.03-3.28-5.4-4.2-5.4-7.38 0-6.5 6.65-9.42 16.43-12.33 9.79-2.92 18.62-2.56 23.2-.56 4.46 2.17 6.38 4.47 7.56 8.05Z" clip-rule="evenodd"/>
  <path fill="#3F3824" fill-rule="evenodd" d="m350.18 286.97-.73-.37s-.18-2.92-1.36-2.85c-1.18.19-1.74 1.74-1.63 2.3.08.55.37 1.47 1.55 1.36 1.55.04 2.18-.44 2.18-.44Z" clip-rule="evenodd"/>
  <path fill="#2D2815" fill-rule="evenodd" d="M353.47 274.56s-.73-.25-1.63.63c-.72 0-3.9-.37-4.9.26-1 .63-1.3 1.18-1.3 1.18s3.73.81 5.76 0c2.07-.7 2.07-2.07 2.07-2.07Z" clip-rule="evenodd"/>
  <use xlink:href="#aq" fill-rule="evenodd" clip-rule="evenodd"/>
  <path fill="#2D2816" fill-rule="evenodd" d="M355.68 282.61s-.37-2.54-2.84-2.66c-2.55-.18-3.03 2.3-3.03 2.3l1.48 1.47c0-.04 1.1-1.59 4.38-1.1h.01Z" clip-rule="evenodd"/>
  <path fill="#574F35" fill-rule="evenodd" d="M339.62 271.64s1.37 1.48 4.4 1.93c.25-.38.8-1.11 0-2.29-.82-1.18-1.74-1.55-2.66-1.18a2.17 2.17 0 0 0-1.74 1.54Z" clip-rule="evenodd"/>
  <path fill="#82764F" fill-rule="evenodd" d="M334.05 273.46c-.08-.37.18-.45 0-.63-.18-.19-1.18-.56-1.37-.37-.07.07 0 .37 0 .73s0 .73.19 1c.25.36 1 .55 1.36.44.37-.11.44-.63.44-.73-.18-.07-.62-.26-.62-.44Zm-6.3-4c0-.18-.63-.55-1-.55-.56 0-.56.45-.63.56-.18.07-.18-.07-.37.26-.18.33-.44.92-.26 1.29.2.37.93.63 1.1.55a9.71 9.71 0 0 0 1.15-2.1Z" clip-rule="evenodd"/>
  <use xlink:href="#ar" fill-rule="evenodd" clip-rule="evenodd"/>
  <path fill="#585136" fill-rule="evenodd" d="M342.24 266.18c.19-.18-.55-.62-1-.55-.44.07-.62.37-1.1.44-.48.07-.55-.18-.73-.37-.18-.18-.81-.07-.92 0l-.19.26a1.03 1.03 0 0 0-.36-.73 1.17 1.17 0 0 0-1-.19c-.07.26-.44 1.19-.37 1.37.07.19 1.18.44 1.37.26-.19.44-1 1.37-1.11 1.55-.11.18.81.63 1.18.55.51-.03 3.7-1.88 4.24-2.58Zm-4.83-6.13c.07-.18.2-.34.37-.44.26-.07 1.1 0 1.1.44 0 .45-.73 2.92-1.55 4.21-.92 1.3-1.55 2.36-2.17 2.66a.86.86 0 0 1-1.11-.37c-.07-.18-.26-1.55-.19-4.76.08-3.21.19-6.32.37-6.5.19-.19.93-.18 1.18.19.26.36 1.92 4.02 2 4.57Z" clip-rule="evenodd"/>
  <path fill="#574F35" fill-rule="evenodd" d="M340.7 278.96s1.28-.82 2.54-.26c1.18.55 1.1 2.73 1.1 2.73a1.74 1.74 0 0 1-1.62-.18c-.81-.56-1.84-1.48-2.03-2.3Z" clip-rule="evenodd"/>
  <path fill="#82764F" fill-rule="evenodd" d="M338.26 281.87c.07-.73.73-.73.73-1.1a.83.83 0 0 0-.81-.63c-.37 0-.73.44-1.19.73-.44.26-1.1.73-1.18 1.3-.07.55.73 2.1 1.63 2.1.89 0 .63-1.67.81-2.4Zm-7.13-1s1.48.45 1.37 0c-.11-.44-.45-.55-.93-.55a1.46 1.46 0 0 0-.92-.44.8.8 0 0 0-.55.18s-1-.44-1.3-.18c-.29.26-.07.26-.25.55-.23.33-.39.71-.45 1.11 0 .3 1.11.92 2 .81 1.03-.22.85-1.29 1.03-1.47Zm-8.6-1.66s-.44.26-.07.56c.25.26 1.55.73 2.66.81 1.1 0 2.1.18 2.1-.18 0-.37-.93-1.11-1.48-1.3a1.19 1.19 0 0 0-.92-.44c-.44 0-2.18-.18-2.66-.26-.44-.07-.81.19-.55.56.1.25.92.25.92.25Zm-2.55-11.4s.56 1.19 1.18 1.19c.63-.08.63-.26.63-.45 0-.26-.63-.92-.55-1.1.18 0 .63 0 .55-.45 0-.37-.63-.81-1.18-.73a2.43 2.43 0 0 0-1.48-.55c-.63 0-1.18.18-1.18.55 0 .37.73 1.18 1 1.37.3.3.66.49 1.03.18Zm8.42 21.82s.73.08.73.45c0 .18-.18.18-.44.07-.15 0-.3-.03-.44-.07-.08.07-.08.44-.63.44-.46-.06-.9-.21-1.3-.44-.44-.19-.8-.37-.8-.73.18-.63.55-.93 1.1-.93.28-.02.56.05.81.19 0 0 .19-.37.81 0 .63.37.56.37.37.55-.33.3-.22.49-.22.49l.01-.02Zm4.17 3.84c0-.18-.92-.55-1.18-.44-.26.07-1 1.48-1 1.62 0 .19.93.63 1.3.63s1-.63 1-.73c0-.07-.45-.18-.45-.26-.1-.18.33-.62.33-.8v-.02Zm2.92-5.39c-.18-.07-.18-.25-.44-.44a.63.63 0 0 0-.55-.07.9.9 0 0 0-.63-.45c-.45-.07-.82 0-.73.19 0 .55-.37.92-.37 1.36 0 .44.25 1 1.18 1.37.92.26 2.18.26 2.36.18.19-.07.37-.8.19-1.18-.19-.37-.7-.77-1-.96Z" clip-rule="evenodd"/>
  <path fill="#6E6342" fill-rule="evenodd" d="M334.32 288.33s.62.37.62.56c.06.18.08.36.08.55 0 .11-.82-.07-.93-.18-.03-.08.23-.73.23-.93Z" clip-rule="evenodd"/>
  <use xlink:href="#as" fill-rule="evenodd" clip-rule="evenodd"/>
  <path fill="#574F35" fill-rule="evenodd" d="M340.25 286.97s1.18.92 1.48 1.37c.37.44 2.17 2.73 2.73 3.2a8.3 8.3 0 0 0-.63-.92 3.78 3.78 0 0 1 1.55 2c.45 1.37-2.47 2.1-4.39 2.66a64.8 64.8 0 0 1-2.66.73c.7-1.06 1.31-2.19 1.81-3.36.73-1.74 1.1-1.92.63-2.73-.37-.82-.93-1.37-.93-2 .22-.58.41-.95.41-.95Z" clip-rule="evenodd"/>
  <path fill="#252211" fill-rule="evenodd" d="M382.34 289.89a2.2 2.2 0 0 1-.81 0c-.56-.08-6.32-2.2-12.33-1.81-4.51.27-8.98 1-13.33 2.19-7.57 2-16.99 5.94-23.08 8.2-1.62.62-3.21 1.73-4.38 2.17-4.65 1.8-4.83 1.8-7.57 2.29-3.21.44-6.5-.63-9.93-1.36-4.21-.93-11.4-1.38-17.72-2.3a36.16 36.16 0 0 1-6.02-1.36s5.02 5.02 17.06 6.83c4.87.74 9.81.8 14.7.18 3.83-.37 6.38-.92 8.3-1.48 2.18-.62 6.64-2.28 12.14-3.65 3.85-1 8.13-1.73 13.04-2.65 12.1-2.22 25.25-4.77 29.93-7.24v-.01Z" clip-rule="evenodd"/>
  <path fill="#CFB66C" fill-rule="evenodd" d="M412.06 292.91a129.56 129.56 0 0 0-5.1-4.76l-2.65-2.29a61.44 61.44 0 0 1-2.55-2.36c-1.62-1.63-3.21-3.36-4.84-5.02a27.1 27.1 0 0 0-2.55-2.36c-.44-.4-.94-.74-1.47-1-.44-.26-.92-.73-1.55-.82.36.56.81.82 1.18 1.3.44.36.81.8 1.18 1.17.81.82 1.74 1.56 2.55 2.3 1.73 1.47 3.54 2.92 5.28 4.46 1.73 1.55 3.36 3.21 5.1 4.76 1.88 1.6 3.61 3.14 5.42 4.63Zm-22.08-14.77s12.04 11.78 14.51 13.7l-14.5-13.7Z" clip-rule="evenodd"/>
  <path fill="#CFB66C" fill-rule="evenodd" d="M389.98 278.14a39.27 39.27 0 0 0 3.48 3.55l3.65 3.47c1.18 1.18 2.28 2.36 3.54 3.54 1.3 1.1 2.47 2.2 3.84 3.21l-3.54-3.47c-1.19-1.18-2.48-2.17-3.73-3.36l-3.55-3.47a54.29 54.29 0 0 0-3.69-3.47Zm-.55 6.39a76.92 76.92 0 0 0 3.91 9.05c3.1 6.2 7.75 13.95 9.79 17.9l-13.7-26.95Z" clip-rule="evenodd"/>
  <path fill="#CFB66C" fill-rule="evenodd" d="M389.43 284.53c0 1.37.37 2.55.81 3.73.43 1.18.93 2.34 1.48 3.47.55 1.1 1.18 2.3 1.8 3.36.64 1.07 1.37 2.18 1.93 3.29l3.73 6.57c1.29 2.19 2.55 4.4 3.91 6.5-.92-2.36-2.18-4.58-3.36-6.76-1.3-2.19-2.47-4.38-3.65-6.64a37.64 37.64 0 0 1-1.55-3.47c-.55-1.19-1.1-2.3-1.55-3.36-.56-1.19-1-2.3-1.55-3.36-.63-1.15-1.15-2.26-2-3.33Z" clip-rule="evenodd"/>
  <path fill="#DEC270" fill-rule="evenodd" d="M376.28 314.8s3.66 4.84 3.29 10.97c-1-3.21-2.25-8.12-3.29-10.96Zm-3.47 4.85s1.3 13.15 2.36 19.6c-1.5-7.46-1.8-6.83-2.36-19.6Zm-24.18 20.38s5.47 16.07 5.57 20.53c-1.18-4.59-3.46-13.97-5.57-20.54v.01Z" clip-rule="evenodd"/>
  <path fill="#CBAF59" fill-rule="evenodd" d="M335.86 313.81s-8.86 14.62-15.51 27.1c1.8-6.28 5.94-17.8 15.5-27.1Z" clip-rule="evenodd"/>
  <path fill="#E3C677" fill-rule="evenodd" d="M312.04 335.33a268.78 268.78 0 0 0-13.14 26.55c.74-6.28 2.73-17.02 13.14-26.55Z" clip-rule="evenodd"/>
  <path fill="#ECD592" fill-rule="evenodd" d="M242.04 356.89c-1.47-.92-4.39-5.95-6.94-7.2-2.54-1.29-4.46-1.55-6.75-4.1-2.3-2.66-2.92-4.28-7.94-6.38-7.02-3.03-2.2-6.95-2.2-6.95a21.47 21.47 0 0 0-2.46-2.1c-1.81-1.36-3.92-3.03-3.74-5.95.26-4.9 1.19-12.03 5.21-16.17-3.91-.8-11.4-1.36-16.06-2.54-5.39-1.37-7.87-3.29-7.87-3.29s3.1-5.28-1.92-10.6c-5.02-5.3-9.12-8.49-12.14-14.43 3.47-.44 8.76-2.29 22.26 2.84-.73.35-1.43.74-2.1 1.18 0 0 8.3 2.3 11.33 4.84 5.28 4.47 5.95 8.12 11.67 10.85 5.72 2.74 11.48 2 16.24 4.22 4.76 2.21 5.47 4.1 7.2 4.9-.37.45.07 1.19-.63 1.81.45.63 3.03 4.84 5.65 4.84-.25 1-2.47 1.73-2.47 1.73s1.62 1.19 5.76 1.48c-2.1 2.2-4.1 4.58-9.6 8.05.44.93 2.29 2.29 1.55 4.02-.81 1.74-2.92 4.1-11.33 6.02 4.28.19 9.3 1.18 16.06.26 6.75-.81 7.86-1.29 12.03-.26-.44.45-1.62.45-2.65 1.63 1.1.07 8.05-.82 10.4 2.29 2.48 3.21 3.55 8.5 3.37 12.03 1.29.63 2.54 1.74 1.92 4.03-.63 2.29-3.92 3.02-6.02 4.46-2.1 1.55-2.29 2.1-4.29 1.74-2.1-.44-5.2-2.55-7-2.55-1.82 0-3.11 1.37-3.11 1.37s-4.91-2.36-5.4-1.92c-.43.44-.06 3.28-.54 3.73-.49.33-6.02-2.95-7.5-3.88h.01Z" clip-rule="evenodd"/>
  <use xlink:href="#b" fill-rule="evenodd" clip-rule="evenodd"/>
  <use xlink:href="#c" fill-rule="evenodd" clip-rule="evenodd"/>
  <use xlink:href="#d" fill-rule="evenodd" clip-rule="evenodd"/>
  <use xlink:href="#e" fill-rule="evenodd" clip-rule="evenodd"/>
  <use xlink:href="#f" fill-rule="evenodd" clip-rule="evenodd"/>
  <use xlink:href="#g" fill-rule="evenodd" clip-rule="evenodd"/>
  <use xlink:href="#h" fill-rule="evenodd" clip-rule="evenodd"/>
  <path fill="#E5CB7A" fill-rule="evenodd" d="m410.94 420.24-.1-.84c-1.1-9.5-1.3-16.69-2.1-21.2-1.18-6.38-2-8.75-1.81-11.14.26-3.84.55-6.65.18-9.6-.55-3.92-4.39-8.57-4.28-11.78.07-2.55 1.37-4.2 2.47-5.76 1.11-1.55-.55-2.76-.55-2.76s-5.02-5.28-4.95-26.26c-.15.05-.3.1-.44.19l-3.73 10.6-2.55 3.1-9.78 18.23-12.6 12.22-18.6 12.52-11.67 12.7-1.18 33.85 15.25 19.79 2.5 4.52a216.87 216.87 0 0 0 53.94-38.38Z" clip-rule="evenodd"/>
  <path fill="#D8C173" fill-rule="evenodd" d="M386.29 440.9s-.26-3.76-3.73-6.2c-.56.82-.93 1.61-.81 2.2-.63-.98-5.02-7.32-14.96-8.97-9.93-1.61-12.33-8.08-12.33-8.08l-21.08-17.11-24.1-19.82-29.32-9.2-13.7-3.01s-.26.9.26 2.87c-2.55-.16-8.2-1.32-14.07-3.16-2.36-.83-4.58-1.16-5.76-.07-1.73 1.45-2 4.88-2.1 6.92-2.84-.56-6.13-3-8.76-2.77-4.21.4-7.94 4.82-12.23 4.82-5.64 0-8.19-3.1-12.14-5.54-2.37-1.45-5.76-3.26-7.68-4.49-4.58-3-53.02-16.23-53.02-16.23l-16.98 1-2.73 16.29 1.46 42.59.54.47 77.22 36.03L317.3 464.1a232.36 232.36 0 0 0 68.43-21.03l.55-2.18Z" clip-rule="evenodd"/>
  <use xlink:href="#i" fill-rule="evenodd" clip-rule="evenodd"/>
  <use xlink:href="#j" fill-rule="evenodd" clip-rule="evenodd"/>
  <use xlink:href="#k" fill-rule="evenodd" clip-rule="evenodd"/>
  <use xlink:href="#l" fill-rule="evenodd" clip-rule="evenodd"/>
  <use xlink:href="#m" fill-rule="evenodd" clip-rule="evenodd"/>
  <use xlink:href="#n" fill-rule="evenodd" clip-rule="evenodd"/>
  <use xlink:href="#o" fill-rule="evenodd" clip-rule="evenodd"/>
  <use xlink:href="#p" fill-rule="evenodd" clip-rule="evenodd"/>
  <path fill="#D2B159" fill-rule="evenodd" d="M345.27 403.34s.48-1.78 7.25-8.83c1.92-2 3.35-4.6 4.64-5.79 3.21-3.03 5.1-3.84 7.38-5.57 5.02-3.73 10.49-3.73 14.7-8.31 4.2-4.58 9.1-13.33 12.51-22.26 3.36-8.94 4.29-11.78 4.29-12.04 0-.26-.93-2-2.1-1.74-1.19.26-1.19 2.55-1.49 3.1-.58.91-1.25 1.76-2 2.55-1.72 2-4.2 4.38-5.45 7.94.26-3.03 1.29-6.39 1.29-6.39s-6.5 4.1-12.04 8.38c-5.57 4.29-7.86 5.76-9.49 8.5-1.63 2.73-5.46 9.93-7.3 12.03-1.84 2.1-27.01 10.04-27.01 10.04l-11.98 8.94-5.95 13.03 4.66 7.3 8.93 1.92 14.51-6.5 4.65-6.3Z" clip-rule="evenodd"/>
  <path fill="#C2A44D" fill-rule="evenodd" d="M377.5 358.44s-3.02 4.84-10.4 9.42c-6.65 4.02-17.18 7.68-26.56 9.86-5.38 1.3-10.78 2.29-15.61 2.36-13.03.18-22-3.54-33.12-4.76-6.02-.63-13.4-1.1-21.08-2.92-9.86-2.36-15.7-5.02-23.63-8.76-5.76-2.66-11.04-4.65-15.32-7.2-6.02-3.55-10.41-7.5-15.5-8.68.62 1.74 1.28 4.84 6.3 8.05-2.65-.07-6.3-.26-6.3-.26s3.54 2.1 9.78 6.83c3.84 2.92 8.93 7.87 14.14 11.15 3.35 2.1 7.01 3.65 9.41 4.91 5.84 3.22 8.2 4.84 12.04 8.76-1.37-.07-1.48 0-1.48 0s4.84.63 8.3 2.48c.74 0 2-.26 4.22.37 1.73.55 4.02 1.8 6.38 2.47 3.36 1 4.47.56 4.47.56l-.55 1.1s4.38-.07 5.84.08c-.26.07-.19.18-.19.18.26.04.5.13.73.26.7.45 1.48.8 2.29 1 .44.07.81.07 1.37.18-.19.44-1.63 2.92-2.3 4.38.56.37 8.87 6.65 8.87 6.65-.26.4-.47.84-.63 1.29-.26.8-.37 2-.63 2.54-.62 1.11-1 1.3-1 1.3s1 .18 2.74.63c1.48.37 3.29 1 5.84 1.36.79.1 1.57.17 2.36.19-.36.8-1.99 3.9 1 7.5 3 3.57 3.92 4.09 4.84 6.38.46-.35.96-.66 1.48-.93 1-.44 2.36-1.1 2.84-2a23.7 23.7 0 0 0 1.1 3.48c.93 2.47 2.3 4.91 2.55 6.76 1-1.11 2.85-3.29 5.4-2.85 2.54.45 4.57 3.92 5.01 4.91 0-.62.68 1.52.79 2.26.07.8-2.07 6.9 5.76 13.78.07-1.74 3.38-5.81 3.57-7.06.73.73 1.85 2.8 7.17 5.1 5.2 2.28 4.15 3.57 4.15 3.57s-.44-3.34-3.25-7.19c-2.84-3.83-3.7-5.95-3.7-6.25.06-.3.18-.58.38-.81.37-.37.03-1.43.03-1.72a5.9 5.9 0 0 1-3.5-6.03 11.78 11.78 0 0 1 3.1-7.39c.18-.18-1.74-1.55-1.48-1.99.19-.26 2.55-2 2.84-2.92a8.6 8.6 0 0 0-.37-1.62c-.25-.82-.44-1.37-.37-1.92.19-.93 1.19-3.47 1.48-3.73-.26.07-2.1 0-2.1 0s1.47-2.36 1.73-3.47c.26-1.11.82-4.03 1.11-4.58-.63.07-1 .11-1.8-.3.54-.83.75-1.66.54-2.11-.2-.3-.78.17-1.8 1.04.67-1.16.53-2.65 2.24-3.74-.73-.25-3.2-.92-5.39.37-2.18 1.3-2.92 3.1-2.92 3.1s-1.29 1-3.28 2.48c-2.3 1.8-5.2 4.38-9.86 6.2-1 .55-3.55.55-5.4.18a8.2 8.2 0 0 1-2.28-.92 4.19 4.19 0 0 0-.81-.37c.4-.8.85-1.56 1.36-2.29-.63 0-1.36.08-1.36.08s-.45-1 1.55-2.93c-.45-.44-1-.73-1-1.47.63-.07 1.73-1 2-1.37-.38-.25-.93-1.1-1.56-1.36.56-.44 1.92-2.29 2.55-2.47-.6-.23-1.18-.5-1.74-.82 0 0 3.1-.81 4.1-1.48 1-.73 2.48-1.99 3.36-2.36.93-.37 2.55-.55 3.21-1.3-.62.2-1.62 0-2.36 0-.55 0-.81.08-1 .08.08-.26.08-.81-1.36-1-.7-.1-1.37-.3-2-.62 0 0 1.37-.07 2.92-1.55 1.56-1.48 2.85-2.66 3.73-2.84.93-.19 2.66.62 3.73.55 1.48-.18 2.1-.92 2.1-.92s4.92.44 15.8-6.2c9.42-5.77 13.52-10.86 13.52-10.86a16.2 16.2 0 0 0 2.55-1.18c3.54-1.85 8.45-5.69 8.3-10.71l.02.03Z" clip-rule="evenodd"/>
  <use xlink:href="#q" fill-rule="evenodd" clip-rule="evenodd"/>
  <use xlink:href="#r" fill-rule="evenodd" clip-rule="evenodd"/>
  <use xlink:href="#s" fill-rule="evenodd" clip-rule="evenodd"/>
  <path fill="#CEB052" fill-rule="evenodd" d="M365.98 453.85v-.41c-.3-.2-.58-.44-.8-.73-.27-.37-.45-.81-.64-.92-.37-.19-2.1-.73-3.02-.56-.93.18-3.37 1.18-4.66 1.11-2.66-.07-5.75-2.1-10.67-1.18-7.38 1.36-9.12 6.38-13.4 9.23-2.92 2-5.94 1.1-6.39 1.1h-1c-.18 0-1.54-1.55-2.28-1.47-1.48.07-1.62 1.3-2.55 1.37-2.18.25-6.39-1.11-8.5-.56a4.06 4.06 0 0 0-1.65 6.76c2.29 2.1.16 1.04.6 2.79-.56.43-1.65-4.24 4.7.28 18.27-4.66 33.83-7.55 50.26-16.79v-.02Z" clip-rule="evenodd"/>
  <use xlink:href="#t" fill-rule="evenodd" clip-rule="evenodd"/>
  <use xlink:href="#u" fill-rule="evenodd" clip-rule="evenodd"/>
  <use xlink:href="#v" fill-rule="evenodd" clip-rule="evenodd"/>
  <use xlink:href="#w" fill-rule="evenodd" clip-rule="evenodd"/>
  <use xlink:href="#x" fill-rule="evenodd" clip-rule="evenodd"/>
  <use xlink:href="#y" fill-rule="evenodd" clip-rule="evenodd"/>
  <use xlink:href="#z" fill-rule="evenodd" clip-rule="evenodd"/>
  <use xlink:href="#A" fill-rule="evenodd" clip-rule="evenodd"/>
  <path fill="#F4EFC8" fill-rule="evenodd" d="M398.29 227.82s.92-2.28 0-6.75c-.92-4.47-2.37-6.57-2.85-13.15-.47-6.57-4.76-14.76-4.76-14.76l-11.85-5.4-8.38 2.3-2.47 11.22 10.6 5.84s.55 2.47 3.54 4.47c2.99 2 7.12 3.54 8.12 5.57.6 1.25 1.24 2.22 1.5 3.57 0 0 2.2-.09 4.01 1.9.65 2.25 1.71 2.86 2.33 4.18l.2 1.01Z" clip-rule="evenodd"/>
  <use xlink:href="#B" fill-rule="evenodd" clip-rule="evenodd"/>
  <use xlink:href="#C" fill-rule="evenodd" clip-rule="evenodd"/>
  <use xlink:href="#D" fill-rule="evenodd" clip-rule="evenodd"/>
  <use xlink:href="#E" fill-rule="evenodd" clip-rule="evenodd"/>
  <use xlink:href="#F" fill-rule="evenodd" clip-rule="evenodd"/>
  <use xlink:href="#G" fill-rule="evenodd" clip-rule="evenodd"/>
  <use xlink:href="#H" fill-rule="evenodd" clip-rule="evenodd"/>
  <use xlink:href="#I" fill-rule="evenodd" clip-rule="evenodd"/>
  <use xlink:href="#J" fill-rule="evenodd" clip-rule="evenodd"/>
  <use xlink:href="#K" fill-rule="evenodd" clip-rule="evenodd"/>
  <path fill="#E6C367" fill-rule="evenodd" d="M341.54 143.43s3.73.92 10.67 4.57a115.6 115.6 0 0 0 6.57 3.1c5.47 2.48 10.16 4.7 14.82 5.97.51.3.62.68.62.68s.34-.02.64 3.36c3.45 4.83 6.55 5.06 4.37 21.86-.44 1.21-3.21-.62-3.47-.62-.44.07-.82.73-1.36.61-1.03-.2-2.15-.4-4.07-2.88.07 1 .97 10.71-4.97 17.47a92.95 92.95 0 0 1-3.92-5.58l-.07-1.36s-.26-4.77-1.81-9.12a24.13 24.13 0 0 0-4.58-7.57l-15.8-22.56 2.37-7.94Z" clip-rule="evenodd"/>
  <use xlink:href="#L" fill-rule="evenodd" clip-rule="evenodd"/>
  <use xlink:href="#M" fill-rule="evenodd" clip-rule="evenodd"/>
  <use xlink:href="#N" fill-rule="evenodd" clip-rule="evenodd"/>
  <use xlink:href="#O" fill-rule="evenodd" clip-rule="evenodd"/>
  <use xlink:href="#P" fill-rule="evenodd" clip-rule="evenodd"/>
  <use xlink:href="#Q" fill-rule="evenodd" clip-rule="evenodd"/>
  <use xlink:href="#R" fill-rule="evenodd" clip-rule="evenodd"/>
  <use xlink:href="#S" fill-rule="evenodd" clip-rule="evenodd"/>
  <use xlink:href="#T" fill-rule="evenodd" clip-rule="evenodd"/>
  <use xlink:href="#U" fill-rule="evenodd" clip-rule="evenodd"/>
  <use xlink:href="#V" fill-rule="evenodd" clip-rule="evenodd"/>
  <use xlink:href="#W" fill-rule="evenodd" clip-rule="evenodd"/>
  <use xlink:href="#X" fill-rule="evenodd" clip-rule="evenodd"/>
  <use xlink:href="#Y" fill-rule="evenodd" clip-rule="evenodd"/>
  <use xlink:href="#Z" fill-rule="evenodd" clip-rule="evenodd"/>
  <path fill="#B18E3E" fill-rule="evenodd" d="M195.49 139.84s.63.44-.63 1.3c.18.25.63 1.18 1.18 1.8.63.73 1.3 1.19 1.55 1.81.56 1.3 1 2.18 1 2.74 0 .55.18 4.1 1.73 6.38.56.82 1.19 2.18 1.63 3.1.92 1.63 1.73 2.92 1.92 3.65.36 1.3.63 4.84.63 4.84l-1.11-1.36c.44.92.92 1.91 1.62 2.65-.44-.37-1.73-1.29-3.91-3.21-3.03-2.55-7.75-6.83-13.51-10.22 1.73.63 3.2.63 4.39.81-.93-.92-5.7-7.28-10.05-8.2-.26-.34-3.16-1.4-3.53-2.58l2.94-.84 7.42.69 1.67-6.43 5.06 3.06v.01Z" clip-rule="evenodd"/>
  <path fill="#543E26" fill-rule="evenodd" d="M183.45 173.07s1 1 1.92 3.47c.71-.74 1.32-1.57 1.81-2.47 1.36-2.3 3.47-5.21 8.38-3.55.07-1.55.19-2.36 0-3.47-.81-.18-4.16-1.94-6.64-4.86-1.73-2-2.48-4.52-3.59-7.43-.73-.56-2-1.48-3.65-2.55-2.36-1.62-6.9.5-7.34-1.98 1.1.44-3.9-1.79-.36-1.97-1.37-.63 11.16 3.36 11.42.63-.56-.37-6.56-6.28-6.56-6.28.42-.14.85-.2 1.29-.18.08-.26.16.07.79.26.62.18 1.25-.02 1.34.24.25.07.81-.03 1.44.4.63.46 1.72 2.25 2.38 2.5-.26-.43.64-2.47.64-2.47s.98.77 2.28 1.31c2.36.82 5.09 2.3 7.86 3.73-.26-.44-.37-.73-.55-.81-.19-.08-.63-.18-.63-.26 0-.07-.81-.85-.93-1.11-.82-1.75-.8-3.32-1.92-4.9-1.29-1.74-1.55-4.22-1.55-4.22l-5.65-2.84-15.87-3.65-10.3.63 1.28 7.13 6.09 12.44 5.2 11.33 5.95 6.95 5.47 3.98Z" clip-rule="evenodd"/>
  <path fill="#806031" fill-rule="evenodd" d="M157.72 142.23s4.8 4.46 6.53 5.65a312.33 312.33 0 0 0-9.88-17.83c.55-.44 2.17.26.43-6.6 1.48 3.47 2.46 4.05 3.68 4.97 1.22.93.9 1.86 1.72 1.86-.15-.28-.22-.6-.18-.93 0 0 5.15-1.67 8.7-1.67 3.56 0 10.66 2.97 14.57 4.52 3.1 1.29 4.84 1.29 5.95 2.1 1.1.92 1.55.34 2.11.6.44.26 2.72 2.5 3.2 3.2.45.73 1.18 1.55 1.18 1.74 0 .18-.31 1.48-.87 1.3-.18-.08-1.05-1.85-2.6-2.78a85.46 85.46 0 0 0-6.5-3.36c-5.28-2.1-7.81-1.32-10.18-1.77-2.47-.44-5.14-1.88-7.5-1.88a70.3 70.3 0 0 0-7.86.18c.44.37.81.81.63 2.36 0 .45.37.93.73 2a171.2 171.2 0 0 0 4.38 10.6c1.62 3.46 3.46 6.38 4.38 8.19.91 1.8 2.92 6.57 4.9 9.12 2 2.55 3.03 4.1 3.66 4.65.62.56 5.1 3.84 4.76 5.02-.81-.26-5.77-3.71-9.67-6.38-4.63-3.18-4.24-7.64-7.15-9.93-2.92-2.29-6.15-4.66-7.51-7.84-1.15-2.95-1-4.22-2.44-6.84l-.12 1.05.95-1.3Z" clip-rule="evenodd"/>
  <use xlink:href="#aa" fill-rule="evenodd" clip-rule="evenodd"/>
  <use xlink:href="#ab" fill-rule="evenodd" clip-rule="evenodd"/>
  <use xlink:href="#ac" fill-rule="evenodd" clip-rule="evenodd"/>
  <use xlink:href="#ad" fill-rule="evenodd" clip-rule="evenodd"/>
  <use xlink:href="#ae" fill-rule="evenodd" clip-rule="evenodd"/>
  <use xlink:href="#af" fill-rule="evenodd" clip-rule="evenodd"/>
  <use xlink:href="#ag" fill-rule="evenodd" clip-rule="evenodd"/>
  <use xlink:href="#ah" fill-rule="evenodd" clip-rule="evenodd"/>
  <path fill="#252211" fill-rule="evenodd" d="M268.33 208.14s1.48 2.3 1.48 5.95c0 3.73-2.1 9.67-9.86 10.11-5.94.37-9.93-8.56-14.25-12.03-3.29-2.66-5.28-2.73-5.28-2.73s4.23-2.13 13.2-6.86c8.86-4.76 15.63-3.64 23.31.4-2.55-.19-10.78-2.3-10.78-2.3l-4.02 1.3 6.2 6.17Z" clip-rule="evenodd"/>
  <use xlink:href="#ai" fill-rule="evenodd" clip-rule="evenodd"/>
  <use xlink:href="#aj" fill-rule="evenodd" clip-rule="evenodd"/>
  <use xlink:href="#ak" fill-rule="evenodd" clip-rule="evenodd"/>
  <path fill="#EAC970" fill-rule="evenodd" d="m360.52 189.61 1.32 2.02s-.03-1.53-.4-4c-.36-2.48-2.29-8.5-5.1-11.97-2.8-3.47-2.73-3.29-2.73-3.29a1.86 1.86 0 0 1 1.48.37c-.37-.82-2.73-3.74-5.1-5.2-2.36-1.46-3.28-1.92-5.75-.73-2.48 1.2-3.1 1.81-4.92 1.74-1.8-.07-3.35-2-3.35-2s-.37 1.19 1 3.92c1.35 2.73 6.75 8.3 6.75 8.3l11.22 7.68 5.58 3.17-.15.13.15-.14Z" clip-rule="evenodd"/>
  <use xlink:href="#al" fill-rule="evenodd" clip-rule="evenodd"/>
  <use xlink:href="#am" fill-rule="evenodd" clip-rule="evenodd"/>
  <use xlink:href="#an" fill-rule="evenodd" clip-rule="evenodd"/>
  <use xlink:href="#ao" fill-rule="evenodd" clip-rule="evenodd"/>
  <path fill="#252211" fill-rule="evenodd" d="M362.62 193.27s-3.65-4.84-6.94-5.95c-3.29-1.11-4.76-.44-4.76-.44l1.92 4.9 2.73 3.04-.18 1.55s.44 4.1-2.29 6.94c-2.73 2.84-4.76 2.73-5.95 2.73-1.18 0-4.57-1-6.3-5.1-1.56-3.83-2.85-8.76.25-13.7 3.03-4.9 12.74-2.8 13.77-2.8 1.04 0 4.46.99 8.18 8.64l.5.95-.93-.76Z" clip-rule="evenodd"/>
  <path fill="#F7F7E7" fill-rule="evenodd" d="M269.1 212.73c1.12-.66.05-4.74-1.07-6-1.13-1.26-2.56-2.7-5.07-2.9-.9-.09-1.8.66-1.64 1.44.21 1.46 1.8 3.5 3.23 4.95 1.98 2 3.26 3.26 4.54 2.51Z" clip-rule="evenodd"/>
  <path fill="#F8F6DE" fill-rule="evenodd" d="M342.83 190.94c-1-.07-2.29.73-2.55 1.81-.25 1.18.63 3.55 2.55 3.55 1.55 0 2.68-2.16 2.68-2.7-.02-.46-.04-1.43-1.01-2.27-.2-.01.07-.2-1.67-.39Z" clip-rule="evenodd"/>
  <use xlink:href="#ap" fill-rule="evenodd" clip-rule="evenodd"/>
  <path fill="#E2D59D" fill-rule="evenodd" d="M356.75 189.43c.45.25 1.18.62 1 1.1-.18.45-1.73.73-2.29 1.81a3.87 3.87 0 0 0-.44 2.85 4.48 4.48 0 0 1-1.3-.93c-.8-.92-.88-1.71-1.73-1.71-.55 0-2.14.11-2.55-.2-.36-.28-.85-.61-.58-1.77-.18-1.1-.23-.48-.34-2 .5-1.04.8-1.53 2.1-1.81 1.08-.24 3.36.55 3.92.92a51.6 51.6 0 0 1 2.21 1.74Z" clip-rule="evenodd"/>
  <path fill="#CBAC5A" fill-rule="evenodd" d="m298.09 267-5.47-1.62-1.55 1.1s-1.1 2.37-2.84 2.66c.56 1.19 2 2.2 1.92 3.03a2.56 2.56 0 0 1-.81 1.48s4.91 8.12-4.76 16.3c2.28.93 5.2 2.2 6.75 2.93-1.1.25-3.47.73-4.46 1.62-1 .9-.75.86-1.67 1.41-.93.56-1.73 1.62-1.55 1.95.63-.37 2.74-1.47 3.1-.44.37 1.03 9.12.63 9.12.63l14.77 2.84s-.55-1.48 1-2.84c1.8-1.63 4.02.07 6.38-1.74 3.1-2.36 3.22-5.1 4.21-6.13-1-.63-3.02-1.55-7.86-2.19.19-.37.81-1.48.44-2.47-.44-1.29-2.29-2.1-1.73-3.65-.81-.19-1.18-.19-3.21-2.73-1.93-2.55-3.1-3.1-4.58-3.29-1.48-.19-2.37 0-5.1-2.55-1.92-1.8-1.3-3.36-1.3-3.36s-1.25-.4-.8-2.95Z" clip-rule="evenodd"/>
  <path fill="#DFC677" fill-rule="evenodd" d="M284.5 296.75s-7.57 4.1-10.3 9.12a3.96 3.96 0 0 0 1.18 5.58s-4.28 0-3.73 2.36c.26 1.48 7.39 5.46 12.15 7.57 4.83 2.1 4.65 2 7.01 2.36 2.3.37 8.57-.73 9.86 1.1 1.3 1.85.73 3.74.37 4.03-.37.26-3.36.63-3.36.63s.63 1.77 6.83 1.92c3.18.08 4.06.45 4.43 1.12.37.62-.33.9-.33.9-2.84.45-4.6 2.62-4.6 2.62s1.26 1.81 3.66.96c3.84 1 7.52 1.24 9.33 2.35 0 1.06-1.34 1.02-1.82 1.45 1.55.37-4.14-1.65 2.32 1.34-.55.36.48.95.48.95s3.1 3.73 4.91 4.65c1.81.93 12.22 5.76 15.8 4.84 8.94-2.36 9.13-5.62 11.23-8.67 3.11-2.06 5.83-3.11 8.75-4.66 1.16-1.7 3.4-1.87 1.18-3.98 5.24-3.75 4.9-4.48 4.9-4.48 1.62-1.28 1.36-2.66 2.33-4.31 1.49-2.55 3.66-5.95 5.29-8.94 3.54-6.57 3.73-9.6 6.94-13.33-.56-.73-2.47-.63-2.47-.63l-26.92 8.86-47.73 1.39-12.41-17.72-5.28.62Z" clip-rule="evenodd"/>
  <path fill="#C4A859" fill-rule="evenodd" d="M361.06 317.26c-.38.49-.4 1.47-.9 1.8-.96 1.44-.07.84-3.83 1.61-1.86.08-1.89-1.73-4.05.66-2.17 2.4-2.82.69-5 .71-1.71.69-4.28-.46-4.28-.46s-.9.15-2.88.95c-3.42.09-2.9-.97-4.61-1.54-1.57-.4-5.89 1.59-9.2 2.79-3.62-1.05-.23 1.88-15.79-5.18-14.68-6.6-16.5-4.5-19.81-4.48-.25-.68-2.9-1.14-4.98-3.67-5.97-12.25-.53-14.55-.53-14.55l21-.36h9.48l28.42 6.03L359.85 312l1.43 5.12-.22.14Z" clip-rule="evenodd"/>
  <path fill="#6E6342" fill-rule="evenodd" d="M382.6 251.12s.73.92 1.18 3.1c.45 2.18.26 1.92.63 3.47.37 1.55 4.91 16.98 3.2 22.19-1.7 5.2-4.65 7.13-6.5 11.33-.36.93-.72 1.48-.92 2.3.38 2.62.2 5.3-.52 7.85-.26.92-1.21 1.7-2.2 2.81-2.2 2.29-5.77 4.47-7.3 6.02-2.19 2.29-3.9 5.66-7.86 6.1-2.1.25-6.47.65-8.95-.82-2.19-1.37-3.54-3.29-5.84-4.38-1.62-.81-3.7-.5-5.26-.88a26.55 26.55 0 0 0-8.77-.16c-2.66.55-7.68 1.67-11.16 1.67a33.8 33.8 0 0 1-8.04-1.11c-5.28-1.55-11.67-4.21-15.88-5.4-2.47-.72-4.47-.91-6.5-1.35-3.47-.82-6.38-1.93-8.05-4.03 1.11-1.3 2.48-3.29 9.86-3.21 8.38.18 18.06 4.83 22.82 5.57 4.76.74 6.83 1.37 12.14-.55 5.22-1.94 5.4-3.23 5.4-3.23s5.47-3.82 7.76-13.58 0-16.87-5.95-23.63c-1.55-1.74-1.18-3.29-1.18-3.29s-3.91-5.28-2.84-10.22c1.18-4.91 8.75-3.91 8.75-3.91l41.98 7.34Z" clip-rule="evenodd"/>
  <path fill="#292311" fill-rule="evenodd" d="M367.75 282.2s2.1-1.99 1.36-11.66c-.9-.01-1.78.07-2.66.26 0 0-1.14 7.5 1.3 11.4Z" clip-rule="evenodd"/>
  <path fill="#252211" fill-rule="evenodd" d="M380.62 245c0-.03.83 1.76.57 1.5.76 1.36 2.67 4.53-.16 13.14-2.83 8.56-9.93 14.95-18.68 15.24-8.75.3-15.87-2.8-19.74-8.7-4.14-4.18-3.8-5.63-5.9-7.74-3.32-1.7-5.07-5.49-5.07-8.66 0-6.5 6.87-9.42 17-12.33 10.12-2.92 19.25-2.56 23.98-.56 4.63 2.17 6.7 4.35 7.92 7.93l.03.07.05.11Z" clip-rule="evenodd"/>
  <path fill="#3F3824" fill-rule="evenodd" d="m343.16 286.12-.73-.37s-.18-2.92-1.37-2.84c-1.18.18-1.73 1.73-1.62 2.29.07.55.36 1.47 1.55 1.36 1.55.04 2.18-.44 2.18-.44h-.01Z" clip-rule="evenodd"/>
  <use xlink:href="#aq" fill-rule="evenodd" clip-rule="evenodd"/>
  <path fill="#574F35" fill-rule="evenodd" d="M336.27 270.32s1.37 1.48 4.4 1.93c.25-.38.8-1.11 0-2.3-.82-1.17-1.74-1.54-2.66-1.18a2.16 2.16 0 0 0-1.74 1.55Z" clip-rule="evenodd"/>
  <path fill="#82764F" fill-rule="evenodd" d="M334.91 272.68c-.08-.37-.25-.27-.43-.45-.19-.19-1.19-.56-1.37-.37-.07.07 0 .37 0 .73s0 .73.19 1c.25.36 1 .55 1.36.44.37-.11.44-.63.44-.73-.18-.07-.2-.43-.2-.62h.01Zm-6.43-2.4c0-.18-.6-1.42-.97-1.42-.55 0-.89-.1-.96 0-.18.08-.12.02-.3.35-.19.34-.37.7-.19 1.07.2.37.49.55.93.54.59.13 1.41-.27 1.49-.53Z" clip-rule="evenodd"/>
  <use xlink:href="#ar" fill-rule="evenodd" clip-rule="evenodd"/>
  <path fill="#574F35" fill-rule="evenodd" d="M335.33 278.3s1.3-.82 2.55-.27c1.18.56 1.1 2.74 1.1 2.74a1.75 1.75 0 0 1-1.62-.19c-.81-.55-1.84-1.47-2.03-2.29Z" clip-rule="evenodd"/>
  <use xlink:href="#at" fill-rule="evenodd" clip-rule="evenodd"/>
  <path fill="#6E6342" fill-rule="evenodd" d="M335.92 291.14s.63.37.63.56c.05.18.08.37.07.55 0 .11-.81-.07-.92-.18-.04-.08.22-.73.22-.93Z" clip-rule="evenodd"/>
  <use xlink:href="#as" fill-rule="evenodd" clip-rule="evenodd"/>
  <path fill="#252211" fill-rule="evenodd" d="M381.61 290.19c.25-.5-.33-.58-.6-.63-.55-.07-5.8-1.86-11.81-1.48-4.51.27-8.98 1-13.33 2.19-7.57 2-16.99 5.94-23.08 8.2-1.62.62-3.21 1.73-4.38 2.17-4.65 1.8-4.83 1.8-7.57 2.29-3.21.44-6.5-.63-9.93-1.36-4.21-.93-11.4-1.37-17.72-2.3a36.16 36.16 0 0 1-6.02-1.36s5.02 5.02 17.06 6.83c4.87.74 9.8.8 14.7.18 3.83-.37 6.38-.92 8.3-1.48 2.18-.62 6.64-2.28 12.14-3.65 3.85-1 8.13-1.73 13.04-2.65 12.1-2.22 24.11-3.67 28.79-6.14l.41-.81Z" clip-rule="evenodd"/>
  <path fill="#CFB66C" fill-rule="evenodd" d="M387.77 280.15a39.27 39.27 0 0 0 3.48 3.55l3.65 3.47c1.18 1.18 2.29 2.36 3.54 3.54 1.3 1.1 2.47 2.19 3.84 3.21l-3.54-3.47c-1.19-1.18-2.48-2.18-3.73-3.36l-3.55-3.47a54.29 54.29 0 0 0-3.69-3.47Zm-.55 6.39a76.92 76.92 0 0 0 3.91 9.04c3.1 6.21 7.75 13.96 9.79 17.91l-13.7-26.95Zm.3 9.33c0 1.37.37 2.55.81 3.73a39.3 39.3 0 0 0 1.48 3.47 60.11 60.11 0 0 0 1.8 3.36c.64 1.07 1.38 2.18 1.93 3.29l3.73 6.57c1.3 2.19 2.55 4.4 3.91 6.5-.92-2.37-2.18-4.58-3.36-6.76-1.3-2.19-2.47-4.38-3.65-6.64a37.62 37.62 0 0 1-1.55-3.47c-.55-1.19-1.1-2.3-1.55-3.36-.55-1.18-1-2.3-1.55-3.36-.63-1.15-1.14-2.26-2-3.33Z" clip-rule="evenodd"/>
  <path fill="#DEC270" fill-rule="evenodd" d="M376.28 314.8s3.66 4.84 3.29 10.97c-1-3.21-2.25-8.12-3.29-10.96Zm-3.47 4.85s1.3 13.15 2.37 19.6c-1.52-7.46-1.81-6.83-2.37-19.6Zm-24.18 20.38s5.36 17.45 5.57 20.53c-1.03-3.46-5.27-19.82-7.38-26.4l1.81 5.87Z" clip-rule="evenodd"/>
  <path fill="#ECD592" fill-rule="evenodd" d="M237.02 350.25c-1.47-.93-4.4-5.95-6.94-7.2-2.55-1.3-4.47-1.55-6.76-4.1-2.28-2.66-2.91-4.28-7.93-6.39-7.02-3.03-2.2-6.94-2.2-6.94-.77-.76-1.6-1.46-2.47-2.1-1.8-1.37-3.9-3.03-3.72-5.95.25-4.9-10.68-7.14-6.65-11.27-3.92-.82.44-6.26-4.21-7.44-5.4-1.37-11.13-.45-11.13-.45s-4.35-3.23-9.37-8.54c-5.02-5.32 1.6-13.39-1.43-19.33 3.47-.45 8.76-2.3 22.26 2.84 1.35 1.34 3.73-1 4.28.5 0 0 1.92 2.97 4.95 5.52 5.28 4.46 5.95 8.12 11.67 10.85 5.72 2.73 11.48 2 16.24 4.21 4.76 2.22 5.46 4.1 7.2 4.91-.37.44 1.99.12.93 3.02-.4 3.75 1.47 3.63 4.1 3.63a3.4 3.4 0 0 0 .07 1.87s-.93 1.04 3.2 1.34c-2.1 2.19-4.09 4.57-9.6 8.05.45.92 1.02 1.22 1.56 4.02-.81 1.74 1.48.55-3.03 5.67 5.77.46 1 1.53 7.76.6 6.75-.8 7.86-1.28 12.03-.25-.44.44-1.62.44-2.65 1.62 1.1.08 8.04-.81 10.4 2.3 2.48 3.2 3.55 8.49 3.37 12.03 1.29.63 2.54 1.73 1.92 4.02-.63 2.3-3.92 3.03-6.02 4.47-2.1 1.55-2.29 2.1-4.29 1.74-2.1-.45-5.2-2.55-7.01-2.55-1.81 0-3.1 1.37-3.1 1.37s-4.91-2.37-5.4-1.93c-.43.45-.06 3.29-.54 3.73-.5.34-6.02-2.95-7.5-3.87h.01Z" clip-rule="evenodd"/>
  <path fill="#E5CB7A" d="M398.5 333.34c-1.51 2.74-2.27 5.77-3.6 8.58-1.4 4.27-3.18 8.43-4.94 12.58-2.26 5.08-4.7 10.14-7.98 14.75-2 2.73-4.29 5.4-7.34 7.21-2.92 1.79-6.54 2.22-9.49 3.95-3.1 1.89-6.3 3.69-9.07 5.98-2.2 1.7-3.7 3.98-5.7 5.84-1.52 1.66-3.33 3.08-4.65 4.88.65.1 1.28.22 1.92.35a11.69 11.69 0 0 0-2.46 3.66l1.9-.99c.52.75-.38 1.43-.69 2.08.7.03 1.39.05 2.08.09a18.46 18.46 0 0 1-2.64 7.35c.65.03 2.42-.67 3.07-.63-2.03.78-2.9 3.63-2.36 5.24.14.8.33 1.06.16 1.88-.64 1.11-1.38 1.36-2.58 3.16.04 1.04.13 1.41.66 1.97-.74 3.94-2.06 3.74-2.24 6.16a5.68 5.68 0 0 0 3.3 5.89c3.35.46 6.45 2 8.9 4.05.5.46.82 1.26 1.29 1.75.7.75.8.5 1.52 1.23.28-.67 1.5.4 1.8-.25 1.98 1.22 2.76 2.51 3.4 4.56.56.66 1.3 1.21 1.73 1.97.26 1.1-.23 2.37.45 3.36 1.02.5 2.4.42 3.16 1.3 1.04 1.12 2.22 2.1 3.36 3.13a6.85 6.85 0 0 1 2.07 4.02 13.1 13.1 0 0 0-2.32 2.15c.68 1.82 1.16 3.8.48 5.7-.72 1.95-1.84 3.74-2.79 5.61h26.23c-1.38-1.04-3.09-1.5-4.69-2.14-.38-.51-.4-1.16-.47-1.75-.26-3.74.35-7.5 1.8-11 .41-1.01.94-2.04.84-3.15-.12-2.1-1.17-4-1.98-5.93 1.58-1.3 3.46-2.56 3.93-4.57.6-1.65-.05-3.34-.62-4.9 2.9-3.64 3.74-8.19 4.68-12.5.77-3.47 1-7 1.7-10.48 1.01 2.84 2.76 5.39 4.12 8.09 1.63 3.3 3.46 6.67 3.53 10.37.03 2.81-.48 5.63-.1 8.45.3 10.12 3.23 20 6.82 29.51h5.93c-.5-4.77-.92-9.54-1.35-14.31-.69-2.92-2.19-5.6-3.52-8.3-.73-2.84-.55-5.85.37-8.62a21.36 21.36 0 0 1-2.98-7.34c-.86-4.02-1.84-8-2.37-12.08a221.37 221.37 0 0 1-2.36-20.71c-.06-1.22-.56-2.38-.56-3.6-.16-3.5-1.57-6.84-1.9-10.34-.5-3.64 1.25-7.29.02-10.89-.86-3.68-4.18-6.64-4.07-10.53.09-2.99.77-4.97 2.4-7.33-.97-1.14-.06-2.47-.85-3.73-3.32-5.06-4.4-11.03-4.6-16.85.02-1.03-.28-2.13.21-3.1l-.56-.83Z"/>
  <path fill="#C39D3C" d="M104.84 355.63c-.4-1.85-.49-3.83-1.54-5.5-1.88 1.2-2.47 3.36-3.15 5.24-.03.5-.08 1.01-.2 1.51a107.17 107.17 0 0 0-2.62 14.8c-.52 3.86-.38 7.76-.43 11.64-.59 12.22-1.21 24.44-1.61 36.66.12 3.49-.44 6.95-.63 10.44-.99 13.8-1.4 27.64-1.42 41.48h26.08a22.27 22.27 0 0 1 7.08-3.77c-.03-.8-.22-1.66.24-2.38.77-1.32 2.06-2.32 2.73-3.7.4-.73.6-1.54 1.05-2.25 1.28-.67 2.83-.44 4.24-.5l.27-1.07c1.68.02 3.15.78 4.63 1.4-.13-2.57 1.84-4.56 3.77-6.17a15.08 15.08 0 0 1 8.82-3.19c4.44-.05 8.35 2.17 11.97 4.27.7-.36 1.4-.74 2.08-1.13-3.13-1.37-5.27-4.23-8.76-4.96l1.9-1.48c-.89-.37-1.89-.67-2.52-1.4-1.25-1.4-1.77-3.25-3.18-4.56-2.45-2.52-6.03-3.7-8.7-5.96.56-.25 1.12-.47 1.67-.7-2.11-.46-4.4-.75-6.13-2.07-1.36-.95-1.9-2.5-2.54-3.88-.44-1.08-1.48-1.74-2.54-2.26-.14-1.07.03-2.43-1.04-3.15-1.34-.76-3.06-.91-4.17-2.02-2.57-2.43-4.35-5.48-6.96-7.88l-.29 1.13c-.8-2.44-2.47-4.5-4.29-6.38a26.83 26.83 0 0 1-4.57-6.54c-.97-2.09-.96-4.42-.64-6.63.53-.2 1.06-.36 1.58-.56-2.83-3.23-1.75-7.63-2.53-11.42-.38-1.95-1.24-3.8-1.6-5.75-.25-1.21 1.2-1.94 1.5-3.01-.52-1.13-1.68-1.9-2.18-3.03-.52-1.51-.71-3.1-.9-4.67-.42-1.1-.87-2.2-1.25-3.32-.5.89-.88 1.82-1.12 2.8-.46-.8-1.13-1.56-1.2-2.5-.27-2.52-.35-5.08-.9-7.58Z"/>
  <path fill="#E0CD81" d="M150 382.42c-3.38-.9-7.02-.3-10.19.97-2.17 1.09-4.5-.28-6.7-.57-.24 2.42-.64 4.87-.2 7.3a20.89 20.89 0 0 1-3.4 1.43c.78 2.28 2.32 4.27 4.07 6.01a25.44 25.44 0 0 1-4.72 2.8c1.3 1.76 2.83 3.4 3.83 5.35 1.88 3.38 3.02 7.04 4.94 10.4 1.42 2.47 2.43 5.12 3.68 7.66 1.72 2.75 4.35 4.87 6.62 7.22-3.4-.63-6.63-1.83-9.99-2.6.65 1.39 1.18 2.94 2.54 3.89 1.73 1.32 4.02 1.61 6.13 2.07-.55.23-1.12.45-1.68.7 2.68 2.26 6.26 3.44 8.71 5.96 1.4 1.3 1.93 3.16 3.18 4.56.63.73 1.63 1.03 2.53 1.4-.64.48-1.28.98-1.9 1.48 3.48.73 5.62 3.59 8.75 4.96-.68.39-1.38.77-2.08 1.13 1.47.88 2.87 1.86 4.37 2.7.79-.18 1.58-.34 2.37-.5.85.93 1.24 2.29 2.42 2.94 3.55 1.16 7.41 1.5 10.79 3.11 3.01 1.24 5.7 3.33 9.1 3.63-.39-1.64-1-3.24-1.05-4.93 2.4.23 4.57 1.26 6.83 1.96 5.4 1.39 11.2 1.52 16.29 3.88 2.3 1.06 4.47 2.53 5.83 4.57H326.1c-1.78-1.42-4-2.28-6.34-2.47a16.04 16.04 0 0 1-8.04-2.89l1.77-1.5c-.75-1.91-2.64-3.12-4.17-4.48-.39.12-.77.48-1.21.3-1.19-.3-2.34-.68-3.54-.94-.81 1.58-1.11 3.54-2.79 4.6-1.2.85-2.87.6-4.19.12-4.98-1.93-8.51-5.92-13.2-8.27-.78 1.5-1.3 3.1-2.24 4.52-2.22-1.64-3.75-3.89-5.69-5.78-1.81-1.72-3.62-3.55-6.05-4.54-1.43-.69-3.1-.74-4.56-1.33-.6-.78-.96-1.7-1.47-2.53-1.28-2.19-3.14-4.02-5.08-5.72a29.25 29.25 0 0 0-8.73-5.67c-3.45-1.56-7.35-2.48-11.22-2.1-.66 0-1.52.22-1.96-.4a24.8 24.8 0 0 0-4.35-3.83c-1.08-.73-2-1.74-3.29-2.13-1.77.26-3.5 1.2-5.34.7-2.97-.62-4.87-2.94-7.1-4.63-1.94-1.64-4.26-3.2-7-3.28-2.02-.12-3.92.55-5.72 1.3-.67.39-1.29-.24-1.8-.58a200.79 200.79 0 0 0-13.02-10.48 78.9 78.9 0 0 0-9.31-5.57c.19-2.58-1.5-4.79-3.1-6.75a33.97 33.97 0 0 0-7.46-6.75l-.56 1.93c-3.65-1.35-6.7-3.7-9.94-5.69-2.9-1.88-5.89-3.84-9.4-4.64Z"/>
  <path fill="#CEB052" d="M351.14 443.68c-1.25-.29-1.61.66-2.88.44a19.9 19.9 0 0 0-7.14 1.22l-1.05.45c-2.95 1.52-4.91 4.13-7.58 5.97-.85.63-1.62 1.4-2.66 1.78-1.72.69-3.66.63-5.5.47-1.25 0-1.95-1.22-3.14-1.37-1.1.1-1.8 1.1-2.86 1.3-2.61.08-5.17-.89-7.79-.53-2.33.27-3.78 2.77-3.06 4.75.35.94 1.09 1.7 1.83 2.4 1.53 1.36 3.42 2.57 4.17 4.48l-1.77 1.5a16.04 16.04 0 0 0 8.04 2.9 11.6 11.6 0 0 1 6.34 2.46h42.81c.94-1.86 2.07-3.66 2.79-5.62.68-1.88 2.9-2.64 3.56-3.76.68-.82.69-3.5 1.55-4.13-.23-1.5-4.17-2.89-5.34-3.97-1.14-1.02-.82-1.28-2.86-2.82-.34-.58-.1-.53-1.4-2.92-.49-.92-1.48-1.14-2.71-2.05-3.2-2.01-.13-2.8-3.9-1.03-1.66-.28-1.22-1.14-2.79-.53-1.86.72-4.88-.57-6.66-1.4Z"/>
  <path fill="#D2BA6B" d="M164.12 454.54c-3.62-2.1-7.53-4.32-11.97-4.27a15.08 15.08 0 0 0-8.82 3.2c-1.93 1.6-3.9 3.59-3.77 6.15-1.48-.61-2.95-1.37-4.63-1.39l-.27 1.07c-1.4.06-2.96-.17-4.24.5-.45.71-.66 1.52-1.04 2.26-.68 1.37-1.97 2.37-2.74 3.69-.46.72-.27 1.58-.24 2.38a22.28 22.28 0 0 0-7.08 3.77h101.75c-1.36-2.04-3.53-3.5-5.83-4.57-5.08-2.36-10.9-2.5-16.3-3.88-2.25-.7-4.41-1.73-6.82-1.96.05 1.69.66 3.3 1.04 4.93-3.38-.3-6.08-2.39-9.09-3.63-3.38-1.6-7.24-1.95-10.8-3.11-1.17-.65-1.56-2-2.41-2.95l-2.38.5c-1.5-.83-2.89-1.81-4.36-2.69Z"/>
  <path fill="#F1D789" d="M400.35 415.57c-.64 3.47-1.78 7.47-1.1 10.4-.87 4.31-3.42 7.68-6.07 11.33.52 1.56 1.22 4.66.68 6.31-.44 2.01-3.06 4.2-4.5 5.5.73 1.92 1.67 3.78 1.78 5.88.1 1.11-.88 2.52-1.25 3.54-1.34 3.48-.37 6.43-.14 10.15-.01 1.12 1.39 1.54 1.74 2.05 1.47.64 1.86.23 3.12 1.27h20.52a93.4 93.4 0 0 1-5.1-28.83c-.34-2.81-.03-5.47-.06-8.3-.06-3.7-1.97-7.69-3.46-10.98-1.25-2.7-5.24-5.48-6.16-8.32Z"/>
  <use xlink:href="#at" fill-rule="evenodd" clip-rule="evenodd"/>
  <path fill="#CFB66C" fill-rule="evenodd" d="M384.22 287.67c1 1.32 1.9 2.7 2.72 4.15l2.61 4.3c.9 1.41 1.82 2.75 2.7 4.22.81 1.5 1.62 2.89 2.32 4.44l-2.63-4.2c-.9-1.4-1.6-2.88-2.48-4.36l-2.64-4.2a54.26 54.26 0 0 1-2.6-4.35Zm6.36.82a76.7 76.7 0 0 1 8 5.75c5.4 4.36 11.98 10.56 15.4 13.39l-23.4-19.14Zm1.09-15.11c.97.72 1.9 1.54 2.81 2.44l2.8 2.62c.95.83 1.88 1.6 2.83 2.5.92.96 1.8 1.82 2.67 2.87L400 281.3c-.94-.84-1.79-1.83-2.75-2.74l-2.78-2.51c-.97-.86-1.91-1.7-2.8-2.67Zm3.92-2.19a34 34 0 0 1 6.35 1.43c4.43 1.38 10.09 3.85 12.92 4.79l-19.27-6.22Z" clip-rule="evenodd"/>
  <path fill="#A08534" fill-rule="evenodd" d="M318.1 278.73c-.97.72-1.91 1.53-2.82 2.43l-2.8 2.63c-.94.83-1.87 1.6-2.83 2.5-.91.95-1.8 1.81-2.67 2.87l2.79-2.52c.94-.83 1.78-1.83 2.74-2.73l2.78-2.52c.97-.86 1.92-1.7 2.81-2.66Zm-3.92-2.2a34 34 0 0 0-6.35 1.43c-4.43 1.38-10.1 3.86-12.92 4.79l19.27-6.22Zm-7.43-4.4c-1.16.37-2.31.83-3.46 1.4l-3.5 1.57c-1.16.48-2.28.9-3.48 1.45-1.18.6-2.29 1.14-3.46 1.85l3.45-1.48c1.16-.49 2.28-1.15 3.48-1.7l3.45-1.48a37.2 37.2 0 0 0 3.52-1.6Zm-3-3.34a33.93 33.93 0 0 0-6.48-.71c-4.63-.13-10.79.38-13.77.35l20.25.36Z" clip-rule="evenodd"/>
  <path fill="#603A21" d="M192.87 56.43c-7.48-15.44 6.66-27.42 21.05-24.11 7.92 1.82 14.25 8.5 15.68 15.32a155.16 155.16 0 0 0-36.73 8.8Z"/>
  <path fill="#512E1A" d="M197.53 35.36c12.04-8.63 29.35-.74 32.07 12.28a157.5 157.5 0 0 0-15.1 2.49c-1.84-6.85-8.47-13.42-16.97-14.77Z"/>
  <path fill="#B2794F" d="m324.94 70.66 63.32 61.88-280.38 69.43C87.48 90.92 216.34 13.47 324.94 70.66Z"/>
  <path fill="#96623B" d="M214.02 49.33c37.83-8.1 77.65-1.89 110.92 15.63l63.32 61.88-167.56 41.49c36.37-31.57 34.2-86.71-6.68-119Z"/>
  <path fill="#512E1A" d="M387.57 126.68S607.03 215 308.31 146.3l79.26-19.62Z"/>
  <path fill="#603A21" d="m108.03 195.64 65.44-16.2s-122.22 172.13-65.44 16.2Z"/>
  <path fill="#704528" d="M309 146.46s-33.53-74.5-93.97-97.36c36.4-7.52 75.93-2.04 109.9 15.86l63.33 61.88-79.25 19.62Z"/>
  <path fill="#7F5030" d="M210.58 50.1c-.06.05-23.24 17.47-32.14 43.05-8.9 25.63-5.11 86.9-5.11 86.9l-65.45 16.21C95.7 130 138.84 67.15 210.58 50.1Z"/>
  <path fill="#F6BB42" d="m398.8 179.49-7.41 1.72a1.81 1.81 0 0 0 .82 3.54l7.42-1.73a3.62 3.62 0 1 1 1.63 7.07l-7.42 1.72a1.81 1.81 0 0 0 .82 3.54l7.41-1.73a7.24 7.24 0 1 0-3.27-14.13Z"/>
  <path fill="#FFCE54" d="M364.08 230.38a34.5 34.5 0 0 0 25.79-41.37 34.37 34.37 0 0 0-41.3-25.75 34.52 34.52 0 0 0-25.79 41.37 34.37 34.37 0 0 0 41.3 25.75Zm-16.74-72.42a39.83 39.83 0 0 1 48.7 35.2 40 40 0 0 1-30.73 42.52 39.8 39.8 0 0 1-47.82-29.82 39.96 39.96 0 0 1 29.85-47.9Z"/>
  <path fill="#5D9CEC" fill-opacity=".5" d="M348.57 163.26a34.37 34.37 0 0 1 41.3 25.75 34.5 34.5 0 0 1-25.79 41.37 34.37 34.37 0 0 1-41.3-25.75 34.52 34.52 0 0 1 25.79-41.37Z"/>
  <path fill="#4A89DC" d="M348.56 163.26c-.9.2-1.76.47-2.62.75a34.36 34.36 0 0 1 38.62 26.24 34.48 34.48 0 0 1-23.17 40.63 34.5 34.5 0 0 0 28.47-41.86 34.38 34.38 0 0 0-41.3-25.76Z"/>
  <path fill="#F6BB42" d="M401.54 199.34a5.46 5.46 0 0 0-4.07 6.54l1.22 5.29a5.44 5.44 0 1 0 10.6-2.47l-1.23-5.29a5.43 5.43 0 0 0-6.52-4.07Zm2.86 12.36a1.81 1.81 0 0 1-2.17-1.36l-1.23-5.29a1.81 1.81 0 1 1 3.53-.82l1.23 5.3c.22.97-.39 1.94-1.36 2.17Zm2.46 10.61a5.46 5.46 0 0 0-4.08 6.53l1.22 5.28a5.43 5.43 0 1 0 10.6-2.46l-1.22-5.28a5.44 5.44 0 0 0-6.52-4.07Zm2.85 12.35a1.81 1.81 0 0 1-2.18-1.36l-1.22-5.28a1.82 1.82 0 0 1 3.54-.82l1.22 5.28c.22.98-.39 1.95-1.36 2.18Zm2.04 8.84a5.46 5.46 0 0 0-4.07 6.53l1.22 5.29a5.43 5.43 0 1 0 10.6-2.47l-1.22-5.29a5.44 5.44 0 0 0-6.52-4.06Zm2.86 12.35a1.81 1.81 0 0 1-2.17-1.35l-1.23-5.3a1.81 1.81 0 1 1 3.53-.82l1.23 5.3c.22.97-.39 1.95-1.36 2.17Z"/>
  <path fill="#FFCE54" d="M402.77 204.64a1.8 1.8 0 0 1-2.18-1.35l-2.86-12.38a1.82 1.82 0 0 1 3.54-.82l2.86 12.37c.22.98-.38 1.95-1.36 2.18Zm10.21 44.16a1.8 1.8 0 0 1-2.17-1.36l-2.86-12.37a1.81 1.81 0 0 1 3.53-.82l2.86 12.37c.22.97-.38 1.95-1.36 2.18ZM404 209.93a1.81 1.81 0 0 0-1.36 2.18l3.26 14.14a1.8 1.8 0 1 0 3.54-.82l-3.27-14.14a1.8 1.8 0 0 0-2.18-1.36Z"/>
  <defs>
    <linearGradient id="a" x1="0" x2="679" y1="512" y2="-143" gradientUnits="userSpaceOnUse">
      <stop stop-color="#323232"/>
      <stop offset="1" stop-color="#404040"/>
    </linearGradient>
  </defs>
</svg>
