<svg xmlns="http://www.w3.org/2000/svg" width="2699" height="512" fill="none"><rect width="512" height="512" fill="url(#a)" rx="32"/><path fill="#FFCE1F" d="M362.404 226.707c4.777-31.933-19.536-49.099-52.781-60.551l10.784-43.257-26.33-6.562-10.499 42.117c-6.922-1.725-14.032-3.352-21.097-4.964l10.575-42.395-26.316-6.562-10.792 43.242c-5.729-1.305-11.354-2.595-16.813-3.952l.03-.135-36.312-9.067-7.004 28.123s19.536 4.477 19.123 4.755c10.664 2.662 12.591 9.719 12.269 15.313l-12.285 49.279c.735.188 1.689.458 2.739.878-.878-.218-1.815-.458-2.783-.69l-17.219 69.032c-1.305 3.24-4.612 8.1-12.066 6.255.262.382-19.139-4.777-19.139-4.777l-13.072 30.14 34.265 8.542c6.375 1.597 12.622 3.269 18.771 4.844l-10.896 43.752 26.3 6.562 10.792-43.287c7.184 1.95 14.159 3.75 20.983 5.445l-10.753 43.084 26.329 6.562 10.897-43.669c44.899 8.497 78.663 5.07 92.874-35.54 11.452-32.698-.571-51.559-24.194-63.858 17.204-3.967 30.163-15.284 33.62-38.659Zm-60.16 84.361c-8.137 32.697-63.191 15.021-81.039 10.589l14.458-57.963c17.849 4.455 75.085 13.274 66.581 47.374Zm8.144-84.834c-7.425 29.743-53.246 14.632-68.11 10.927l13.11-52.571c14.864 3.705 62.732 10.619 55 41.644Z"/><path fill="#fff" d="M2679.61 182.2c6.66 0 12.4 1.466 17.2 4.4 1.86 1.066 2.53 2.8 2 5.2l-6 30.4c-.27 2.4-1.87 3.2-4.8 2.4-3.47-1.334-7.2-2-11.2-2-1.6 0-4 .266-7.2.8-8.27.8-15.2 5.333-20.8 13.6-5.34 8.266-8 18.266-8 30v116.8c0 2.666-1.34 4-4 4h-30.4c-2.67 0-4-1.334-4-4V188.2c0-2.667 1.33-4 4-4h30.4c2.66 0 4 1.333 4 4v23.2c0 .8.13 1.333.4 1.6.53 0 .93-.4 1.2-1.2 7.73-19.734 20.13-29.6 37.2-29.6ZM2566.41 297.8c0 2.667-1.33 4-4 4h-90.4c-1.07 0-1.6.533-1.6 1.6V325c0 9.6 2.67 17.467 8 23.6 5.33 6.133 12.27 9.2 20.8 9.2 7.47 0 13.73-2.267 18.8-6.8 5.07-4.533 8.27-10.4 9.6-17.6.8-2.133 2.27-3.2 4.4-3.2l29.6 1.6c1.33 0 2.27.4 2.8 1.2.8.8 1.07 1.733.8 2.8-1.87 17.333-8.53 30.933-20 40.8-11.2 9.6-26.53 14.4-46 14.4-20.53 0-36.93-5.733-49.2-17.2-12-11.467-18-26.8-18-46v-83.2c0-18.933 6-34.267 18-46 12.27-11.733 28.67-17.6 49.2-17.6 20.8 0 37.2 5.867 49.2 17.6s18 27.067 18 46v53.2Zm-67.2-83.6c-8.53 0-15.47 3.067-20.8 9.2-5.33 6.133-8 14-8 23.6v21.2c0 1.067.53 1.6 1.6 1.6h54.8c1.07 0 1.6-.533 1.6-1.6V247c0-9.6-2.67-17.467-8-23.6-5.33-6.133-12.4-9.2-21.2-9.2ZM2393.28 182.2c6.66 0 12.4 1.466 17.2 4.4 1.86 1.066 2.53 2.8 2 5.2l-6 30.4c-.27 2.4-1.87 3.2-4.8 2.4-3.47-1.334-7.2-2-11.2-2-1.6 0-4 .266-7.2.8-8.27.8-15.2 5.333-20.8 13.6-5.34 8.266-8 18.266-8 30v116.8c0 2.666-1.34 4-4 4h-30.4c-2.67 0-4-1.334-4-4V188.2c0-2.667 1.33-4 4-4h30.4c2.66 0 4 1.333 4 4v23.2c0 .8.13 1.333.4 1.6.53 0 .93-.4 1.2-1.2 7.73-19.734 20.13-29.6 37.2-29.6ZM2210.55 391c-20.8 0-37.34-5.733-49.6-17.2-12-11.733-18-27.2-18-46.4v-82.8c0-18.933 6.13-34.267 18.4-46 12.26-11.733 28.66-17.6 49.2-17.6 20.8 0 37.33 5.867 49.6 17.6 12.26 11.733 18.4 27.067 18.4 46v82.8c0 19.2-6.14 34.667-18.4 46.4-12.27 11.467-28.8 17.2-49.6 17.2Zm0-33.6c8.53 0 15.6-2.933 21.2-8.8 5.6-6.133 8.4-14.133 8.4-24V247c0-9.6-2.8-17.467-8.4-23.6-5.6-6.133-12.67-9.2-21.2-9.2-8.54 0-15.6 3.067-21.2 9.2-5.34 6.133-8 14-8 23.6v77.6c0 9.867 2.66 17.867 8 24 5.6 5.867 12.66 8.8 21.2 8.8ZM2072.38 387.8c-2.66 0-4-1.334-4-4v-272c0-2.667 1.34-4 4-4h30.4c2.67 0 4 1.333 4 4v272c0 2.666-1.33 4-4 4h-30.4ZM1975.36 181c17.33 0 31.06 5.867 41.2 17.6 10.4 11.467 15.6 26.667 15.6 45.6v83.2c0 19.733-5.2 35.333-15.6 46.8-10.14 11.2-23.87 16.8-41.2 16.8-6.4 0-12.94-1.2-19.6-3.6-6.4-2.4-12.14-6.133-17.2-11.2-1.34-.8-2-.533-2 .8v83.2c0 2.667-1.34 4-4 4h-30.4c-2.67 0-4-1.333-4-4v-272c0-2.667 1.33-4 4-4h30.4c2.66 0 4 1.333 4 4v6.4c0 .533.26.933.8 1.2.53 0 1.06-.267 1.6-.8 5.06-4.8 10.8-8.267 17.2-10.4 6.4-2.4 12.8-3.6 19.2-3.6Zm18.8 66c0-9.6-2.8-17.467-8.4-23.6-5.34-6.133-12.27-9.2-20.8-9.2-8.27 0-15.07 3.067-20.4 9.2-5.34 6.133-8 14-8 23.6v78c0 9.6 2.66 17.467 8 23.6 5.33 6.133 12.13 9.2 20.4 9.2 8.53 0 15.46-3.067 20.8-9.2 5.6-6.133 8.4-14 8.4-23.6v-78ZM1726.78 387.8c-1.33 0-2.27-.4-2.8-1.2-.53-1.067-.53-2.267 0-3.6l48.4-95.6c.53-.8.53-1.6 0-2.4l-48.4-96c-.27-.534-.4-1.2-.4-2 0-1.867 1.07-2.8 3.2-2.8h33.6c2.4 0 4 .933 4.8 2.8l29.2 62.4c.27.533.67.8 1.2.8.53 0 .93-.267 1.2-.8l29.6-62.4c.8-1.867 2.4-2.8 4.8-2.8h33.2c1.33 0 2.27.533 2.8 1.6.53.8.53 1.866 0 3.2l-48 96c-.27.8-.27 1.6 0 2.4l48 95.6c.27.533.4 1.2.4 2 0 1.866-1.07 2.8-3.2 2.8h-33.2c-2.4 0-4-.934-4.8-2.8l-29.6-63.2c-.27-.534-.67-.8-1.2-.8-.53 0-.93.266-1.2.8l-29.6 63.2c-.8 1.866-2.27 2.8-4.4 2.8h-33.6ZM1702.13 137c0 2.666-1.34 4-4 4h-90.01c-1.06 0-1.59.533-1.59 1.6v86.8c0 1.066.53 1.6 1.59 1.6h55.21c2.66 0 4 1.333 4 4v25.2c0 2.666-1.34 4-4 4h-55.21c-1.06 0-1.59.533-1.59 1.6V353c0 1.066.53 1.6 1.59 1.6h90.01c2.66 0 4 1.333 4 4v25.2c0 2.666-1.34 4-4 4h-126.01c-2.66 0-4-1.334-4-4v-272c0-2.667 1.34-4 4-4h126.01c2.66 0 4 1.333 4 4V137ZM1449.39 137c0 2.666-1.33 4-4 4h-90c-1.07 0-1.6.533-1.6 1.6v86.8c0 1.066.53 1.6 1.6 1.6h55.2c2.67 0 4 1.333 4 4v25.2c0 2.666-1.33 4-4 4h-55.2c-1.07 0-1.6.533-1.6 1.6V353c0 1.066.53 1.6 1.6 1.6h90c2.67 0 4 1.333 4 4v25.2c0 2.666-1.33 4-4 4h-126c-2.67 0-4-1.334-4-4v-272c0-2.667 1.33-4 4-4h126c2.67 0 4 1.333 4 4V137ZM1134.23 387.8c-2.66 0-4-1.334-4-4v-272c0-2.667 1.34-4 4-4h65.6c22.14 0 39.74 6.8 52.8 20.4 13.07 13.6 19.6 32 19.6 55.2v128.8c0 23.2-6.53 41.6-19.6 55.2-13.06 13.6-30.66 20.4-52.8 20.4h-65.6Zm34.4-34.8c0 1.066.54 1.6 1.6 1.6l29.2-.4c10.14 0 18.27-3.867 24.4-11.6 6.14-8 9.34-18.8 9.6-32.4V185.4c0-13.6-3.06-24.4-9.2-32.4-6.13-8-14.4-12-24.8-12h-29.2c-1.06 0-1.6.533-1.6 1.6V353ZM1046.34 387.8c-2.66 0-4-1.334-4-4v-272c0-2.667 1.34-4 4-4h30.4c2.67 0 4 1.333 4 4v272c0 2.666-1.33 4-4 4h-30.4ZM1007.79 208.2c0 2.667-1.34 4-4 4h-28.003c-1.066 0-1.6.533-1.6 1.6v112.4c0 10.667 1.867 18.133 5.6 22.4 3.734 4 9.6 5.867 17.6 5.6h3.603c2.66 0 4 1.333 4 4v25.6c0 2.667-1.34 4-4 4h-12.403c-17.066 0-30-3.333-38.8-10-8.533-6.667-12.8-19.333-12.8-38v-126c0-1.067-.533-1.6-1.6-1.6h-15.6c-2.666 0-4-1.333-4-4v-20c0-2.667 1.334-4 4-4h15.6c1.067 0 1.6-.533 1.6-1.6v-45.2c0-2.667 1.334-4 4-4h29.2c2.667 0 4 1.333 4 4v45.2c0 1.067.534 1.6 1.6 1.6h28.003c2.66 0 4 1.333 4 4v20ZM864.622 152.2c-7.467 0-13.6-2.4-18.4-7.2-4.8-4.8-7.2-10.933-7.2-18.4 0-7.467 2.4-13.6 7.2-18.4 4.8-4.8 10.933-7.2 18.4-7.2 7.733 0 13.866 2.4 18.4 7.2 4.8 4.533 7.2 10.667 7.2 18.4 0 7.467-2.4 13.6-7.2 18.4-4.8 4.8-10.934 7.2-18.4 7.2Zm-14.8 235.6c-2.667 0-4-1.333-4-4V188.2c0-2.667 1.333-4 4-4h30.4c2.666 0 4 1.333 4 4v195.6c0 2.667-1.334 4-4 4h-30.4ZM810.6 311.4c0 24.266-6.933 43.066-20.8 56.4-13.6 13.333-31.6 20-54 20H669c-2.667 0-4-1.334-4-4v-272c0-2.667 1.333-4 4-4h61.2c24.267 0 43.2 6.4 56.8 19.2 13.867 12.533 20.8 30.933 20.8 55.2 0 28.8-10.267 48.666-30.8 59.6-1.333.8-1.467 1.466-.4 2 10.667 6.4 18.933 15.333 24.8 26.8 6.133 11.466 9.2 25.066 9.2 40.8ZM705 141c-1.067 0-1.6.533-1.6 1.6v84.8c0 1.066.533 1.6 1.6 1.6h25.6c12.533 0 22.267-3.734 29.2-11.2 6.933-7.734 10.4-18.4 10.4-32 0-14.134-3.467-25.067-10.4-32.8-6.933-8-16.667-12-29.2-12H705Zm27.6 213.2c12.267 0 21.867-4.134 28.8-12.4 7.2-8.267 10.8-20 10.8-35.2 0-15.467-3.467-27.467-10.4-36-6.933-8.8-16.533-13.2-28.8-13.2h-28c-1.067 0-1.6.533-1.6 1.6v93.6c0 1.066.533 1.6 1.6 1.6h27.6Z"/><defs><linearGradient id="a" x1="0" x2="679" y1="512" y2="-143" gradientUnits="userSpaceOnUse"><stop stop-color="#323232"/><stop offset="1" stop-color="#404040"/></linearGradient></defs></svg>